<svg width="617" height="617" viewBox="0 0 617 617" fill="none" xmlns="http://www.w3.org/2000/svg">
<path d="M263.683 397.001L262.553 403.949L261.336 411.413L250.233 479.492H232.074L243.178 411.413L244.394 403.949L245.525 397.001H263.683Z" fill="#EBEBEB"/>
<path d="M261.051 397.001C260.095 403.897 259.066 410.782 258.026 417.665L254.824 438.3L251.469 458.91L249.736 469.207L247.934 479.492L249.411 469.155L250.957 458.829L254.159 438.194L257.516 417.583C258.663 410.719 259.821 403.854 261.051 397.001Z" fill="#C7C7C7"/>
<path d="M262.553 403.949L261.336 411.413H243.178L244.394 403.949H262.553Z" fill="#C7C7C7"/>
<path d="M353.316 397.001L354.447 403.949L355.663 411.413L366.767 479.492H384.925L373.822 411.413L372.604 403.949L371.475 397.001H353.316Z" fill="#EBEBEB"/>
<path d="M356.004 397.001C356.96 403.897 357.988 410.782 359.028 417.665L362.229 438.3L365.585 458.91L367.317 469.207L369.12 479.492L367.643 469.155L366.096 458.829L362.893 438.194L359.537 417.583C358.392 410.719 357.234 403.854 356.004 397.001Z" fill="#C7C7C7"/>
<path d="M354.447 403.949H372.604L373.822 411.413H355.664L354.447 403.949Z" fill="#C7C7C7"/>
<path d="M263.022 377.851H248.625L250.416 364.431H261.233L263.022 377.851Z" fill="#C7C7C7"/>
<path d="M269.05 357.18C270.338 349.882 265.466 342.922 258.168 341.634C250.871 340.347 243.911 345.218 242.623 352.516C241.335 359.813 246.207 366.773 253.504 368.061C260.802 369.349 267.762 364.477 269.05 357.18Z" fill="#DBDBDB"/>
<path d="M265.772 357.191C267.07 351.71 263.68 346.214 258.199 344.915C252.718 343.616 247.221 347.006 245.922 352.487C244.623 357.969 248.014 363.465 253.495 364.764C258.976 366.063 264.473 362.672 265.772 357.191Z" fill="white"/>
<path d="M264.349 354.249C264.169 351.758 262.903 349.464 261.018 347.989C259.13 346.508 256.632 345.825 254.16 346.193C251.771 346.549 249.598 347.967 248.264 350.028C246.911 352.086 246.455 354.786 247.188 357.384C247.778 359.515 249.265 361.36 251.17 362.427C253.073 363.511 255.349 363.844 257.413 363.386C259.492 362.95 261.364 361.785 262.651 360.18C263.948 358.584 264.723 356.571 264.807 354.497C264.812 354.4 264.776 354.317 264.725 354.314C264.677 354.314 264.633 354.389 264.628 354.49C264.593 355.332 264.409 356.158 264.152 356.949C263.874 357.737 263.486 358.476 263.024 359.163C262.544 359.839 261.982 360.451 261.353 360.998C260.712 361.532 260.002 361.988 259.235 362.367C257.072 363.404 254.493 363.478 252.273 362.533C250.056 361.606 248.27 359.684 247.55 357.353C246.778 354.885 247.159 352.247 248.443 350.213C249.717 348.181 251.849 346.775 254.183 346.436C257.405 345.973 260.659 347.155 262.632 349.8C263.109 350.452 263.481 351.168 263.771 351.921C264.048 352.68 264.216 353.473 264.306 354.29C264.312 354.312 264.326 354.321 264.337 354.314C264.349 354.304 264.354 354.278 264.349 354.249Z" fill="#EBEBEB"/>
<path d="M263.155 354.259C262.975 352.117 261.877 350.175 260.265 348.917C258.648 347.66 256.531 347.071 254.406 347.362C252.36 347.647 250.475 348.847 249.304 350.615C248.118 352.377 247.697 354.721 248.314 356.986C248.808 358.846 250.105 360.467 251.77 361.394C253.431 362.336 255.419 362.619 257.215 362.209C259.02 361.817 260.639 360.797 261.749 359.398C262.867 358.006 263.533 356.271 263.613 354.473C263.617 354.387 263.582 354.316 263.532 354.313C263.484 354.313 263.439 354.379 263.434 354.466C263.282 357.406 261.414 359.987 258.776 361.266C256.92 362.177 254.676 362.257 252.754 361.441C250.831 360.644 249.278 358.966 248.673 356.946C248.022 354.807 248.371 352.527 249.49 350.793C250.603 349.055 252.447 347.871 254.435 347.607C257.186 347.249 259.928 348.222 261.641 350.467C262.051 351.021 262.374 351.63 262.63 352.27C262.871 352.917 263.023 353.594 263.113 354.296C263.12 354.316 263.133 354.323 263.144 354.316C263.155 354.306 263.16 354.283 263.155 354.259Z" fill="#EBEBEB"/>
<path d="M261.961 354.268C261.78 352.474 260.851 350.884 259.511 349.843C258.165 348.81 256.428 348.315 254.652 348.53C252.949 348.742 251.351 349.723 250.342 351.2C249.323 352.666 248.939 354.653 249.438 356.588C249.836 358.176 250.943 359.574 252.369 360.361C253.788 361.162 255.487 361.396 257.016 361.03C258.549 360.685 259.913 359.807 260.846 358.615C261.784 357.428 262.343 355.971 262.42 354.448C262.423 354.376 262.389 354.315 262.337 354.314C262.289 354.314 262.244 354.368 262.239 354.442C262.094 356.919 260.519 359.061 258.315 360.163C256.765 360.946 254.858 361.033 253.234 360.347C251.605 359.678 250.286 358.245 249.793 356.535C249.261 354.724 249.58 352.803 250.534 351.369C251.485 349.927 253.04 348.964 254.684 348.773C255.835 348.651 256.948 348.778 257.972 349.165C258.995 349.555 259.931 350.215 260.648 351.13C260.992 351.585 261.263 352.086 261.485 352.614C261.693 353.147 261.827 353.71 261.917 354.298C261.923 354.312 261.937 354.322 261.948 354.315C261.962 354.307 261.965 354.288 261.961 354.268Z" fill="#EBEBEB"/>
<path d="M260.765 354.276C260.584 352.831 259.823 351.594 258.756 350.768C257.681 349.959 256.326 349.559 254.897 349.698C253.537 349.838 252.227 350.602 251.383 351.786C250.53 352.956 250.182 354.587 250.565 356.19C250.867 357.508 251.785 358.681 252.97 359.33C254.147 359.989 255.557 360.172 256.819 359.853C258.077 359.553 259.189 358.82 259.944 357.833C260.703 356.851 261.154 355.671 261.225 354.423C261.229 354.364 261.194 354.315 261.144 354.312C261.096 354.312 261.051 354.357 261.046 354.417C260.907 356.431 259.625 358.134 257.856 359.059C256.614 359.716 255.042 359.808 253.714 359.252C252.379 358.713 251.295 357.524 250.916 356.124C250.505 354.643 250.791 353.079 251.58 351.944C252.369 350.796 253.636 350.055 254.936 349.938C255.849 349.866 256.721 349.971 257.524 350.268C258.327 350.569 259.074 351.077 259.657 351.791C259.936 352.149 260.157 352.541 260.344 352.957C260.518 353.378 260.635 353.825 260.725 354.299C260.732 354.31 260.745 354.32 260.758 354.312C260.765 354.308 260.77 354.292 260.765 354.276Z" fill="#EBEBEB"/>
<path d="M368.064 377.851H353.668L355.457 364.431H366.275L368.064 377.851Z" fill="#C7C7C7"/>
<path d="M374.159 356.859C375.277 349.534 370.245 342.688 362.919 341.57C355.593 340.452 348.748 345.484 347.63 352.81C346.512 360.136 351.544 366.981 358.87 368.099C366.195 369.217 373.041 364.185 374.159 356.859Z" fill="#DBDBDB"/>
<path d="M370.977 356.385C371.826 350.816 368.001 345.614 362.432 344.764C356.864 343.915 351.661 347.74 350.811 353.309C349.962 358.877 353.788 364.08 359.356 364.93C364.925 365.779 370.128 361.953 370.977 356.385Z" fill="white"/>
<path d="M369.392 354.249C369.212 351.758 367.946 349.464 366.061 347.989C364.173 346.509 361.674 345.825 359.203 346.193C356.813 346.549 354.641 347.967 353.307 350.028C351.954 352.086 351.498 354.786 352.231 357.384C352.821 359.515 354.307 361.36 356.213 362.427C358.116 363.511 360.392 363.844 362.456 363.386C364.535 362.95 366.407 361.785 367.694 360.18C368.991 358.584 369.766 356.571 369.85 354.497C369.855 354.4 369.819 354.317 369.768 354.314C369.72 354.314 369.676 354.389 369.671 354.49C369.636 355.332 369.452 356.158 369.194 356.949C368.917 357.737 368.529 358.476 368.067 359.163C367.588 359.839 367.025 360.452 366.396 360.998C365.755 361.532 365.045 361.988 364.278 362.367C362.115 363.404 359.536 363.478 357.316 362.533C355.1 361.607 353.312 359.684 352.593 357.353C351.821 354.885 352.202 352.247 353.486 350.213C354.76 348.181 356.891 346.775 359.226 346.436C362.448 345.973 365.702 347.155 367.675 349.8C368.152 350.452 368.524 351.168 368.814 351.921C369.091 352.68 369.259 353.473 369.349 354.29C369.355 354.312 369.368 354.321 369.38 354.314C369.392 354.304 369.397 354.278 369.392 354.249Z" fill="#EBEBEB"/>
<path d="M368.198 354.259C368.018 352.117 366.92 350.175 365.308 348.917C363.69 347.66 361.574 347.071 359.449 347.362C357.403 347.647 355.518 348.847 354.347 350.615C353.161 352.377 352.74 354.721 353.357 356.986C353.851 358.846 355.147 360.467 356.813 361.394C358.474 362.336 360.462 362.62 362.258 362.209C364.063 361.817 365.682 360.797 366.792 359.398C367.91 358.006 368.576 356.271 368.656 354.473C368.661 354.388 368.625 354.316 368.575 354.314C368.527 354.314 368.482 354.379 368.477 354.467C368.325 357.406 366.457 359.987 363.819 361.266C361.963 362.177 359.719 362.257 357.797 361.441C355.874 360.644 354.322 358.966 353.716 356.946C353.064 354.807 353.414 352.527 354.532 350.793C355.645 349.055 357.488 347.871 359.476 347.607C362.228 347.249 364.971 348.222 366.683 350.467C367.093 351.021 367.416 351.63 367.671 352.27C367.913 352.917 368.065 353.594 368.155 354.296C368.161 354.316 368.175 354.323 368.186 354.316C368.2 354.306 368.203 354.283 368.198 354.259Z" fill="#EBEBEB"/>
<path d="M367.005 354.268C366.825 352.474 365.896 350.884 364.556 349.843C363.209 348.81 361.473 348.315 359.696 348.53C357.993 348.742 356.395 349.723 355.387 351.2C354.368 352.666 353.984 354.653 354.484 356.588C354.882 358.176 355.989 359.574 357.414 360.361C358.833 361.162 360.533 361.396 362.062 361.03C363.594 360.685 364.959 359.807 365.892 358.615C366.83 357.428 367.389 355.971 367.465 354.448C367.469 354.377 367.434 354.315 367.384 354.314C367.336 354.314 367.291 354.368 367.286 354.442C367.141 356.919 365.566 359.061 363.362 360.163C361.812 360.946 359.905 361.033 358.279 360.347C356.651 359.678 355.333 358.245 354.84 356.535C354.308 354.725 354.627 352.803 355.581 351.369C356.532 349.927 358.087 348.964 359.731 348.773C360.882 348.651 361.995 348.778 363.019 349.165C364.041 349.555 364.978 350.216 365.694 351.13C366.039 351.585 366.31 352.086 366.532 352.614C366.74 353.147 366.874 353.71 366.964 354.298C366.97 354.312 366.984 354.322 366.996 354.315C367.005 354.307 367.01 354.288 367.005 354.268Z" fill="#EBEBEB"/>
<path d="M365.81 354.277C365.63 352.832 364.87 351.594 363.801 350.768C362.726 349.959 361.371 349.559 359.942 349.698C358.582 349.838 357.272 350.602 356.428 351.786C355.575 352.956 355.227 354.588 355.61 356.191C355.912 357.508 356.83 358.681 358.015 359.33C359.192 359.989 360.602 360.173 361.864 359.853C363.122 359.553 364.234 358.82 364.989 357.833C365.748 356.851 366.199 355.671 366.27 354.423C366.274 354.364 366.239 354.315 366.189 354.312C366.141 354.312 366.096 354.357 366.091 354.417C365.952 356.431 364.67 358.134 362.901 359.06C361.659 359.716 360.087 359.809 358.759 359.252C357.425 358.713 356.34 357.525 355.961 356.124C355.55 354.643 355.835 353.08 356.625 351.944C357.414 350.797 358.681 350.055 359.98 349.938C360.894 349.866 361.766 349.971 362.569 350.269C363.371 350.57 364.119 351.077 364.702 351.791C364.981 352.149 365.202 352.542 365.389 352.957C365.563 353.378 365.68 353.825 365.77 354.299C365.777 354.31 365.79 354.32 365.802 354.312C365.81 354.309 365.815 354.293 365.81 354.277Z" fill="#EBEBEB"/>
<path d="M398.96 371.011H218.041V405.616H398.96V371.011Z" fill="#DBDBDB"/>
<path d="M255.225 371.011L242.095 405.615H218.73L231.861 371.011H255.225Z" fill="#EBEBEB"/>
<path d="M303.119 371.011L289.989 405.615H266.617L279.747 371.011H303.119Z" fill="#EBEBEB"/>
<path d="M351.006 371.011L337.876 405.615H314.512L327.643 371.011H351.006Z" fill="#EBEBEB"/>
<path d="M398.9 371.011L385.77 405.615H362.398L375.528 371.011H398.9Z" fill="#EBEBEB"/>
<path d="M395.297 437.609H221.703V459.508H395.297V437.609Z" fill="#DBDBDB"/>
<path d="M257.381 437.609L244.782 459.508H222.365L234.963 437.609H257.381Z" fill="#EBEBEB"/>
<path d="M303.337 437.609L290.738 459.508H268.312L280.912 437.609H303.337Z" fill="#EBEBEB"/>
<path d="M349.284 437.609L336.686 459.509H314.268L326.867 437.609H349.284Z" fill="#EBEBEB"/>
<path d="M395.241 437.609L382.642 459.509H360.215L372.814 437.609H395.241Z" fill="#EBEBEB"/>
<path d="M577.265 206.21H437.6C437.6 206.21 451.448 168.387 472.76 168.387C494.072 168.387 500.748 194.495 500.748 194.495C500.748 194.495 515.128 180.31 526.939 180.31C538.751 180.31 549.021 199.054 549.021 199.054C549.021 199.054 565.711 188.974 577.265 206.21Z" fill="#EBEBEB"/>
<path d="M202.952 117.503H137.684C137.684 117.503 152.268 96.3731 163.758 96.3731C175.249 96.3731 178.644 110.46 178.644 110.46C178.644 110.46 186.752 103.887 194.266 105.06C201.779 106.234 202.952 117.503 202.952 117.503Z" fill="#EBEBEB"/>
<path d="M555.028 269.641H489.76C489.76 269.641 504.344 248.512 515.834 248.512C527.324 248.512 530.72 262.599 530.72 262.599C530.72 262.599 538.829 256.025 546.342 257.199C553.854 258.371 555.028 269.641 555.028 269.641Z" fill="#EBEBEB"/>
<path d="M166.869 170.448H39.7363C39.7363 170.448 57.1468 131.579 75.7704 129.149C94.3951 126.72 103.302 158.031 103.302 158.031C103.302 158.031 115.314 146.965 124.761 146.965C134.209 146.965 141.497 161.541 141.497 161.541C141.497 161.541 160.391 151.553 166.869 170.448Z" fill="#EBEBEB"/>
<path d="M44.3125 479.804L109.742 479.504L175.172 479.396L306.032 479.189L436.891 479.394L502.321 479.503L567.751 479.804L502.321 480.106L436.891 480.215L306.032 480.42L175.172 480.214L109.742 480.105L44.3125 479.804Z" fill="#263238"/>
<path d="M308.501 577.058C451.681 577.058 567.752 563.528 567.752 546.837C567.752 530.147 451.681 516.617 308.501 516.617C165.321 516.617 49.25 530.147 49.25 546.837C49.25 563.528 165.321 577.058 308.501 577.058Z" fill="#EBEBEB"/>
<path d="M342.404 552.469C344.968 553.336 418.444 553.594 421.254 551.833C422.323 551.171 422.984 540.472 423.416 527.521C423.51 524.725 423.59 521.836 423.654 518.902L429.612 479.711L380.493 479.396L375.855 518.596L376.043 527.218C376.043 527.218 347.867 539.702 344.994 541.964C342.137 544.226 339.841 551.6 342.404 552.469Z" fill="#EB9481"/>
<path d="M342.404 552.469C344.968 553.337 418.444 553.595 421.254 551.834C422.552 551.02 423.259 535.397 423.654 518.903L375.856 518.597L376.044 527.219C376.044 527.219 347.868 539.703 344.995 541.965C342.137 544.226 339.841 551.6 342.404 552.469Z" fill="white"/>
<path d="M342.404 552.468C344.968 553.336 418.444 553.594 421.254 551.833C422.323 551.17 422.984 540.472 423.416 527.521L376.044 527.217C376.044 527.217 347.868 539.702 344.995 541.963C342.137 544.225 339.841 551.6 342.404 552.468Z" fill="#1D5532"/>
<path d="M343.469 549.533C355.787 549.274 405.495 549.391 417.691 550.071C417.791 550.076 417.789 550.144 417.691 550.149C405.488 550.672 355.782 550.152 343.468 549.735C343.208 549.725 343.209 549.538 343.469 549.533Z" fill="#263238"/>
<path d="M349.731 539.338C352.653 539.229 355.502 540.626 357.089 542.371C358.613 544.048 359.914 546.402 359.819 548.957C359.816 549.03 359.681 549.032 359.67 548.956C358.983 544.133 354.614 539.884 349.73 539.491C349.632 539.483 349.631 539.341 349.731 539.338Z" fill="#263238"/>
<path d="M371.262 528.425C376.192 528.375 381.902 530.134 384.951 534.177C385.07 534.334 384.845 534.499 384.699 534.424C380.251 532.111 376.021 530.384 371.176 529.033C370.834 528.937 370.909 528.429 371.262 528.425Z" fill="#263238"/>
<path d="M367.452 529.896C372.382 529.845 378.091 531.605 381.141 535.648C381.259 535.805 381.034 535.97 380.889 535.894C376.44 533.581 372.21 531.853 367.365 530.502C367.024 530.407 367.099 529.9 367.452 529.896Z" fill="#263238"/>
<path d="M363.642 531.366C368.571 531.315 374.281 533.075 377.33 537.118C377.449 537.274 377.224 537.44 377.079 537.365C372.63 535.052 368.4 533.324 363.555 531.973C363.213 531.878 363.287 531.37 363.642 531.366Z" fill="#263238"/>
<path d="M359.831 532.837C364.76 532.785 370.47 534.546 373.519 538.589C373.638 538.745 373.413 538.911 373.268 538.835C368.819 536.523 364.589 534.795 359.744 533.444C359.402 533.348 359.478 532.841 359.831 532.837Z" fill="#263238"/>
<path d="M414.594 538.36C420.125 538.396 420.079 546.992 414.538 546.957C409.007 546.921 409.053 538.325 414.594 538.36Z" fill="#263238"/>
<path d="M366.35 522.48C368.998 525.922 373.044 528.097 376.545 530.537C376.908 530.79 377.326 530.495 377.433 530.142C377.515 530.148 377.594 530.106 377.588 530.001C377.327 525.751 375.632 520.867 373.153 517.379C371.621 515.224 368.484 513.192 365.982 515.253C363.614 517.201 364.803 520.47 366.35 522.48ZM366.135 518.396C366.645 513.034 371.468 517.171 372.534 518.803C373.219 519.852 373.789 521.004 374.324 522.135C375.443 524.505 376.204 526.989 377.076 529.45C375.429 528.145 373.686 526.994 371.993 525.753C369.975 524.271 365.855 521.351 366.135 518.396Z" fill="#263238"/>
<path d="M395.104 526.919C394.729 523.699 391.059 522.99 388.463 523.481C384.257 524.275 379.65 526.62 376.515 529.503C376.437 529.573 376.467 529.659 376.529 529.711C376.361 530.039 376.457 530.542 376.895 530.611C381.111 531.28 385.533 532.517 389.829 531.873C392.336 531.496 395.46 529.964 395.104 526.919ZM383.494 530.317C381.412 530.038 379.357 529.659 377.267 529.458C379.6 528.29 381.872 527.027 384.322 526.096C385.49 525.65 386.699 525.217 387.921 524.934C389.82 524.496 396.165 524.86 392.815 529.077C390.968 531.402 385.974 530.649 383.494 530.317Z" fill="#263238"/>
<path d="M501.793 298.557C501.793 298.557 444.75 395.598 443.223 402.411C440.875 412.88 428.434 516.272 428.434 516.272L369.08 515.204C369.08 515.204 379.31 424.045 388.998 394.014C395.976 372.382 446.319 300.637 446.319 300.637L501.793 298.557Z" fill="#37474F"/>
<path d="M374.477 506.103C383.001 506.041 413.206 505.701 424.553 506.759C424.639 506.768 424.637 506.911 424.55 506.923C420.645 507.484 382.994 506.611 374.475 506.337C374.314 506.332 374.317 506.104 374.477 506.103Z" fill="#263238"/>
<path d="M492.057 307.461C488.319 313.324 484.375 319.064 480.553 324.876C476.729 330.691 472.92 336.514 469.16 342.368C461.645 354.07 454.326 365.895 447.143 377.793C443.774 383.373 440.564 389.005 438.25 395.091C435.958 401.12 434.398 407.393 433.244 413.717C432.08 420.087 431.314 426.518 430.591 432.948C429.821 439.794 429.062 446.64 428.297 453.488C426.733 467.497 425.17 481.505 423.605 495.515C423.413 497.234 423.225 498.952 423.054 500.672C423.029 500.924 423.479 500.974 423.512 500.721C425.258 486.801 426.709 472.839 428.294 458.9C429.084 451.961 429.874 445.021 430.664 438.082C431.398 431.63 432.096 425.17 433.098 418.752C434.082 412.447 435.359 406.167 437.279 400.065C439.284 393.689 442.124 387.703 445.485 381.904C452.364 370.042 459.642 358.382 466.924 346.751C474.268 335.021 481.674 323.324 489.354 311.8C490.303 310.377 491.259 308.961 492.243 307.562C492.317 307.452 492.128 307.349 492.057 307.461Z" fill="#263238"/>
<path d="M451.362 560.628C454.067 560.807 526.966 541.585 529.237 539.172C529.313 539.09 529.373 538.92 529.409 538.673C529.7 536.288 525.967 527.333 523.355 515.875C523.193 515.142 521.82 511.666 519.897 506.968C514.611 494.065 505.169 471.911 505.169 471.911L457.567 484.119L475.101 519.351L477.471 527.639C477.471 527.639 453.401 546.893 451.203 549.809C449.016 552.721 448.667 560.438 451.362 560.628Z" fill="#EB9481"/>
<path d="M451.36 560.628C454.065 560.807 526.964 541.585 529.235 539.172C529.311 539.09 529.371 538.92 529.407 538.673C529.698 536.288 525.965 527.333 523.353 515.875C523.191 515.142 521.818 511.666 519.895 506.968L475.099 519.351L477.469 527.639C477.469 527.639 453.399 546.893 451.201 549.809C449.014 552.721 448.665 560.438 451.36 560.628Z" fill="white"/>
<path d="M451.367 560.624C454.067 560.81 526.968 541.587 529.236 539.168C530.101 538.256 528.212 528.394 523.359 515.875L477.471 527.641C477.471 527.641 453.4 546.887 451.199 549.805C449.011 552.721 448.667 560.437 451.367 560.624Z" fill="#1D5532"/>
<path d="M451.648 557.514C463.494 554.128 511.594 541.588 523.562 539.141C523.659 539.121 523.676 539.187 523.581 539.215C511.913 542.828 463.713 554.978 451.698 557.709C451.445 557.767 451.397 557.586 451.648 557.514Z" fill="#263238"/>
<path d="M455.108 546.06C457.906 545.211 461.018 545.837 462.996 547.12C464.896 548.354 466.755 550.3 467.312 552.794C467.328 552.865 467.198 552.901 467.168 552.831C465.276 548.342 459.97 545.345 455.146 546.209C455.05 546.226 455.013 546.09 455.108 546.06Z" fill="#263238"/>
<path d="M473.154 530.028C477.908 528.724 483.878 528.973 487.856 532.105C488.01 532.226 487.835 532.444 487.674 532.407C482.783 531.303 478.253 530.711 473.224 530.636C472.869 530.632 472.813 530.121 473.154 530.028Z" fill="#263238"/>
<path d="M469.842 532.419C474.597 531.115 480.567 531.363 484.544 534.497C484.698 534.618 484.523 534.836 484.363 534.8C479.472 533.695 474.941 533.103 469.913 533.029C469.558 533.023 469.503 532.513 469.842 532.419Z" fill="#263238"/>
<path d="M466.53 534.812C471.285 533.508 477.255 533.756 481.232 536.89C481.386 537.011 481.211 537.228 481.051 537.193C476.16 536.088 471.629 535.495 466.601 535.422C466.246 535.416 466.19 534.905 466.53 534.812Z" fill="#263238"/>
<path d="M463.22 537.204C467.975 535.899 473.944 536.147 477.922 539.282C478.076 539.403 477.901 539.621 477.741 539.584C472.85 538.48 468.319 537.887 463.29 537.813C462.935 537.807 462.88 537.297 463.22 537.204Z" fill="#263238"/>
<path d="M517.587 528.604C522.945 527.23 525.089 535.555 519.722 536.931C514.364 538.306 512.22 529.981 517.587 528.604Z" fill="#263238"/>
<path d="M466.887 525.527C470.325 528.182 474.791 529.255 478.797 530.724C479.213 530.877 479.543 530.484 479.555 530.115C479.635 530.101 479.701 530.04 479.669 529.94C478.335 525.896 475.452 521.606 472.166 518.863C470.137 517.169 466.586 516.002 464.69 518.631C462.899 521.12 464.88 523.979 466.887 525.527ZM465.64 521.632C464.768 516.317 470.486 519.09 471.933 520.396C472.862 521.237 473.706 522.205 474.51 523.163C476.196 525.171 477.565 527.38 479.034 529.537C477.111 528.695 475.131 528.025 473.178 527.255C470.85 526.337 466.122 524.562 465.64 521.632Z" fill="#263238"/>
<path d="M495.826 522.5C494.644 519.482 490.914 519.73 488.528 520.867C484.663 522.705 480.805 526.146 478.507 529.73C478.45 529.818 478.5 529.895 478.574 529.928C478.495 530.288 478.717 530.75 479.157 530.705C483.404 530.28 487.997 530.35 491.986 528.635C494.315 527.631 496.944 525.356 495.826 522.5ZM485.463 528.742C483.379 529.002 481.296 529.159 479.223 529.496C481.182 527.772 483.057 525.973 485.189 524.448C486.206 523.72 487.265 522.992 488.374 522.409C490.099 521.502 496.328 520.239 494.162 525.17C492.967 527.889 487.946 528.432 485.463 528.742Z" fill="#263238"/>
<path d="M471.837 517.085L525.163 503.092C525.163 503.092 474.108 402.61 474.523 395.67C474.891 389.522 511.924 335.601 513.973 325.507C517.325 308.985 509.276 294.226 501.473 285.085L446.319 300.634C446.319 300.634 450.71 310.173 458.778 316.201C458.778 316.201 424.114 374.078 423.227 393.123C422.333 412.272 471.837 517.085 471.837 517.085Z" fill="#37474F"/>
<path d="M470.816 507.154C478.552 504.939 476.301 505.466 484.062 503.336C487.86 502.295 512.821 495.471 516.534 495.122C516.616 495.114 516.651 495.246 516.576 495.279C513.174 496.808 488.098 503.194 484.28 504.163C476.48 506.142 478.697 505.488 470.876 507.38C470.729 507.417 470.671 507.196 470.816 507.154Z" fill="#263238"/>
<path d="M450.31 313.979C455.61 315.847 460.71 318.456 465.582 321.182C465.773 321.289 465.64 321.576 465.433 321.485C460.284 319.241 455.032 317.087 450.019 314.571C449.624 314.374 449.903 313.836 450.31 313.979Z" fill="#263238"/>
<path d="M456.791 312.619C457.191 313.584 457.509 314.586 457.776 315.593C457.983 316.375 458.269 317.221 458.162 318.03C458.141 318.187 457.925 318.198 457.84 318.091C457.309 317.416 457.097 316.501 456.808 315.708C456.474 314.787 456.118 313.873 455.81 312.944C455.606 312.328 456.544 312.024 456.791 312.619Z" fill="#263238"/>
<path d="M456.785 307.62C456.567 306.774 456.347 305.93 456.11 305.088C455.866 304.218 455.562 303.351 455.386 302.466C455.358 302.326 455.134 302.389 455.171 302.531C455.387 303.378 455.486 304.265 455.636 305.126C455.787 305.991 455.954 306.854 456.123 307.715C456.438 309.319 456.87 310.927 457.342 312.498C456.488 312.377 455.612 312.227 454.884 311.741C454.094 311.212 453.695 310.25 453.384 309.385C453.039 308.426 452.732 307.451 452.371 306.497C451.973 305.442 451.517 304.391 451.308 303.276C451.282 303.136 451.062 303.2 451.093 303.342C451.598 305.652 452.091 307.957 453.056 310.149C453.435 311.01 453.719 311.891 454.567 312.318C455.476 312.776 456.526 312.842 457.527 312.899C457.644 312.949 457.813 312.891 457.79 312.736C457.529 311.028 457.216 309.292 456.785 307.62Z" fill="#263238"/>
<path d="M457.707 318.094C455.608 321.88 453.208 325.516 450.967 329.22C448.777 332.841 446.691 336.519 444.648 340.224C440.521 347.708 436.699 355.379 433.211 363.181C431.484 367.042 429.849 370.944 428.319 374.888C426.785 378.842 425.269 382.84 424.312 386.98C423.353 391.132 423.121 395.331 423.773 399.547C424.434 403.825 425.726 407.98 427.025 412.101C429.987 421.506 433.267 430.825 437.437 439.766C437.576 440.063 438.071 439.837 437.961 439.529C435.052 431.31 432.03 423.119 429.412 414.798C426.874 406.726 423.867 398.361 425.265 389.789C425.939 385.652 427.315 381.671 428.769 377.755C430.254 373.756 431.858 369.804 433.556 365.892C436.903 358.185 440.666 350.693 444.507 343.224C446.659 339.039 448.921 334.914 451.095 330.74C453.285 326.536 455.426 322.247 457.889 318.196C457.962 318.08 457.773 317.975 457.707 318.094Z" fill="#263238"/>
<path d="M497.873 309.997C496.875 309.828 495.415 310.177 491.091 309.88C489.897 309.797 488.709 309.567 487.542 309.301C486.376 309.036 485.189 308.735 484.245 307.963C482.653 306.663 481.447 304.575 480.485 302.787C479.427 300.821 478.354 298.58 477.853 296.396C477.822 296.261 477.627 296.325 477.65 296.457C477.877 297.722 478.003 298.985 478.338 300.236C478.651 301.412 479.105 302.556 479.6 303.666C480.523 305.741 481.603 307.966 483.461 309.366C485.412 310.836 488.132 311.11 490.496 311.275C491.864 311.37 497.225 311.227 497.945 310.461C498.073 310.324 498.063 310.029 497.873 309.997Z" fill="#263238"/>
<path d="M511.922 491.577C505.199 477.897 498.645 464.136 492.249 450.299C485.838 436.426 479.586 422.48 473.453 408.482C471.986 405.135 470.229 401.752 469.469 398.155C468.642 394.243 469.846 390.712 471.497 387.2C474.526 380.758 478.062 374.566 481.799 368.513C485.546 362.442 489.506 356.506 493.417 350.54C497.295 344.622 501.374 338.708 504.552 332.374C507.588 326.324 509.275 319.864 508.406 313.074C507.545 306.339 504.627 300.016 501.496 294.065C500.67 292.495 499.824 290.935 498.995 289.367C498.932 289.247 498.748 289.358 498.814 289.478C502.305 295.712 505.649 302.266 507.268 309.27C508.068 312.73 508.416 316.31 508.042 319.85C507.663 323.441 506.537 326.909 505.046 330.185C502.146 336.555 498.105 342.421 494.291 348.266C490.391 354.241 486.414 360.168 482.618 366.209C478.799 372.288 475.161 378.491 471.998 384.94C470.59 387.812 469.047 390.807 468.704 394.032C468.327 397.565 469.603 400.953 470.965 404.145C476.896 418.047 483.135 431.825 489.482 445.542C495.852 459.311 502.394 473.001 509.073 486.622C509.914 488.339 510.759 490.056 511.606 491.771C511.712 491.985 512.026 491.79 511.922 491.577Z" fill="#263238"/>
<path d="M445.184 182.141C446.369 176.503 452.683 163.734 465.062 166.235C482.729 169.801 485.291 203.849 494.083 214.458C510.016 233.682 510.537 252.713 497.479 255.756C482.845 259.166 468.602 243.464 469.138 209.484C469.472 188.235 463.479 178.818 459.241 179.452C455.004 180.086 452.691 185.443 452.691 185.443L445.184 182.141Z" fill="#263238"/>
<path d="M445.771 180.022C446.637 177.408 447.826 174.896 449.311 172.54C450.807 170.201 452.704 168.046 455.091 166.469C457.449 164.866 460.366 163.997 463.256 164.102C466.109 164.197 468.957 164.952 471.463 166.376C473.962 167.814 476.034 169.875 477.673 172.165C479.302 174.473 480.584 176.973 481.635 179.548C483.671 184.727 484.897 190.136 485.725 195.57C484.306 190.258 482.693 185.002 480.52 180.023C479.365 177.57 478.099 175.172 476.488 173.038C474.903 170.897 472.976 169.01 470.691 167.724C468.431 166.406 465.823 165.705 463.198 165.569C460.593 165.399 457.995 166.128 455.738 167.49C453.479 168.859 451.538 170.793 449.933 172.973C449.1 174.046 448.372 175.201 447.671 176.374C446.999 177.564 446.366 178.781 445.771 180.022Z" fill="#263238"/>
<path d="M469.031 197.774C469.214 201.146 469.022 204.523 468.956 207.89C468.841 211.255 468.744 214.616 468.743 217.97C468.76 221.323 468.841 224.672 469.18 227.989C469.504 231.303 470.028 234.601 470.984 237.758C471.91 240.916 473.278 243.956 475.284 246.517C477.304 249.038 479.891 251.242 482.686 252.928C485.505 254.608 488.695 255.687 491.999 255.912C493.646 256.034 495.318 255.955 496.956 255.645C497.775 255.494 498.584 255.284 499.375 255.014C500.164 254.743 500.957 254.442 501.647 253.956C500.323 255.018 498.678 255.605 497.044 256.048C495.396 256.48 493.683 256.682 491.967 256.673C490.249 256.649 488.534 256.389 486.866 255.944C485.203 255.485 483.602 254.806 482.086 253.983C480.569 253.16 479.143 252.175 477.816 251.077L476.838 250.235L475.899 249.352C475.275 248.758 474.672 248.112 474.129 247.432C471.934 244.706 470.484 241.486 469.492 238.204C467.575 231.579 467.319 224.697 467.531 217.952C467.638 214.569 467.901 211.203 468.197 207.845C468.521 204.486 468.864 201.141 469.031 197.774Z" fill="#263238"/>
<path d="M444.17 182.236C443.976 180.666 444.919 178.531 445.912 178.154C446.905 177.776 454.768 180.306 455.599 182.183C456.431 184.06 453.234 186.088 453.234 186.088L444.17 182.236Z" fill="#1D5532"/>
<path d="M453.601 237.817C448.745 244.738 413.67 273.374 394.552 274.435C385.931 274.914 352.125 271.235 344.601 268.136C335.358 264.329 353.624 241.448 359.426 242.418C366.664 243.627 392.308 246.353 397.411 246.488C405.6 246.705 430.702 232.914 447.653 229.329C456.378 227.485 457.34 232.488 453.601 237.817Z" fill="#EB9481"/>
<path d="M453.212 239.131C447.858 248.467 428.95 264.477 428.95 264.477L425.725 258.538L415.055 238.907C415.055 238.907 432.976 231.766 444.86 228.297C446.465 227.827 447.886 227.511 449.134 227.363C456.811 226.381 457.83 231.099 453.212 239.131Z" fill="#DBDBDB"/>
<path d="M453.212 239.125C447.862 248.46 428.949 264.483 428.949 264.483L425.72 258.539L423.519 254.486L415.049 238.911C415.049 238.911 432.975 231.764 444.864 228.292C446.471 227.833 447.889 227.508 449.132 227.36C449.294 227.347 449.443 227.32 449.591 227.32C456.858 226.575 457.737 231.263 453.212 239.125Z" fill="#DBDBDB"/>
<path d="M430.861 234.079C431.102 234.941 431.157 235.804 431.17 236.666C431.159 237.529 431.103 238.392 430.861 239.254C430.619 238.392 430.564 237.529 430.553 236.666C430.566 235.804 430.622 234.941 430.861 234.079Z" fill="white"/>
<path d="M428.386 244.552C427.523 244.792 426.66 244.848 425.798 244.86C424.935 244.849 424.073 244.794 423.209 244.552C424.072 244.31 424.934 244.254 425.798 244.243C426.659 244.256 427.523 244.311 428.386 244.552Z" fill="white"/>
<path d="M454.586 230.067C453.723 230.308 452.86 230.363 451.998 230.375C451.135 230.364 450.273 230.309 449.41 230.067C450.273 229.825 451.135 229.77 451.998 229.758C452.86 229.771 453.723 229.826 454.586 230.067Z" fill="white"/>
<path d="M440.299 240.588C441.079 241.029 441.728 241.599 442.347 242.201C442.949 242.819 443.521 243.468 443.959 244.249C443.178 243.81 442.529 243.24 441.91 242.637C441.309 242.018 440.739 241.368 440.299 240.588Z" fill="white"/>
<path d="M430.344 252.938C431.124 253.378 431.773 253.948 432.392 254.551C432.994 255.169 433.566 255.818 434.004 256.599C433.223 256.16 432.574 255.59 431.955 254.986C431.356 254.368 430.784 253.718 430.344 252.938Z" fill="white"/>
<path d="M432.247 260.107C430.451 256.487 422.558 241.928 420.642 238.893C420.508 238.682 420.344 238.711 420.454 238.948C425.58 249.92 430.159 256.705 432.103 260.17C432.152 260.256 432.293 260.199 432.247 260.107Z" fill="#263238"/>
<path d="M453.212 239.126C447.863 248.461 428.949 264.483 428.949 264.483L425.721 258.539L423.52 254.487C433.773 244.368 446.134 231.913 449.593 227.32C456.859 226.576 457.737 231.264 453.212 239.126Z" fill="#A6A6A6"/>
<path d="M435.733 282.148L438.532 312.985C438.532 312.985 442.342 312.921 449.798 311.861C456.569 310.884 466.341 309.097 479.01 305.779C488.544 303.27 499.729 299.899 512.505 295.36C512.505 295.36 483.598 243.21 463.646 228.818C463.19 228.485 462.739 228.177 462.288 227.897C462.199 227.824 462.113 227.78 462.025 227.721C452.952 221.981 444.814 226.466 440.201 232.885C439.061 234.482 427.955 259.734 428.506 268.192C429.012 275.651 435.733 282.148 435.733 282.148Z" fill="#DBDBDB"/>
<path d="M451.769 249.127C452.01 249.99 452.066 250.852 452.078 251.716C452.067 252.579 452.011 253.441 451.769 254.305C451.528 253.442 451.472 252.58 451.461 251.716C451.473 250.852 451.529 249.99 451.769 249.127Z" fill="white"/>
<path d="M458.807 278.849C459.047 279.712 459.103 280.574 459.115 281.438C459.104 282.3 459.048 283.163 458.807 284.027C458.565 283.164 458.509 282.302 458.498 281.438C458.51 280.574 458.567 279.712 458.807 278.849Z" fill="white"/>
<path d="M480.369 260.462C480.61 261.325 480.665 262.188 480.678 263.051C480.666 263.914 480.611 264.776 480.369 265.639C480.127 264.776 480.072 263.914 480.061 263.051C480.073 262.188 480.128 261.325 480.369 260.462Z" fill="white"/>
<path d="M440.855 274.914C441.096 275.776 441.152 276.639 441.164 277.503C441.153 278.365 441.097 279.228 440.855 280.09C440.614 279.228 440.558 278.365 440.547 277.503C440.56 276.64 440.616 275.776 440.855 274.914Z" fill="white"/>
<path d="M468.017 255.071C467.155 255.312 466.292 255.367 465.429 255.38C464.567 255.368 463.704 255.313 462.842 255.071C463.704 254.829 464.567 254.774 465.429 254.763C466.292 254.775 467.155 254.83 468.017 255.071Z" fill="white"/>
<path d="M486.379 278.077C485.516 278.317 484.653 278.373 483.791 278.385C482.928 278.374 482.066 278.318 481.203 278.077C482.066 277.835 482.928 277.779 483.791 277.768C484.653 277.78 485.516 277.836 486.379 278.077Z" fill="white"/>
<path d="M458.469 296.32C457.606 296.561 456.744 296.616 455.88 296.629C455.017 296.617 454.155 296.562 453.291 296.32C454.154 296.078 455.016 296.023 455.88 296.012C456.743 296.025 457.606 296.081 458.469 296.32Z" fill="white"/>
<path d="M490.974 292.807C490.111 293.047 489.248 293.103 488.386 293.115C487.523 293.104 486.661 293.049 485.797 292.807C486.659 292.565 487.522 292.509 488.386 292.498C489.248 292.511 490.111 292.566 490.974 292.807Z" fill="white"/>
<path d="M454.586 230.067C453.723 230.307 452.86 230.363 451.998 230.375C451.135 230.364 450.273 230.308 449.41 230.067C450.273 229.825 451.135 229.769 451.998 229.758C452.86 229.77 453.723 229.826 454.586 230.067Z" fill="white"/>
<path d="M463.598 233.424C464.378 233.865 465.027 234.435 465.646 235.037C466.248 235.655 466.82 236.304 467.258 237.085C466.477 236.646 465.827 236.076 465.209 235.473C464.61 234.853 464.038 234.204 463.598 233.424Z" fill="white"/>
<path d="M490.561 262.285C491.34 262.726 491.99 263.296 492.609 263.898C493.211 264.516 493.783 265.165 494.221 265.946C493.439 265.507 492.79 264.937 492.172 264.334C491.571 263.714 491.001 263.065 490.561 262.285Z" fill="white"/>
<path d="M447.441 265.372C448.221 265.813 448.87 266.383 449.49 266.985C450.092 267.603 450.663 268.253 451.101 269.034C450.32 268.594 449.671 268.024 449.053 267.422C448.452 266.801 447.882 266.152 447.441 265.372Z" fill="white"/>
<path d="M472.184 286.225C472.963 286.665 473.613 287.235 474.232 287.838C474.834 288.456 475.406 289.105 475.844 289.886C475.062 289.447 474.413 288.877 473.795 288.273C473.194 287.655 472.624 287.005 472.184 286.225Z" fill="white"/>
<path d="M440.301 240.588C441.081 241.028 441.73 241.598 442.349 242.201C442.951 242.819 443.523 243.468 443.961 244.249C443.18 243.81 442.531 243.24 441.912 242.636C441.311 242.018 440.741 241.368 440.301 240.588Z" fill="white"/>
<path d="M438.109 260.462C438.55 259.682 439.12 259.033 439.722 258.414C440.34 257.812 440.99 257.24 441.771 256.801C441.331 257.582 440.761 258.231 440.159 258.85C439.54 259.45 438.889 260.022 438.109 260.462Z" fill="white"/>
<path d="M496.658 282.509C497.099 281.729 497.669 281.08 498.27 280.461C498.888 279.858 499.537 279.287 500.318 278.849C499.879 279.63 499.309 280.279 498.707 280.898C498.088 281.498 497.438 282.07 496.658 282.509Z" fill="white"/>
<path d="M441.299 291.343C441.739 290.564 442.309 289.914 442.91 289.295C443.529 288.693 444.178 288.121 444.959 287.683C444.52 288.464 443.949 289.114 443.347 289.732C442.728 290.333 442.079 290.903 441.299 291.343Z" fill="white"/>
<path d="M474.348 248.809C474.788 248.029 475.358 247.38 475.959 246.76C476.577 246.158 477.227 245.587 478.008 245.147C477.568 245.928 476.998 246.577 476.396 247.196C475.777 247.798 475.128 248.368 474.348 248.809Z" fill="white"/>
<path d="M466.154 304.217C466.595 303.437 467.165 302.788 467.766 302.168C468.384 301.566 469.033 300.995 469.814 300.556C469.375 301.338 468.805 301.987 468.203 302.605C467.583 303.206 466.934 303.776 466.154 304.217Z" fill="white"/>
<path d="M466.188 270.863C466.628 270.083 467.198 269.434 467.799 268.814C468.417 268.212 469.066 267.641 469.848 267.202C469.408 267.984 468.837 268.633 468.236 269.251C467.616 269.852 466.967 270.423 466.188 270.863Z" fill="white"/>
<path d="M456.364 227.209C456.191 228.4 451.274 236.457 445.918 236.666C444.173 236.732 443.392 227.225 443.392 227.225L443.174 226.536L440.127 216.895L451.036 208.489L452.62 207.365C452.62 207.365 453.28 210.058 454.067 213.419C454.104 213.575 454.143 213.73 454.18 213.898C454.229 214.087 454.278 214.264 454.317 214.443C454.441 214.944 454.566 215.455 454.68 215.968C454.767 216.358 454.855 216.736 454.932 217.148C455.02 217.56 455.098 217.961 455.187 218.374C455.967 222.451 456.429 226.703 456.364 227.209Z" fill="#EB9481"/>
<path d="M454.065 213.419C451.925 221.486 445.949 225.215 443.172 226.537L440.125 216.895L451.034 208.489L452.618 207.365C452.618 207.365 453.278 210.058 454.065 213.419Z" fill="#263238"/>
<path d="M426.594 202.339C426.509 220.084 437.128 222.138 440.953 222.152C444.427 222.164 456.256 221.767 458.174 204.127C460.092 186.486 451.869 180.838 443.926 180.387C435.985 179.938 426.679 184.594 426.594 202.339Z" fill="#EB9481"/>
<path d="M457.211 205.367C454.306 205.664 453.487 199.58 453.487 199.58C453.487 199.58 447.573 199.744 445.411 191.288C445.411 191.288 445.637 195.243 448.202 198.255C448.202 198.255 437.748 197.408 433.142 188.791C433.142 188.791 435.002 193.192 436.684 194.732C436.684 194.732 432.28 193.621 430.06 190.122C430.06 190.122 428.36 195.204 426.989 196.629C426.989 196.629 424.964 187.685 428.676 183.035C436.498 173.235 449.348 181.753 449.348 181.753C449.348 181.753 456.532 182.838 459.094 188.217C463.051 196.523 457.211 205.367 457.211 205.367Z" fill="#263238"/>
<path d="M455.351 205.477C455.351 205.477 458.758 199.64 461.377 200.811C463.994 201.982 461.747 210.222 458.897 211.558C456.046 212.893 454.758 210.278 454.758 210.278L455.351 205.477Z" fill="#EB9481"/>
<path d="M460.674 203.157C460.721 203.148 460.735 203.215 460.696 203.235C458.702 204.239 457.774 206.24 457.175 208.284C457.727 207.471 458.527 206.985 459.609 207.63C459.666 207.664 459.621 207.752 459.562 207.745C458.702 207.633 458.106 207.83 457.59 208.553C457.225 209.065 456.999 209.694 456.755 210.27C456.673 210.462 456.332 210.391 456.386 210.172C456.389 210.156 456.394 210.139 456.398 210.123C456.131 207.5 457.874 203.653 460.674 203.157Z" fill="#263238"/>
<path d="M428.818 198.79C429.235 198.724 429.609 198.595 430.015 198.489C430.473 198.368 430.85 198.318 431.177 197.948C431.353 197.749 431.323 197.361 431.147 197.173C430.734 196.734 430.136 196.743 429.579 196.866C428.975 196.999 428.543 197.257 428.159 197.741C427.786 198.21 428.268 198.876 428.818 198.79Z" fill="#263238"/>
<path d="M440.389 200.172C439.968 200.14 439.585 200.04 439.172 199.965C438.705 199.879 438.325 199.86 437.971 199.517C437.781 199.333 437.78 198.943 437.942 198.742C438.318 198.271 438.915 198.233 439.48 198.312C440.094 198.399 440.544 198.622 440.965 199.074C441.373 199.513 440.944 200.215 440.389 200.172Z" fill="#263238"/>
<path d="M438.027 203.799C438.036 203.752 438.124 203.854 438.122 203.905C438.103 205.123 438.285 206.52 439.392 206.907C439.427 206.919 439.424 206.98 439.384 206.975C438.037 206.807 437.814 204.949 438.027 203.799Z" fill="#263238"/>
<path d="M439.092 202.512C441.047 202.333 441.262 206.256 439.45 206.421C437.67 206.584 437.455 202.661 439.092 202.512Z" fill="#263238"/>
<path d="M439.875 202.676C440.229 202.879 440.587 203.252 441.002 203.27C441.482 203.291 441.821 202.861 442.111 202.449C442.142 202.405 442.177 202.439 442.18 202.491C442.232 203.242 441.985 204.028 441.186 204.185C440.456 204.328 439.892 203.691 439.663 202.945C439.622 202.808 439.732 202.594 439.875 202.676Z" fill="#263238"/>
<path d="M431.27 203.858C431.258 203.812 431.179 203.921 431.183 203.971C431.298 205.183 431.225 206.591 430.152 207.064C430.119 207.079 430.126 207.139 430.167 207.13C431.494 206.858 431.572 204.988 431.27 203.858Z" fill="#263238"/>
<path d="M430.105 202.657C428.141 202.631 428.234 206.558 430.052 206.583C431.842 206.607 431.751 202.679 430.105 202.657Z" fill="#263238"/>
<path d="M429.292 202.935C428.987 203.151 428.688 203.536 428.318 203.569C427.89 203.607 427.562 203.19 427.278 202.789C427.248 202.747 427.219 202.782 427.219 202.834C427.215 203.585 427.482 204.361 428.207 204.489C428.867 204.605 429.336 203.949 429.498 203.198C429.525 203.057 429.414 202.849 429.292 202.935Z" fill="#263238"/>
<path d="M439.575 213.722C439.313 214.035 439.063 214.454 438.627 214.536C438.209 214.613 437.697 214.473 437.294 214.362C437.255 214.351 437.22 214.395 437.249 214.43C437.61 214.863 438.3 215.087 438.852 214.933C439.39 214.782 439.614 214.281 439.696 213.767C439.708 213.693 439.613 213.677 439.575 213.722Z" fill="#263238"/>
<path d="M433.309 209.236C433.309 209.236 433.136 211.062 433.172 211.918C433.175 211.999 435.604 211.688 438.151 212.427C438.533 212.538 438.516 212.221 438.082 211.985C437.214 211.514 436.104 211.051 433.876 211.142C433.806 210.908 434.195 208.335 434.059 208.33C433.589 208.31 432.681 208.668 432.133 208.854C432.382 205.039 433.242 201.295 433.435 197.492C433.44 197.356 433.243 197.324 433.209 197.446C432.03 201.307 431.647 205.692 431.286 209.624C431.237 210.115 432.972 209.396 433.309 209.236Z" fill="#263238"/>
<path d="M435.148 211.911C435.148 211.911 436.349 213.457 437.646 213.59C439.138 213.743 439.247 212.402 437.573 211.728C436.696 211.375 435.148 211.911 435.148 211.911Z" fill="#263238"/>
<path d="M437.642 213.587C437.087 213.536 436.552 213.224 436.117 212.873C436.397 212.396 437.081 211.854 438.712 212.629C438.976 213.192 438.584 213.687 437.642 213.587Z" fill="#FF99BA"/>
<path d="M453.757 225.08C455.924 225.063 459.58 225.624 464.51 229.379C464.51 229.379 454.224 237.65 444.648 237.66C441.227 237.663 440.201 232.885 440.201 232.885C440.201 232.885 444.805 225.153 453.757 225.08Z" fill="#EB9481"/>
<path d="M616.331 580.369H576.018C546.721 580.369 528.811 560.123 525.586 523.359C523.997 505.241 523.025 483.297 521.994 460.065C518.831 388.712 514.5 290.99 486.733 290.99H454.807V283.586H486.733C521.582 283.586 525.553 373.135 529.391 459.736C530.418 482.887 531.386 504.752 532.962 522.712C534.973 545.637 544.075 572.965 576.019 572.965H616.332V580.369H616.331Z" fill="#1D5532"/>
<path opacity="0.2" d="M478.251 283.585L476.671 290.989H454.805V283.585H478.251Z" fill="black"/>
<path d="M394.635 242.979H381.729V333.176H394.635V242.979Z" fill="#1D5532"/>
<path d="M381.731 249.642H332.658V325.585H381.731V249.642Z" fill="#1D5532"/>
<path opacity="0.2" d="M381.725 249.646V325.588H369.538L364.072 249.646H381.725Z" fill="#A4D65E"/>
<path d="M332.658 274.624H295.005C292.317 274.624 290.137 272.445 290.137 269.756V268.143C290.137 265.455 292.316 263.275 295.005 263.275H332.658V274.624Z" fill="#DBDBDB"/>
<path d="M332.65 263.279H319.43V274.619H332.65V263.279Z" fill="#A6A6A6"/>
<path d="M332.658 311.951H295.005C292.317 311.951 290.137 309.772 290.137 307.083V305.47C290.137 302.783 292.316 300.603 295.005 300.603H332.658V311.951Z" fill="#DBDBDB"/>
<path d="M332.65 300.606H319.43V311.946H332.65V300.606Z" fill="#A6A6A6"/>
<path d="M470.906 280.37H432.566V295.513H470.906V280.37Z" fill="#1D5532"/>
<path d="M470.912 280.375H432.566V295.512H470.912V280.375Z" fill="#1D5532"/>
<path opacity="0.2" d="M446.028 280.375L444.772 295.512H432.566V280.375H446.028Z" fill="black"/>
<path d="M424.976 322.726H394.637V252.502H424.976C429.168 252.502 432.566 255.901 432.566 260.093V315.135C432.566 319.327 429.168 322.726 424.976 322.726Z" fill="#1D5532"/>
<path opacity="0.2" d="M410.78 252.505L405.315 322.729H394.641V252.505H410.78Z" fill="#A4D65E"/>
<g opacity="0.2">
<path d="M407.951 266.698H405.531V308.531H407.951V266.698Z" fill="black"/>
<path d="M414.81 266.698H412.391V308.531H414.81V266.698Z" fill="black"/>
<path d="M421.67 266.698H419.25V308.531H421.67V266.698Z" fill="black"/>
</g>
<path d="M467.349 238.006C471.596 249.913 465.519 293.575 458.327 302.779C447.631 316.469 426.521 329.073 418.447 333.006C414.928 334.72 399.111 309.446 402.561 307.078C409.952 302.008 433.546 289.9 435.547 287.496C437.549 285.091 448.304 261.982 452.612 248.983C458.392 231.543 465.2 231.983 467.349 238.006Z" fill="#EB9481"/>
<path d="M418.43 333.084C407.23 339.472 384.958 338.533 381.92 337.606C379.328 336.825 378 336.397 378 336.397C373.325 335.085 372.064 332.496 372.064 332.496C372.064 332.496 366.212 332.57 365.579 329.041C364.858 325.085 373.217 325.755 378.04 323.312C389.089 317.714 403.229 306.667 406.255 304.736L418.43 333.084Z" fill="#EB9481"/>
<path d="M393.742 325.583C390.457 327.165 387.272 328.806 383.791 329.936C379.971 331.174 376.087 331.726 372.147 332.388C372.024 332.408 372.04 332.581 372.165 332.58C379.486 332.513 387.801 329.901 393.89 325.863C394.037 325.765 393.906 325.503 393.742 325.583Z" fill="#263238"/>
<path d="M398.091 331.761C394.809 333.123 389.027 335.481 377.991 336.278C377.955 336.281 377.948 336.342 377.987 336.345C385.221 336.781 391.833 335.397 398.216 332.095C398.415 331.993 398.309 331.671 398.091 331.761Z" fill="#263238"/>
<path d="M390.93 315.724C392.08 314.424 391.406 313.812 388.371 314.364C385.3 314.914 373.794 319.672 372.475 315.506C371.144 311.327 387.537 304.862 392.661 304.331C397.784 303.788 406.535 304.736 406.535 304.736C403.598 306.635 396.64 311.923 390.93 315.724Z" fill="#EB9481"/>
<path d="M455.444 241.001C462.911 225.293 469.721 229.454 470.373 244.986C470.981 259.513 468.939 277.297 468.939 277.297L441.875 269.535C441.875 269.535 450.666 251.055 455.444 241.001Z" fill="#DBDBDB"/>
<path d="M462.184 231.848C462.963 232.289 463.613 232.859 464.232 233.461C464.834 234.08 465.406 234.729 465.844 235.51C465.063 235.07 464.413 234.5 463.795 233.897C463.194 233.277 462.624 232.628 462.184 231.848Z" fill="white"/>
<path d="M451.769 249.127C452.01 249.989 452.066 250.852 452.078 251.716C452.067 252.578 452.011 253.441 451.769 254.305C451.528 253.442 451.472 252.579 451.461 251.716C451.473 250.852 451.529 249.989 451.769 249.127Z" fill="white"/>
<path d="M468.017 255.071C467.155 255.312 466.292 255.367 465.429 255.38C464.567 255.368 463.704 255.313 462.842 255.071C463.704 254.829 464.567 254.774 465.429 254.763C466.292 254.775 467.155 254.83 468.017 255.071Z" fill="white"/>
<path d="M447.441 265.372C448.221 265.813 448.87 266.383 449.49 266.985C450.092 267.603 450.663 268.253 451.101 269.034C450.32 268.594 449.671 268.024 449.053 267.422C448.452 266.801 447.882 266.152 447.441 265.372Z" fill="white"/>
<path d="M466.188 270.863C466.628 270.083 467.198 269.434 467.799 268.814C468.417 268.212 469.066 267.641 469.848 267.202C469.408 267.984 468.837 268.633 468.236 269.251C467.616 269.852 466.967 270.423 466.188 270.863Z" fill="white"/>
<path d="M452.858 245.788C451.846 247.846 450.781 249.878 449.721 251.911C449.911 250.942 450.054 249.974 450.16 248.989C450.165 248.945 450.1 248.936 450.091 248.979C449.938 249.747 449.753 250.507 449.614 251.277C449.546 251.646 449.475 252.016 449.403 252.384C449.387 252.463 449.37 252.542 449.354 252.622C448.53 254.208 447.711 255.796 446.932 257.405C446.002 259.324 445.121 261.265 444.232 263.203C443.314 265.206 442.514 267.508 441.52 269.472C441.433 269.642 443.917 270.178 444.156 270.261C444.399 270.346 444.512 270.104 444.264 270.073C444.035 270.045 442 269.234 441.973 269.216C442.857 267.262 443.958 265.409 444.905 263.485C445.847 261.57 446.795 259.659 447.696 257.725C449.526 253.795 451.133 249.764 452.94 245.823C452.961 245.771 452.882 245.739 452.858 245.788Z" fill="#263238"/>
<path d="M471.503 255.14C471.251 255.945 470.97 256.747 470.766 257.565C470.682 257.903 470.6 258.241 470.516 258.579C470.616 255.776 470.703 252.972 470.788 250.168C470.79 250.135 470.739 250.128 470.737 250.161C470.353 254.745 469.957 259.326 469.659 263.916C469.374 268.292 468.888 272.757 469.052 277.142C468.687 277.088 466.605 276.622 466.571 276.757C466.536 276.894 469.345 277.666 469.362 277.557C470.048 273.125 470.099 268.216 470.312 263.739C470.373 262.479 470.413 261.216 470.461 259.957C470.616 259.175 470.835 258.41 471.045 257.642C471.267 256.827 471.414 255.989 471.588 255.164C471.597 255.114 471.518 255.092 471.503 255.14Z" fill="#263238"/>
<path d="M467.819 273.19C464.011 271.835 448.22 266.849 444.731 265.997C444.489 265.938 444.392 266.074 444.635 266.168C455.943 270.496 463.953 272.194 467.758 273.336C467.854 273.364 467.917 273.225 467.819 273.19Z" fill="#263238"/>
<path d="M335.157 268.947C338.895 270.088 338.1 265.03 338.1 265.03C338.1 265.03 340.998 272.034 345.307 271.722C349.458 271.409 348.283 265.332 348.205 264.896C348.362 265.265 351.193 271.632 355.49 270.871C359.954 270.076 357.728 264.179 357.583 263.799C357.841 264.101 361.309 268.04 364.442 266.719C369.825 264.448 361.232 254.133 361.858 249.443L369.422 249.666C369.667 249.632 369.925 249.599 370.161 249.553L370.452 245.692C368.293 244.931 365.853 243.51 363.47 242.179C360.617 240.578 357.864 239.124 355.816 239.079C352.448 239.012 351.552 241.899 351.552 241.899C351.552 241.899 349.336 238.397 345.935 238.889C344.189 239.147 343.049 242.168 343.049 242.168C343.049 242.168 341.157 239.437 338.158 240.064C335.764 240.556 334.992 243.51 334.992 243.51C334.992 243.51 331.96 241.731 329.677 243.029C325.064 245.638 327.157 266.496 335.157 268.947Z" fill="#EB9481"/>
<path d="M362.828 249.062L369.419 249.667C369.664 249.633 369.922 249.6 370.158 249.554C378.483 248.044 383.664 238.521 377.632 237.839C373.044 237.313 368.087 243.389 363.466 242.169V242.18L362.828 249.062Z" fill="#EB9481"/>
<path d="M334.795 243.961C334.794 243.89 334.695 243.879 334.686 243.951C333.7 250.978 334.771 259.001 338.114 265.308C338.223 265.515 338.607 265.426 338.529 265.176C336.327 258.016 334.942 251.486 334.795 243.961Z" fill="#263238"/>
<path d="M342.994 242.069C342.993 241.988 342.857 241.989 342.846 242.075C341.87 249.321 343.324 258.326 348.034 265.141C348.196 265.374 348.575 265.422 348.409 265.14C345.62 260.37 343.092 248.845 342.994 242.069Z" fill="#263238"/>
<path d="M358.074 264.161C353.81 257.451 352.127 250.049 351.49 242.197C351.482 242.095 351.338 242.117 351.322 242.205C350.587 246.13 351.515 251.092 352.563 254.893C353.567 258.532 355.203 261.614 357.839 264.311C357.94 264.414 358.164 264.304 358.074 264.161Z" fill="#263238"/>
<path d="M253.84 545.48C251.278 546.33 178.141 546.118 175.355 544.349C174.303 543.689 173.71 533.025 173.363 520.134C173.284 517.348 173.229 514.484 173.184 511.552C173.129 508.094 173.083 504.592 173.061 501.19C172.972 485.916 173.184 472.466 173.184 472.466H220.797L220.775 501.19L220.764 511.552L220.518 520.134C220.518 520.134 248.482 532.746 251.324 535.017C254.153 537.278 256.392 544.641 253.84 545.48Z" fill="#AD6359"/>
<path d="M253.839 545.479C251.278 546.33 178.141 546.117 175.355 544.349C174.303 543.689 173.71 533.025 173.363 520.134C173.284 517.348 173.228 514.484 173.184 511.552C173.128 508.094 173.083 504.592 173.061 501.19H220.773L220.762 511.552L220.516 520.134C220.516 520.134 248.48 532.746 251.322 535.016C254.153 537.278 256.391 544.64 253.839 545.479Z" fill="white"/>
<path d="M254.06 545.591C252.393 546.139 221.24 546.251 198.558 545.781C193.31 545.669 188.51 545.524 184.639 545.355C179.302 545.11 175.721 544.818 175.138 544.449C173.851 543.621 173.235 527.978 172.945 511.473H220.792L220.546 520.1C220.546 520.1 248.666 532.778 251.53 535.061C254.373 537.343 256.623 544.728 254.06 545.591Z" fill="#1D5532"/>
<path d="M253.013 542.645C240.685 542.307 190.933 542.105 178.721 542.708C178.622 542.713 178.621 542.781 178.721 542.786C190.933 543.388 240.685 543.187 253.013 542.849C253.273 542.84 253.273 542.653 253.013 542.645Z" fill="#263238"/>
<path d="M222.297 517.368C217.449 516.449 211.513 517.175 207.795 520.622C207.651 520.755 207.843 520.958 208 520.91C212.79 519.415 217.264 518.46 222.275 517.981C222.629 517.947 222.644 517.433 222.297 517.368Z" fill="#263238"/>
<path d="M225.792 519.488C220.944 518.569 215.008 519.297 211.291 522.742C211.147 522.875 211.339 523.078 211.496 523.03C216.286 521.535 220.76 520.579 225.771 520.101C226.125 520.068 226.14 519.555 225.792 519.488Z" fill="#263238"/>
<path d="M229.288 521.609C224.44 520.69 218.504 521.418 214.787 524.863C214.643 524.997 214.835 525.2 214.992 525.151C219.783 523.656 224.255 522.7 229.267 522.223C229.62 522.188 229.636 521.675 229.288 521.609Z" fill="#263238"/>
<path d="M232.783 523.729C227.935 522.81 221.999 523.538 218.281 526.983C218.137 527.116 218.33 527.319 218.486 527.271C223.277 525.776 227.75 524.82 232.761 524.342C233.115 524.308 233.13 523.794 232.783 523.729Z" fill="#263238"/>
<path d="M231.289 506.174C229.39 503.543 225.838 504.715 223.808 506.41C220.52 509.157 217.638 513.452 216.304 517.501C216.27 517.601 216.337 517.662 216.417 517.676C216.431 518.045 216.76 518.437 217.176 518.285C221.187 516.813 225.656 515.737 229.094 513.077C231.103 511.526 233.085 508.663 231.289 506.174ZM222.799 514.81C220.845 515.581 218.864 516.252 216.938 517.096C218.408 514.937 219.776 512.726 221.463 510.715C222.268 509.757 223.113 508.787 224.042 507.945C225.488 506.636 231.212 503.858 230.34 509.178C229.862 512.111 225.129 513.889 222.799 514.81Z" fill="#263238"/>
<path d="M203.978 516.199C207.973 517.916 212.569 517.842 216.819 518.266C217.26 518.311 217.482 517.848 217.403 517.488C217.477 517.453 217.526 517.378 217.469 517.29C215.168 513.703 211.304 510.261 207.435 508.423C205.046 507.287 201.313 507.041 200.13 510.063C199.012 512.921 201.646 515.197 203.978 516.199ZM201.798 512.733C199.627 507.798 205.861 509.061 207.589 509.968C208.699 510.55 209.759 511.278 210.777 512.006C212.912 513.531 214.789 515.332 216.751 517.056C214.676 516.719 212.59 516.563 210.505 516.304C208.021 515.996 202.995 515.454 201.798 512.733Z" fill="#263238"/>
<path d="M227.566 508.112L168.553 509.172C168.553 509.172 160.521 456.961 155.232 424.464C153.238 412.26 151.655 402.842 151.018 399.999C149.49 393.225 119.582 285.692 119.582 285.692L162.487 285.635L177.137 285.622C177.137 285.622 176.204 303.596 176.756 305.49C184.407 331.51 200.047 377.668 204.925 393.747C212.421 418.498 227.566 508.112 227.566 508.112Z" fill="#A6A6A6"/>
<path d="M222.202 499.067C213.727 499.005 183.696 498.667 172.415 499.72C172.329 499.728 172.331 499.87 172.418 499.882C176.3 500.44 213.734 499.572 222.205 499.3C222.365 499.295 222.361 499.068 222.202 499.067Z" fill="#263238"/>
<path d="M169.518 454.566C167.478 441.063 165.216 427.591 162.696 414.169C161.456 407.561 160.109 400.97 158.385 394.469C156.641 387.891 154.462 381.441 152.244 375.009C147.838 362.221 143.598 349.383 139.656 336.444C135.717 323.517 132.003 310.512 128.568 297.441C128.132 295.782 127.692 294.129 127.218 292.482C127.178 292.343 126.978 292.409 127.007 292.546C128.349 299.134 130.084 305.661 131.76 312.172C133.437 318.689 135.214 325.178 137.079 331.643C140.825 344.632 144.88 357.534 149.273 370.32C151.463 376.692 153.73 383.042 155.668 389.499C157.602 395.944 159.118 402.496 160.462 409.087C163.188 422.455 165.501 435.918 167.658 449.388C169.826 462.93 171.639 476.512 173.445 490.104C173.674 491.827 173.899 493.549 174.12 495.273C174.182 495.76 174.946 495.753 174.893 495.255C173.436 481.654 171.561 468.092 169.518 454.566Z" fill="#263238"/>
<path d="M162.487 285.638L155.232 424.465C153.238 412.261 151.655 402.843 151.018 400C149.49 393.226 119.582 285.693 119.582 285.693L162.487 285.638Z" fill="#263238"/>
<path d="M180.647 557.125C178.084 557.975 104.948 557.763 102.162 555.995C101.111 555.335 100.517 544.67 100.17 531.78C100.091 528.994 100.036 526.13 99.9913 523.198C99.9357 519.74 99.8901 516.238 99.8679 512.836C99.7778 497.561 99.9913 484.112 99.9913 484.112H147.604L147.582 512.836L147.571 523.198L147.324 531.78C147.324 531.78 175.288 544.391 178.129 546.662C180.96 548.923 183.197 556.286 180.647 557.125Z" fill="#AD6359"/>
<path d="M180.646 557.125C178.083 557.975 104.948 557.763 102.161 555.995C101.11 555.334 100.516 544.67 100.17 531.78C100.091 528.993 100.035 526.129 99.9906 523.197C99.9351 519.74 99.8894 516.238 99.8672 512.835H147.58L147.569 523.197L147.322 531.78C147.322 531.78 175.286 544.391 178.127 546.662C180.96 548.923 183.197 556.286 180.646 557.125Z" fill="white"/>
<path d="M180.868 557.235C179.201 557.783 148.048 557.895 125.366 557.425C120.118 557.313 115.318 557.167 111.445 556.999C106.108 556.754 102.527 556.462 101.945 556.093C100.658 555.265 100.043 539.622 99.752 523.117H147.599L147.352 531.744C147.352 531.744 175.473 544.422 178.337 546.705C181.18 548.988 183.43 556.373 180.868 557.235Z" fill="#1D5532"/>
<path d="M179.821 554.291C167.494 553.953 117.741 553.75 105.53 554.352C105.431 554.357 105.43 554.425 105.53 554.43C117.741 555.032 167.494 554.831 179.821 554.493C180.08 554.486 180.082 554.298 179.821 554.291Z" fill="#263238"/>
<path d="M149.106 529.013C144.257 528.094 138.322 528.821 134.604 532.267C134.459 532.401 134.652 532.604 134.809 532.555C139.599 531.061 144.072 530.104 149.083 529.627C149.438 529.592 149.452 529.079 149.106 529.013Z" fill="#263238"/>
<path d="M152.601 531.133C147.752 530.214 141.817 530.942 138.1 534.387C137.955 534.521 138.148 534.723 138.305 534.675C143.095 533.181 147.567 532.224 152.58 531.747C152.932 531.712 152.947 531.199 152.601 531.133Z" fill="#263238"/>
<path d="M156.097 533.253C151.248 532.334 145.313 533.061 141.596 536.507C141.451 536.641 141.644 536.843 141.801 536.795C146.591 535.301 151.064 534.344 156.076 533.867C156.429 533.833 156.443 533.32 156.097 533.253Z" fill="#263238"/>
<path d="M159.592 535.374C154.744 534.455 148.808 535.183 145.09 538.629C144.946 538.762 145.138 538.964 145.295 538.916C150.085 537.422 154.558 536.465 159.57 535.988C159.924 535.953 159.94 535.44 159.592 535.374Z" fill="#263238"/>
<path d="M158.096 517.82C156.197 515.189 152.644 516.36 150.614 518.055C147.327 520.802 144.444 525.098 143.11 529.147C143.077 529.247 143.144 529.307 143.224 529.322C143.237 529.691 143.567 530.082 143.983 529.93C147.993 528.458 152.463 527.382 155.902 524.723C157.91 523.17 159.893 520.309 158.096 517.82ZM149.607 526.455C147.653 527.227 145.672 527.898 143.746 528.742C145.216 526.582 146.584 524.371 148.271 522.361C149.075 521.402 149.921 520.432 150.85 519.591C152.296 518.281 158.018 515.502 157.148 520.823C156.668 523.757 151.937 525.535 149.607 526.455Z" fill="#263238"/>
<path d="M130.785 527.843C134.779 529.56 139.376 529.486 143.626 529.91C144.066 529.955 144.288 529.492 144.209 529.132C144.283 529.097 144.333 529.022 144.276 528.934C141.975 525.347 138.111 521.905 134.241 520.067C131.852 518.931 128.118 518.685 126.937 521.707C125.819 524.566 128.454 526.843 130.785 527.843ZM128.604 524.378C126.434 519.444 132.668 520.706 134.395 521.613C135.505 522.195 136.566 522.923 137.584 523.652C139.719 525.177 141.596 526.977 143.558 528.701C141.482 528.364 139.397 528.209 137.311 527.95C134.827 527.64 129.801 527.099 128.604 524.378Z" fill="#263238"/>
<path d="M154.28 519.051H96.5156C96.5156 519.051 109.057 340.034 107.031 329.996C103.712 313.567 105.931 294.703 113.697 285.622H165.072C165.072 285.622 166.09 300.04 160.787 308.65C160.787 308.65 155.969 311.696 153.626 313.04L154.28 519.051Z" fill="#A6A6A6"/>
<path d="M148.873 509.722C140.876 509.514 143.173 509.461 135.173 509.341C131.258 509.282 105.533 508.921 101.871 509.508C101.791 509.521 101.79 509.657 101.87 509.67C105.525 510.296 131.253 510.208 135.168 510.191C143.17 510.157 140.872 510.08 148.872 509.956C149.022 509.953 149.024 509.726 148.873 509.722Z" fill="#263238"/>
<path d="M163.991 306.338C158.919 308.683 154.115 311.742 149.547 314.895C149.368 315.018 149.526 315.291 149.723 315.181C154.61 312.479 159.606 309.855 164.335 306.897C164.705 306.666 164.38 306.158 163.991 306.338Z" fill="#263238"/>
<path d="M157.449 305.599C157.143 306.591 156.922 307.614 156.752 308.635C156.62 309.428 156.415 310.292 156.598 311.083C156.634 311.236 156.848 311.227 156.922 311.113C157.385 310.394 157.508 309.47 157.721 308.657C157.966 307.714 158.233 306.776 158.45 305.829C158.594 305.199 157.638 304.987 157.449 305.599Z" fill="#263238"/>
<path d="M156.988 300.649C157.125 299.792 157.263 298.934 157.419 298.08C157.579 297.197 157.799 296.309 157.89 295.416C157.905 295.275 158.132 295.317 158.109 295.46C157.974 296.319 157.958 297.205 157.89 298.073C157.821 298.944 157.738 299.813 157.651 300.682C157.488 302.299 157.211 303.931 156.891 305.53C157.725 305.33 158.577 305.1 159.252 304.55C159.985 303.953 160.289 302.963 160.517 302.078C160.77 301.096 160.983 300.103 161.25 299.125C161.546 298.043 161.899 296.96 162.002 295.838C162.014 295.696 162.239 295.738 162.221 295.882C161.938 298.216 161.665 300.543 160.915 302.803C160.62 303.69 160.421 304.59 159.623 305.092C158.765 305.631 157.732 305.795 156.746 305.943C156.634 306.004 156.462 305.962 156.471 305.808C156.569 304.092 156.717 302.345 156.988 300.649Z" fill="#263238"/>
<path d="M115.37 329.339C115.003 325.562 114.388 321.815 113.976 318.044C113.148 310.46 113.718 302.878 115.343 295.433C115.374 295.294 115.156 295.241 115.129 295.38C113.875 301.951 112.78 308.514 113.11 315.23C113.435 321.885 114.615 328.453 114.723 335.127C114.831 341.887 114.299 348.642 113.866 355.382C113.431 362.163 112.994 368.945 112.558 375.727C110.805 402.985 109.188 430.251 107.528 457.514C107.066 465.124 106.635 472.736 106.194 480.347C105.746 488.091 105.206 495.841 104.918 503.593C104.894 504.263 105.891 504.214 105.945 503.568C107.104 489.893 107.775 476.16 108.648 462.462C109.511 448.903 110.305 435.338 111.133 421.776C111.961 408.216 112.774 394.654 113.58 381.091C113.982 374.312 114.366 367.531 114.756 360.75C115.145 353.996 115.644 347.238 115.744 340.472C115.804 336.757 115.731 333.036 115.37 329.339Z" fill="#263238"/>
<path d="M133.561 294.963C133.524 294.879 133.41 294.852 133.358 294.942C132.935 295.673 133.01 296.878 132.872 297.711C132.705 298.724 132.493 299.722 132.17 300.695C131.513 302.674 130.63 304.437 129.086 305.88C125.852 308.907 121.523 310.025 117.347 311.048C117.192 311.087 117.248 311.298 117.389 311.308C119.845 311.483 122.342 310.957 124.665 310.169C126.716 309.473 128.692 308.514 130.285 307.023C131.869 305.541 132.853 303.636 133.32 301.528C133.558 300.45 133.626 299.304 133.667 298.202C133.686 297.667 133.691 297.13 133.69 296.593C133.69 296.069 133.778 295.446 133.561 294.963Z" fill="#263238"/>
<path d="M157.755 225.678C158.819 234.064 175.257 265.257 192.751 279.08C199.168 284.151 233.188 287.153 241.697 286.5C251.664 285.736 253.157 262.024 247.574 260.173C240.608 257.864 208.351 255.02 202.015 252.724C194.312 249.934 180.296 232.029 166.977 220.948C160.122 215.244 156.936 219.218 157.755 225.678Z" fill="#AD6359"/>
<path d="M241.697 286.5C244.848 286.416 259.254 284.761 263.159 283.404C267.065 282.047 278.021 277.325 277.285 274.229C276.549 271.132 273.231 272.259 273.231 272.259C273.231 272.259 277.541 269.533 276.517 266.483C275.493 263.434 270.388 265.354 270.388 265.354C270.388 265.354 274.611 262.232 273.372 259.263C272.132 256.294 267.323 259.086 267.323 259.086C267.323 259.086 271.317 256.412 269.266 254.395C266.799 251.97 259.993 257.733 255.569 258.908C254.564 259.174 234.82 262.867 234.82 262.867L241.697 286.5Z" fill="#AD6359"/>
<path d="M267.739 258.855C262.724 263.081 259.798 264.062 253.402 264.945C253.278 264.962 253.275 265.152 253.407 265.146C259.749 264.852 263.596 264.15 267.956 259.087C268.17 258.839 267.978 258.654 267.739 258.855Z" fill="#263238"/>
<path d="M270.778 265.011C265.186 268.945 262.022 270.039 255.391 271.455C255.298 271.475 255.321 271.637 255.419 271.624C262.039 270.778 265.862 269.991 270.934 265.325C271.162 265.114 271.035 264.831 270.778 265.011Z" fill="#263238"/>
<path d="M272.891 272.32C267.201 275.739 263.784 277.086 257.171 277.635C257.016 277.648 257.019 277.877 257.177 277.88C263.975 277.975 268.252 276.326 272.977 272.504C273.3 272.244 273.249 272.106 272.891 272.32Z" fill="#263238"/>
<path d="M230.205 260.276C230.205 260.276 237.136 255.861 240.609 254.592C244.081 253.325 258.764 253.362 258.935 256.532C259.157 260.627 250.678 262.275 246.419 262.539C246.419 262.539 246.942 272.01 241.111 274.51C235.281 277.011 230.205 260.276 230.205 260.276Z" fill="#AD6359"/>
<path d="M258.626 257.677C256.135 261.557 250.523 261.544 246.411 262.11C246.099 262.153 246.023 262.42 246.102 262.652C246.057 266.636 244.831 272.244 241.353 274.607C241.25 274.676 241.335 274.83 241.446 274.775C245.522 272.747 247.175 267.336 246.946 262.969C251.173 262.455 256.802 262.221 258.664 257.7C258.676 257.674 258.642 257.653 258.626 257.677Z" fill="#263238"/>
<path d="M212.305 286.039C212.305 286.039 194.88 281.278 192.76 279.612C190.447 277.797 188.242 275.832 186.144 273.76C170.297 258.172 160.715 236.95 158.119 229.482C155.39 221.599 157.908 214.051 165.25 219.135C165.792 219.516 166.354 219.962 166.952 220.475C175.597 228.005 198.684 250.893 201.48 252.073C204.268 253.235 217.863 255.016 217.863 255.016L212.305 286.039Z" fill="#455A64"/>
<path d="M186.144 273.761C170.297 258.173 160.715 236.951 158.119 229.483C155.39 221.6 157.908 214.052 165.25 219.136L186.144 273.761Z" fill="#263238"/>
<path d="M212.238 254.517C211.356 256.852 210.816 259.358 210.222 261.779C209.623 264.222 209.015 266.664 208.483 269.122C207.436 273.96 206.458 278.872 205.963 283.8C205.951 283.927 206.151 283.964 206.186 283.84C207.518 279.004 208.505 274.053 209.524 269.143C210.026 266.722 210.487 264.291 210.99 261.868C211.491 259.451 212.103 256.996 212.369 254.541C212.377 254.462 212.264 254.449 212.238 254.517Z" fill="#263238"/>
<path d="M174.658 242.765C175.075 244.598 175.395 246.493 175.634 248.392C175.641 248.319 175.651 248.248 175.659 248.175C175.755 247.124 175.834 246.051 176.013 245.011C176.023 244.957 176.111 244.946 176.116 245.008C176.2 246.061 176.12 247.163 175.994 248.211C175.934 248.712 175.87 249.213 175.794 249.712C175.883 250.564 175.956 251.413 176.007 252.254C176.103 253.857 176.413 260.702 176.382 261.882C176.376 262.13 176.088 262.151 176.035 261.891C175.792 260.68 175.179 253.629 175.011 252.041C174.687 248.991 174.525 245.834 174.536 242.766C174.537 242.695 174.643 242.701 174.658 242.765Z" fill="#263238"/>
<path d="M176.623 294.019C174.186 296.244 171.144 299.492 153.813 300.696C152.729 300.765 151.626 300.791 150.506 300.764C133.823 300.296 110.414 287.148 109.025 286.151C109.025 286.151 127.004 237.512 150.78 218.833C154.177 216.164 161.459 217.486 166.012 220.233C167.638 221.214 173.023 230.221 174.1 238.409C175.165 246.587 179.085 291.803 176.623 294.019Z" fill="#455A64"/>
<path d="M163.104 232.367C158.908 232.703 152.909 225.451 150.933 220.015C150.8 219.642 151.883 216.099 152.995 211.732C153.659 209.079 154.336 206.11 154.76 203.357C154.844 202.791 156.609 204.125 156.609 204.125L160.041 205.533L171.389 210.203C171.389 210.203 168.805 215.715 168.098 220.522C168.044 220.924 168.025 221.303 168.044 221.671C168.041 221.724 168.047 221.789 168.04 221.862C168.06 224.062 167.159 232.039 163.104 232.367Z" fill="#AD6359"/>
<path d="M168.042 221.671C168.039 221.724 168.045 221.789 168.038 221.862C167.485 221.856 166.892 221.797 166.249 221.683C154.658 219.64 155.473 204.628 155.473 204.628L160.039 205.532L171.387 210.203C171.387 210.203 168.803 215.715 168.096 220.522C168.042 220.924 168.024 221.303 168.042 221.671Z" fill="#263238"/>
<path d="M153.58 185.297C151.377 191.39 153.732 209.433 157.93 213.644C164.016 219.748 174.435 220.833 179.735 213.414C184.873 206.222 181.387 182.761 176.656 178.889C169.687 173.183 156.837 176.299 153.58 185.297Z" fill="#AD6359"/>
<path d="M170.025 197.785C170.01 197.74 169.937 197.854 169.945 197.904C170.136 199.115 170.151 200.535 169.101 201.077C169.069 201.094 169.08 201.155 169.119 201.143C170.44 200.786 170.4 198.901 170.025 197.785Z" fill="#263238"/>
<path d="M168.778 196.652C166.803 196.749 167.143 200.691 168.973 200.6C170.773 200.512 170.434 196.57 168.778 196.652Z" fill="#263238"/>
<path d="M177.503 196.976C177.508 196.929 177.603 197.026 177.606 197.076C177.673 198.3 177.955 199.691 179.094 200.002C179.13 200.012 179.131 200.073 179.091 200.071C177.726 199.997 177.369 198.146 177.503 196.976Z" fill="#263238"/>
<path d="M178.482 195.606C180.432 195.288 180.925 199.215 179.118 199.508C177.339 199.8 176.845 195.873 178.482 195.606Z" fill="#263238"/>
<path d="M167.24 193.781C167.766 193.6 168.22 193.344 168.721 193.112C169.286 192.85 169.764 192.698 170.101 192.143C170.281 191.844 170.152 191.348 169.88 191.145C169.243 190.673 168.47 190.823 167.778 191.112C167.025 191.426 166.526 191.86 166.142 192.577C165.768 193.269 166.548 194.021 167.24 193.781Z" fill="#263238"/>
<path d="M179.724 194.269C179.17 194.227 178.666 194.096 178.122 193.997C177.509 193.886 177.009 193.861 176.541 193.409C176.291 193.165 176.29 192.653 176.502 192.388C176.997 191.77 177.783 191.719 178.527 191.822C179.334 191.934 179.927 192.226 180.481 192.822C181.018 193.401 180.454 194.324 179.724 194.269Z" fill="#263238"/>
<path d="M169.93 208.808C170.247 209.068 170.573 209.437 171.019 209.436C171.448 209.434 171.929 209.2 172.305 209.015C172.342 208.996 172.386 209.035 172.363 209.073C172.087 209.569 171.445 209.919 170.87 209.869C170.309 209.819 169.995 209.365 169.816 208.872C169.793 208.804 169.883 208.771 169.93 208.808Z" fill="#263238"/>
<path d="M175.786 203.601C175.786 203.601 176.024 205.42 176.018 206.278C176.017 206.358 173.578 206.135 171.06 206.964C170.682 207.089 170.688 206.772 171.113 206.52C171.963 206.018 173.056 205.515 175.286 205.526C175.348 205.289 174.868 202.733 175.004 202.723C175.473 202.686 176.393 203.012 176.947 203.178C176.561 199.374 175.568 195.663 175.241 191.869C175.232 191.733 175.426 191.693 175.465 191.814C176.781 195.63 177.321 199.998 177.821 203.916C177.889 204.406 176.128 203.749 175.786 203.601Z" fill="#263238"/>
<path d="M154.896 200.337C158.003 200.114 157.611 192.519 157.611 192.519C157.611 192.519 162.344 191.609 164.585 185.073C164.585 185.073 170.734 188.83 175.842 187.837C183.847 186.281 183.502 175.861 180.475 173.774C176.185 170.816 168.657 175.292 168.657 175.292C168.657 175.292 157.148 172.237 153.827 180.037C153.827 180.037 148.715 180.323 148.431 185.977C148.147 191.631 152.58 200.504 154.896 200.337Z" fill="#263238"/>
<path d="M156.507 193.427C158.78 192.949 160.937 191.87 162.461 190.079C164.033 188.231 164.92 185.411 164.202 183.037C164.163 182.907 164.377 182.855 164.408 182.99C165.011 185.633 164.887 188.359 163.227 190.616C161.707 192.684 159.117 193.987 156.53 193.657C156.406 193.641 156.371 193.455 156.507 193.427Z" fill="#263238"/>
<path d="M147.981 182.673C149.535 180.651 151.945 180.308 154.329 180.362C154.466 180.365 154.455 180.587 154.32 180.573C151.971 180.334 149.627 181.928 148.428 183.865C147.252 185.762 147.553 188.129 148.062 190.202C149.041 194.181 151.431 197.751 154.836 200.047C154.893 200.085 154.837 200.172 154.779 200.136C150.918 197.747 148.074 193.832 147.18 189.36C146.746 187.177 146.548 184.537 147.981 182.673Z" fill="#263238"/>
<path d="M168.345 175.673C169.409 174.016 170.839 172.811 172.71 172.243C174.863 171.59 177.355 171.852 179.375 172.839C181.088 173.676 182.059 175.408 182.207 177.312C182.376 179.484 181.385 181.54 180.18 183.258C180.145 183.307 180.07 183.259 180.102 183.206C181.073 181.583 181.817 179.749 181.675 177.808C181.536 175.885 180.498 174.283 178.755 173.534C175.448 172.111 170.635 172.411 168.521 175.786C168.448 175.902 168.273 175.788 168.345 175.673Z" fill="#263238"/>
<path d="M156.658 200.061C156.658 200.061 152.792 194.15 150.121 195.511C147.451 196.872 150.234 205.354 153.28 206.596C156.327 207.839 157.533 205.041 157.533 205.041L156.658 200.061Z" fill="#AD6359"/>
<path d="M150.979 197.924C150.929 197.918 150.917 197.987 150.96 198.005C153.094 198.948 154.17 200.987 154.903 203.089C154.284 202.27 153.423 201.805 152.329 202.536C152.271 202.575 152.322 202.665 152.384 202.654C153.275 202.491 153.909 202.665 154.486 203.392C154.893 203.906 155.163 204.55 155.448 205.139C155.543 205.335 155.895 205.243 155.828 205.018C155.823 205.002 155.817 204.985 155.812 204.967C155.952 202.214 153.929 198.293 150.979 197.924Z" fill="#263238"/>
<path d="M40.3135 580.37H0V572.966H40.3135C72.2556 572.966 81.3576 545.637 83.369 522.712C84.9448 504.753 85.9148 482.885 86.9402 459.734C90.7792 373.134 94.7502 283.586 129.598 283.586H161.524V290.99H129.598C101.832 290.99 97.4995 388.711 94.3368 460.062C93.3077 483.296 92.334 505.24 90.7446 523.359C87.5202 560.123 69.6099 580.37 40.3135 580.37Z" fill="#1D5532"/>
<path opacity="0.2" d="M161.53 283.586V290.99H136.06L134.48 283.586H161.53Z" fill="black"/>
<path d="M272.324 335.113H285.918V240.114H272.324V335.113Z" fill="#1D5532"/>
<path d="M272.324 244.629H220.639V329.628H272.324V244.629Z" fill="#1D5532"/>
<path opacity="0.2" d="M272.318 244.631V329.631H259.483L253.727 244.631H272.318Z" fill="#A4D65E"/>
<path d="M142.354 294.861H180.693V279.718H142.354V294.861Z" fill="#1D5532"/>
<path d="M180.693 279.717H142.348V294.854H180.693V279.717Z" fill="#1D5532"/>
<path opacity="0.2" d="M167.23 294.854L168.488 279.717H180.692V294.854H167.23Z" fill="black"/>
<path d="M188.284 250.636H220.643V324.598H188.284C184.092 324.598 180.693 321.2 180.693 317.008V258.226C180.695 254.034 184.092 250.636 188.284 250.636Z" fill="#1D5532"/>
<path opacity="0.2" d="M203.639 324.595L209.395 250.633H220.638V324.595H203.639Z" fill="#A4D65E"/>
<g opacity="0.2">
<path d="M206.618 309.647H209.166V265.588H206.618V309.647Z" fill="black"/>
<path d="M199.393 309.647H201.941V265.588H199.393V309.647Z" fill="black"/>
<path d="M192.169 309.647H194.717V265.588H192.169V309.647Z" fill="black"/>
</g>
<path d="M139.992 235.877C138.696 253.694 137.357 289.995 145.228 300.642C155.555 314.613 184.688 323.088 193.303 325.625C197.057 326.731 205.883 302.21 203.682 298.651C201.482 295.093 171.387 287.508 169.014 285.469C166.641 283.43 159.193 254.469 155.579 239.74C151.019 221.161 140.504 228.845 139.992 235.877Z" fill="#AD6359"/>
<path d="M225.965 308.076C230.725 309.213 237.931 306.775 238.163 310.407C238.371 313.642 233.214 314.848 233.214 314.848C233.214 314.848 239.462 315.367 238.694 318.914C237.926 322.46 232.006 322.623 232.006 322.623C232.006 322.623 237.727 323.405 236.707 326.888C235.688 330.369 230.183 330.844 230.183 330.844C230.183 330.844 231.637 331.926 229.812 334.062C227.199 337.118 218.519 336.759 214.031 335.495C209.543 334.231 194.044 326.289 191.693 325.028L199.554 296.153C199.554 296.153 208.572 294.716 213.233 294.546C217.895 294.376 233.408 298.079 232.749 301.991C232.09 305.902 221.179 303.1 218.358 302.999C215.537 302.898 215.032 303.533 216.268 304.567C217.082 305.245 223.859 307.572 225.965 308.076Z" fill="#AD6359"/>
<path d="M232.947 314.782C225.644 315.951 222.247 315.199 215.553 312.335C215.423 312.28 215.31 312.461 215.441 312.533C221.741 315.935 225.866 317.492 233.022 315.134C233.371 315.018 233.293 314.727 232.947 314.782Z" fill="#263238"/>
<path d="M232.307 322.5C224.615 323.051 220.924 322.268 213.693 319.784C213.591 319.748 213.52 319.918 213.621 319.963C220.511 322.993 224.662 324.453 232.275 322.893C232.618 322.821 232.658 322.474 232.307 322.5Z" fill="#263238"/>
<path d="M230.097 330.789C222.613 330.785 218.527 330.101 211.817 326.788C211.659 326.71 211.529 326.933 211.681 327.027C218.195 331.071 223.285 331.963 230.072 331.017C230.536 330.951 230.568 330.789 230.097 330.789Z" fill="#263238"/>
<path d="M170.584 319.839C170.584 319.839 147.051 308.024 143.489 298.962C139.044 287.656 137.229 254.696 138.956 237.787C140.684 220.877 152.456 222.925 156.296 237.931C160.028 252.51 168.358 281.652 169.211 283.014C170.318 284.783 183.737 288.097 183.737 288.097" fill="#455A64"/>
<path d="M168.23 279.246C167.823 277.845 167.113 274.702 166.701 273.35C165.873 270.627 165.052 267.904 164.201 265.188C163.348 262.469 162.509 259.746 161.599 257.046C161.446 256.591 161.301 256.122 161.15 255.661C161.224 255.37 160.884 251.788 160.911 250.909C160.915 250.77 160.69 250.766 160.7 250.897C160.768 251.773 160.675 252.653 160.618 253.528C160.607 253.691 160.618 253.855 160.617 254.018C160.051 252.244 159.487 250.47 158.895 248.752C158.849 248.621 158.65 248.67 158.688 248.797C159.802 252.495 160.342 254.832 161.139 257.827C161.914 260.736 162.79 263.616 163.645 266.501C164.502 269.39 165.416 272.261 166.317 275.136C166.695 276.34 167.562 279.099 168.099 280.174C168.626 281.229 168.654 280.704 168.23 279.246Z" fill="#263238"/>
<path d="M141.689 289.199C141.202 286.147 140.728 283.094 140.353 280.025C139.604 273.895 139.15 267.773 138.855 261.604C138.687 258.084 138.427 254.568 138.23 251.051C138.22 250.877 137.961 250.883 137.959 251.057C137.946 254.188 137.854 257.319 137.938 260.45C137.951 260.905 137.972 261.357 137.985 261.812C137.932 261.601 137.887 261.388 137.832 261.177C137.379 259.383 136.736 257.631 136.337 255.824C136.311 255.703 136.122 255.759 136.152 255.88C136.606 257.683 136.83 259.539 137.261 261.349C137.476 262.252 137.697 263.15 137.948 264.044C137.985 264.176 138.033 264.303 138.074 264.434C138.147 266.235 138.233 268.037 138.348 269.839C138.739 276.028 139.35 282.171 140.484 288.277C141.633 294.458 142.663 296.639 143.705 299.987C143.742 300.105 143.922 300.051 143.89 299.931C143.094 296.944 142.175 292.251 141.689 289.199Z" fill="#263238"/>
<path d="M179.266 288.087C177.92 290.245 176.879 292.642 175.803 294.945C174.719 297.266 173.624 299.587 172.602 301.936C170.591 306.564 168.636 311.279 167.159 316.106C167.121 316.231 167.315 316.308 167.373 316.19C169.668 311.621 171.64 306.87 173.638 302.165C174.622 299.844 175.568 297.506 176.551 295.185C177.533 292.868 178.634 290.537 179.389 288.135C179.414 288.06 179.304 288.026 179.266 288.087Z" fill="#263238"/>
<path d="M262.531 136.7C262.531 140.814 259.214 143.998 255.1 143.998H253.774V154.084C253.774 158.198 250.589 161.382 246.476 161.382C242.362 161.382 239.176 158.198 239.176 154.084V143.998H197.641H197.508H197.374C195.782 143.998 194.19 143.6 192.863 142.406C189.545 139.884 189.147 135.374 191.668 132.188L240.768 71.1451C240.901 71.1451 240.901 71.012 241.035 70.8802C241.168 70.7471 241.3 70.6139 241.433 70.349C241.829 70.2158 241.962 70.0841 242.096 69.9509C242.229 69.8178 242.494 69.6846 242.627 69.5529C242.893 69.4197 243.025 69.2866 243.422 69.2866C243.555 69.0217 243.688 68.8885 243.953 68.8885C244.086 68.7553 244.351 68.7553 244.75 68.6222C244.883 68.6222 245.147 68.6222 245.28 68.489C245.546 68.489 245.944 68.489 246.209 68.489C246.209 68.489 246.343 68.489 246.476 68.489C246.609 68.489 246.609 68.489 246.739 68.489C247.004 68.489 247.404 68.489 247.537 68.489C247.803 68.6222 247.935 68.6222 248.201 68.6222C248.333 68.7553 248.731 68.7553 248.996 68.8885C249.129 68.8885 249.394 69.0217 249.527 69.0217C249.793 69.2866 250.057 69.4197 250.19 69.5515C250.456 69.6846 250.588 69.8178 250.854 69.9495C250.854 69.9495 250.987 69.9495 250.987 70.0827C251.121 70.0827 251.386 70.2144 251.386 70.3476C251.652 70.6139 251.782 70.7456 251.915 70.8788C252.048 71.0105 252.182 71.2768 252.313 71.4086C252.447 71.5417 252.58 71.6749 252.845 72.0715C252.845 72.2047 252.978 72.4696 253.111 72.6027C253.244 72.8676 253.244 73.0008 253.377 73.3989C253.377 73.5306 253.509 73.7969 253.509 73.9286C253.642 74.195 253.642 74.3267 253.642 74.7248C253.642 74.9911 253.775 75.1228 253.775 75.3877C253.775 75.5209 253.775 75.6526 253.775 75.7858V129.397H255.101C259.214 129.402 262.531 132.719 262.531 136.7ZM239.176 96.6236L212.768 129.402H239.176V96.6236Z" fill="#1D5532"/>
<path d="M280.031 114.937C280.164 102.729 283.216 91.7138 289.055 83.2214C294.628 74.7291 303.253 68.4919 313.736 68.4919C323.955 68.4919 332.712 74.7291 338.286 83.2214C343.991 91.7138 347.175 102.729 347.175 114.937C347.175 127.012 343.991 138.159 338.286 146.651C332.711 155.012 323.954 161.381 313.736 161.381C303.252 161.381 294.626 155.012 289.055 146.651C283.216 138.159 280.164 127.012 280.031 114.937ZM332.447 114.937C332.447 105.382 329.794 97.0231 326.078 91.3157C322.23 85.7429 317.852 83.0882 313.737 83.2214C309.623 83.0882 305.112 85.7429 301.131 91.3157C297.415 97.0231 294.761 105.382 294.761 114.937C294.761 124.359 297.415 132.851 301.131 138.425C305.11 144.131 309.622 146.653 313.737 146.653C317.852 146.653 322.23 144.131 326.078 138.425C329.793 132.852 332.447 124.359 332.447 114.937Z" fill="#1D5532"/>
<path d="M428.196 136.7C428.196 140.814 424.879 143.998 420.765 143.998H419.436V154.084C419.436 158.198 416.252 161.382 412.141 161.382C408.026 161.382 404.841 158.198 404.841 154.084V143.998H363.306H363.173H363.04C361.446 143.998 359.855 143.6 358.526 142.406C355.209 139.884 354.811 135.374 357.334 132.188L406.431 71.1451C406.564 71.1451 406.564 71.0119 406.696 70.8802C406.829 70.747 406.962 70.6138 407.094 70.3489C407.492 70.2158 407.625 70.084 407.758 69.9509C407.891 69.8177 408.156 69.6846 408.289 69.5528C408.554 69.4197 408.687 69.2865 409.082 69.2865C409.216 69.0216 409.349 68.8884 409.614 68.8884C409.747 68.7553 410.012 68.7553 410.411 68.6221C410.544 68.6221 410.809 68.6221 410.942 68.489C411.209 68.489 411.607 68.489 411.872 68.489C411.872 68.489 412.005 68.489 412.138 68.489C412.271 68.489 412.271 68.489 412.4 68.489C412.666 68.489 413.064 68.489 413.198 68.489C413.463 68.6221 413.596 68.6221 413.862 68.6221C413.995 68.7553 414.393 68.7553 414.66 68.8884C414.793 68.8884 415.058 69.0216 415.191 69.0216C415.456 69.2865 415.719 69.4197 415.852 69.5514C416.119 69.6846 416.25 69.8177 416.517 69.9494C416.517 69.9494 416.65 69.9495 416.65 70.0826C416.783 70.0826 417.048 70.2143 417.048 70.3475C417.314 70.6138 417.446 70.7456 417.579 70.8787C417.712 71.0105 417.845 71.2768 417.977 71.4085C418.11 71.5417 418.242 71.6748 418.508 72.0715C418.508 72.2046 418.642 72.4695 418.773 72.6027C418.906 72.8676 418.906 73.0007 419.04 73.3988C419.04 73.5305 419.168 73.7969 419.168 73.9286C419.302 74.1949 419.302 74.3266 419.302 74.7247C419.302 74.991 419.435 75.1228 419.435 75.3876C419.435 75.5208 419.435 75.6525 419.435 75.7857V129.397H420.764C424.879 129.402 428.196 132.719 428.196 136.7ZM404.841 96.6235L378.432 129.402H404.843V96.6235H404.841Z" fill="#1D5532"/>
<path d="M308.701 224.23C308.36 224.23 308.084 223.954 308.084 223.613V206.252C308.084 205.911 308.36 205.635 308.701 205.635C309.042 205.635 309.318 205.911 309.318 206.252V223.613C309.318 223.955 309.042 224.23 308.701 224.23Z" fill="#263238"/>
<path d="M277.276 232.544C277.063 232.544 276.855 232.434 276.74 232.235L268.059 217.199C267.889 216.904 267.99 216.526 268.285 216.356C268.579 216.184 268.956 216.286 269.128 216.582L277.809 231.618C277.979 231.913 277.878 232.291 277.583 232.461C277.487 232.518 277.381 232.544 277.276 232.544Z" fill="#263238"/>
<path d="M268.249 356.343C268.144 356.343 268.038 356.316 267.941 356.26C267.646 356.09 267.545 355.714 267.716 355.418L276.397 340.381C276.567 340.086 276.945 339.984 277.24 340.156C277.534 340.326 277.636 340.702 277.465 340.998L268.784 356.035C268.669 356.232 268.462 356.343 268.249 356.343Z" fill="#263238"/>
<path d="M308.301 367.182C307.96 367.182 307.684 366.905 307.684 366.565V349.202C307.684 348.862 307.96 348.585 308.301 348.585C308.641 348.585 308.918 348.862 308.918 349.202V366.565C308.918 366.905 308.642 367.182 308.301 367.182Z" fill="#263238"/>
<path d="M348.405 356.542C348.193 356.542 347.984 356.431 347.871 356.233L339.191 341.197C339.019 340.902 339.121 340.525 339.417 340.354C339.71 340.181 340.089 340.284 340.26 340.58L348.94 355.616C349.111 355.911 349.01 356.289 348.714 356.459C348.616 356.515 348.51 356.542 348.405 356.542Z" fill="#263238"/>
<path d="M340.07 232.744C339.965 232.744 339.859 232.718 339.762 232.661C339.467 232.491 339.366 232.113 339.536 231.818L348.217 216.782C348.387 216.486 348.765 216.388 349.06 216.556C349.355 216.726 349.456 217.104 349.286 217.399L340.604 232.435C340.491 232.634 340.282 232.744 340.07 232.744Z" fill="#263238"/>
</svg>
