<svg preserveAspectRatio="none" width="100%" height="100%" overflow="visible" style="display: block;" viewBox="0 0 22.5 21.75" fill="none" xmlns="http://www.w3.org/2000/svg">
<g id="Group">
<path id="Vector" fill-rule="evenodd" clip-rule="evenodd" d="M12 3.61744C12.086 3.58729 12.1705 3.55178 12.2532 3.5109L16.1615 1.5789C16.3743 1.4737 16.6257 1.4737 16.8385 1.5789L20.5885 3.43264C20.8439 3.5589 21 3.81364 21 4.08671V9.8436C21 10.2578 21.3358 10.5936 21.75 10.5936C22.1642 10.5936 22.5 10.2578 22.5 9.8436V4.08671C22.5 3.23636 22.0141 2.4641 21.2532 2.08795L17.5032 0.234225C16.8714 -0.078075 16.1286 -0.078075 15.4968 0.234225L11.5885 2.16623C11.3757 2.27143 11.1243 2.27143 10.9115 2.16623L7.00316 0.234225C6.3714 -0.078075 5.6286 -0.078075 4.99684 0.234225L1.24682 2.08795C0.485888 2.4641 0 3.23636 0 4.08671V15.6005C0 17.2729 1.7699 18.3325 3.25316 17.5992L5.66153 16.4087C5.87434 16.3035 6.12566 16.3035 6.33847 16.4087L10.9176 18.6723C11.289 18.8559 11.7388 18.7037 11.9223 18.3324C12.0049 18.1653 12.0195 17.9824 11.9768 17.815C11.992 17.7556 12 17.6934 12 17.6292V9.375C12 8.96078 11.6642 8.625 11.25 8.625C10.8358 8.625 10.5 8.96078 10.5 9.375V16.7926L7.00316 15.064C6.92051 15.0232 6.83595 14.9877 6.75 14.9575V1.78233L10.2468 3.5109C10.3295 3.55178 10.414 3.58729 10.5 3.61744V5.625C10.5 6.03922 10.8358 6.375 11.25 6.375C11.6642 6.375 12 6.03922 12 5.625V3.61744ZM5.25 14.9575V1.78233L1.91154 3.43264C1.65612 3.5589 1.5 3.81364 1.5 4.08671V15.6005C1.5 16.1329 2.07704 16.5074 2.58847 16.2546L4.99684 15.064C5.07949 15.0232 5.16405 14.9877 5.25 14.9575Z" fill="#5B5B5B"/>
<path id="Vector_2" d="M16.5 15C16.5 14.1716 17.1716 13.5 18 13.5C18.8284 13.5 19.5 14.1716 19.5 15C19.5 15.8284 18.8284 16.5 18 16.5C17.1716 16.5 16.5 15.8284 16.5 15Z" fill="#5B5B5B"/>
<path id="Vector_3" fill-rule="evenodd" clip-rule="evenodd" d="M18 10.5C15.5147 10.5 13.5 12.5147 13.5 15C13.5 16.1904 13.9671 17.8137 14.6903 19.1365C15.0555 19.8044 15.5084 20.4376 16.0407 20.9131C16.5716 21.3873 17.2353 21.75 18 21.75C18.7647 21.75 19.4284 21.3873 19.9593 20.9131C20.4916 20.4376 20.9445 19.8044 21.3097 19.1365C22.0329 17.8137 22.5 16.1904 22.5 15C22.5 12.5147 20.4853 10.5 18 10.5ZM15 15C15 13.3431 16.3431 12 18 12C19.6569 12 21 13.3431 21 15C21 15.8807 20.6276 17.2573 19.9936 18.4168C19.6802 18.99 19.325 19.4684 18.9601 19.7944C18.5937 20.1216 18.2709 20.25 18 20.25C17.7291 20.25 17.4063 20.1216 17.0399 19.7944C16.675 19.4684 16.3198 18.99 16.0064 18.4168C15.3724 17.2573 15 15.8807 15 15Z" fill="#5B5B5B"/>
</g>
</svg>
