<svg preserveAspectRatio="none" width="100%" height="100%" overflow="visible" style="display: block;" viewBox="0 0 20.25 22.5" fill="none" xmlns="http://www.w3.org/2000/svg">
<g id="Group">
<path id="Vector" d="M1.5 5.25C1.5 3.17895 3.17895 1.5 5.25 1.5H9.31279C10.156 1.5 10.9746 1.78419 11.6364 2.30669L15.8236 5.6124C16.7245 6.32355 17.25 7.40805 17.25 8.5557V11.8125C17.25 12.2267 17.5858 12.5625 18 12.5625C18.4142 12.5625 18.75 12.2267 18.75 11.8125V8.5557C18.75 6.94898 18.0142 5.43067 16.7531 4.43509L12.5659 1.12937C11.6393 0.397868 10.4933 0 9.31279 0H5.25C2.3505 0 0 2.3505 0 5.25V17.25C0 20.1495 2.3505 22.5 5.25 22.5H7.875C8.28922 22.5 8.625 22.1642 8.625 21.75C8.625 21.3358 8.28922 21 7.875 21H5.25C3.17895 21 1.5 19.3211 1.5 17.25V5.25Z" fill="#5B5B5B"/>
<path id="Vector_2" fill-rule="evenodd" clip-rule="evenodd" d="M11.25 17.25C10.4216 17.25 9.75 17.9216 9.75 18.75V21.75C9.75 22.1642 10.0858 22.5 10.5 22.5H19.5C19.9142 22.5 20.25 22.1642 20.25 21.75V16.5C20.25 15.6716 19.5784 15 18.75 15H17.25V14.25C17.25 13.4216 16.5784 12.75 15.75 12.75H14.25C13.4216 12.75 12.75 13.4216 12.75 14.25V17.25H11.25ZM15.75 14.25H14.25V21H15.75V14.25ZM12.75 18.75V21H11.25V18.75H12.75ZM17.25 16.5V21H18.75V16.5H17.25Z" fill="#5B5B5B"/>
<path id="Vector_3" d="M3 10.5C3 10.0858 3.33578 9.75 3.75 9.75H12.75C13.1642 9.75 13.5 10.0858 13.5 10.5C13.5 10.9142 13.1642 11.25 12.75 11.25H3.75C3.33578 11.25 3 10.9142 3 10.5Z" fill="#5B5B5B"/>
<path id="Vector_4" d="M3.75 6.75C3.33578 6.75 3 7.08578 3 7.5C3 7.91422 3.33578 8.25 3.75 8.25H9C9.41422 8.25 9.75 7.91422 9.75 7.5C9.75 7.08578 9.41422 6.75 9 6.75H3.75Z" fill="#5B5B5B"/>
</g>
</svg>
