<svg preserveAspectRatio="none" width="100%" height="100%" overflow="visible" style="display: block;" viewBox="0 0 12.3289 16.1475" fill="none" xmlns="http://www.w3.org/2000/svg">
<g id="Group">
<path id="Vector" d="M6.1478 0.473057C6.1478 0.211939 5.93588 1.67495e-05 5.67477 1.67495e-05H2.83653C2.57541 1.67495e-05 2.36349 0.211939 2.36349 0.473057V1.32453H6.1478V0.473057Z" fill="white"/>
<path id="Vector_2" d="M12.0107 10.2573C11.1836 10.0839 10.69 9.22901 10.9535 8.42601L11.0548 8.11708L10.2799 7.66968L10.063 7.91191C9.4992 8.54162 8.51225 8.54162 7.94845 7.91191L7.73155 7.66965L6.95661 8.11705L7.05803 8.42613C7.32142 9.22929 6.82776 10.0842 6.00047 10.2575L5.68247 10.3241V11.2187L6.00063 11.2854C6.82798 11.4586 7.32171 12.3138 7.05806 13.1169L6.95668 13.4258L7.73148 13.8731L7.94823 13.6309C8.51206 13.0009 9.49933 13.0009 10.0632 13.6309L10.2799 13.8731L11.0547 13.4258L10.9534 13.117C10.6898 12.314 11.1834 11.4589 12.0105 11.2855L12.3289 11.2188V10.324L12.0107 10.2573ZM9.00948 12.1905C8.22698 12.1905 7.59036 11.5539 7.59036 10.7714C7.59036 9.98887 8.22698 9.35225 9.00948 9.35225C9.79198 9.35225 10.4286 9.98887 10.4286 10.7714C10.4286 11.5539 9.79201 12.1905 9.00948 12.1905Z" fill="white"/>
<path id="Vector_3" d="M9.0074 11.2456C9.26847 11.2456 9.4801 11.034 9.4801 10.7729C9.4801 10.5119 9.26847 10.3002 9.0074 10.3002C8.74634 10.3002 8.53471 10.5119 8.53471 10.7729C8.53471 11.034 8.74634 11.2456 9.0074 11.2456Z" fill="white"/>
<path id="Vector_4" d="M8.51472 3.21688C8.51472 2.69521 8.09031 2.2708 7.56864 2.2708H0.94608C0.424411 2.2708 0 2.69521 0 3.21688V4.76214H8.51472V3.21688Z" fill="white"/>
<path id="Vector_5" d="M7.59279 14.8858L6.15245 14.0542C5.95857 13.9423 5.8697 13.7097 5.93952 13.497L6.16074 12.8231C6.24879 12.5549 6.08455 12.2705 5.80827 12.2126L5.114 12.0672C4.89489 12.0213 4.73794 11.8281 4.73794 11.6042V9.94107C4.73794 9.7172 4.89489 9.52395 5.11403 9.47806L5.80814 9.33271C6.08433 9.27487 6.2486 8.99042 6.16065 8.7223L5.93949 8.04822C5.86973 7.83551 5.95857 7.60302 6.15245 7.49107L7.59279 6.65953C7.78668 6.54758 8.03244 6.5869 8.18176 6.75363L8.51472 7.12551V5.7091H0V15.2014C0 15.7231 0.424411 16.1475 0.94608 16.1475H7.56864C8.09031 16.1475 8.51472 15.7231 8.51472 15.2014V14.4196L8.18182 14.7916C8.0325 14.9584 7.78674 14.9977 7.59279 14.8858Z" fill="white"/>
</g>
</svg>
