<svg preserveAspectRatio="none" width="100%" height="100%" overflow="visible" style="display: block;" viewBox="0 0 21.0308 16.8246" fill="none" xmlns="http://www.w3.org/2000/svg">
<g id="Frame">
<g clip-path="url(#clip0_0_4)">
<path id="Vector" d="M4.01436 6.2608e-05C3.01211 6.2608e-05 2.15116 0.706566 1.954 1.6891L0.271535 10.1014C0.0119357 11.4027 1.00433 12.6185 2.3319 12.6185H9.46265V14.7216H7.35957C6.77794 14.7216 6.30803 15.1915 6.30803 15.7732C6.30803 16.3548 6.77794 16.8247 7.35957 16.8247H13.6688C14.2504 16.8247 14.7203 16.3548 14.7203 15.7732C14.7203 15.1915 14.2504 14.7216 13.6688 14.7216H11.5657V12.6185H18.6965C20.0241 12.6185 21.0197 11.406 20.7601 10.1014L19.0777 1.6891C18.8772 0.706566 18.0163 6.2608e-05 17.014 6.2608e-05H4.01436ZM8.57213 2.10314H12.4563L12.798 5.52065H8.23038L8.57213 2.10314ZM6.6465 5.52065H3.33086L4.01436 2.10314H6.98496L6.6465 5.52065ZM3.0154 7.09796H6.48876L6.14701 10.5155H2.3319L3.0154 7.09796ZM8.07265 7.09796H12.9557L13.2975 10.5155H7.7309L8.07265 7.09796ZM14.5396 7.09796H18.013L18.6965 10.5155H14.8847L14.5396 7.09796ZM17.6942 5.52065H14.3819L14.0401 2.10314H17.0107L18.0426 1.89612L17.014 2.10314L17.6975 5.52065H17.6942Z" fill="white"/>
</g>
</g>
<defs>
<clipPath id="clip0_0_4">
<path d="M0 0H21.0308V16.8246H0V0Z" fill="white"/>
</clipPath>
</defs>
</svg>
