<svg preserveAspectRatio="none" width="100%" height="100%" overflow="visible" style="display: block;" viewBox="0 0 24 24" fill="none" xmlns="http://www.w3.org/2000/svg">
<g id="Frame">
<path id="Vector" fill-rule="evenodd" clip-rule="evenodd" d="M6 22.5H18C20.8995 22.5 23.25 20.1495 23.25 17.25V16.125C23.25 15.7108 22.9142 15.375 22.5 15.375C22.0858 15.375 21.75 15.7108 21.75 16.125V17.25C21.75 19.321 20.071 21 18 21V6.75C20.071 6.75 21.75 8.42895 21.75 10.5V12.375C21.75 12.7892 22.0858 13.125 22.5 13.125C22.9142 13.125 23.25 12.7892 23.25 12.375V10.5C23.25 7.6005 20.8995 5.25 18 5.25H17.7826C17.1372 3.08138 15.1283 1.5 12.75 1.5H11.25C8.87175 1.5 6.86284 3.08138 6.21742 5.25H6C3.1005 5.25 0.75 7.6005 0.75 10.5V17.25C0.75 20.1495 3.1005 22.5 6 22.5ZM6 6.75C3.92895 6.75 2.25 8.42895 2.25 10.5V17.25C2.25 19.321 3.92895 21 6 21V12.375C6 11.9608 6.33578 11.625 6.75 11.625C7.16422 11.625 7.5 11.9608 7.5 12.375V21H16.5V6.75H7.5V8.625C7.5 9.03922 7.16422 9.375 6.75 9.375C6.33578 9.375 6 9.03922 6 8.625V6.75ZM7.81204 5.25H16.188C15.6093 3.92557 14.2877 3 12.75 3H11.25C9.71228 3 8.3907 3.92557 7.81204 5.25Z" fill="#5B5B5B"/>
</g>
</svg>
