<svg preserveAspectRatio="none" width="100%" height="100%" overflow="visible" style="display: block;" viewBox="0 0 24 24" fill="none" xmlns="http://www.w3.org/2000/svg">
<g id="Frame" clip-path="url(#clip0_0_16)">
<path id="Vector" fill-rule="evenodd" clip-rule="evenodd" d="M3.87097 0.829177C3.58225 0.684806 3.23352 0.741397 3.00525 0.969667L0.96969 3.00523C0.74142 3.2335 0.684829 3.58223 0.8292 3.87098L2.86476 7.94209C2.9918 8.19619 3.2515 8.35669 3.53558 8.35669H5.26046L8.06861 11.1648L6.0675 13.1659C5.77462 13.4588 5.77462 13.9336 6.0675 14.2266C6.36041 14.5194 6.83527 14.5194 7.12819 14.2266L11.3266 10.0281C11.5289 9.82583 11.5985 9.52613 11.5061 9.25541C10.8777 7.41488 11.3037 5.28626 12.7826 3.80734C14.129 2.46091 16.0138 1.98756 17.7287 2.38705L14.5455 5.57025C14.4049 5.71091 14.3259 5.90168 14.3259 6.10058C14.3259 6.29948 14.4049 6.49024 14.5455 6.6309L17.3691 9.45446C17.662 9.74738 18.1369 9.74738 18.4297 9.45446L21.6129 6.27128C22.0125 7.98615 21.5391 9.87097 20.1927 11.2174C18.7137 12.6963 16.5851 13.1223 14.7446 12.4939C14.4739 12.4015 14.1742 12.4711 13.9719 12.6734L5.44312 21.2021C4.71266 21.9326 3.52833 21.9326 2.79786 21.2022C2.06738 20.4717 2.06738 19.2873 2.79786 18.5569L4.47652 16.8782C4.7694 16.5853 4.7694 16.1104 4.47652 15.8175C4.18361 15.5246 3.70876 15.5246 3.41586 15.8175L1.73719 17.4962C0.420934 18.8125 0.420934 20.9466 1.73719 22.2628C3.05346 23.5791 5.18752 23.5791 6.50381 22.2628L11.5599 17.2067C11.7268 17.4804 11.9286 17.7388 12.1653 17.9755L16.2364 22.0467C17.8408 23.6511 20.4422 23.6511 22.0467 22.0467C23.6511 20.4422 23.6511 17.8408 22.0467 16.2363L19.4055 13.5951C20.0729 13.2715 20.6989 12.8325 21.2533 12.2781C23.3406 10.1908 23.7937 7.08896 22.6015 4.57796C22.4969 4.35773 22.2918 4.20206 22.0516 4.16059C21.8114 4.11908 21.566 4.19693 21.3936 4.36931L17.8994 7.86349L16.1365 6.10058L19.6307 2.60638C19.8031 2.434 19.8809 2.18861 19.8394 1.94838C19.7979 1.70817 19.6423 1.5031 19.422 1.39854C16.911 0.206316 13.8092 0.659407 11.7219 2.74667C10.6146 3.85399 9.96735 5.24681 9.7815 6.68528L8.35669 5.26046V3.53556C8.35669 3.25148 8.19619 2.99178 7.94209 2.86473L3.87097 0.829177ZM9.9489 9.28451L9.12926 10.1042L6.10147 7.07632C5.96081 6.9357 5.77005 6.85669 5.57115 6.85669H3.99911L2.41259 3.68364L3.68367 2.41257L6.85669 3.99908V5.57111C6.85669 5.77001 6.9357 5.96078 7.07636 6.10144L9.85552 8.8806C9.88245 9.01598 9.91357 9.15071 9.9489 9.28451ZM13.2259 16.9149C12.9831 16.672 12.7981 16.3932 12.6711 16.0956L14.7155 14.0511C15.7296 14.3187 16.7952 14.3459 17.8223 14.1333L20.986 17.297C22.0047 18.3157 22.0047 19.9673 20.986 20.986C19.9673 22.0047 18.3157 22.0047 17.297 20.986L13.2259 16.9149Z" fill="#5B5B5B"/>
</g>
<defs>
<clipPath id="clip0_0_16">
<rect width="24" height="24" fill="#5B5B5B"/>
</clipPath>
</defs>
</svg>
