<svg preserveAspectRatio="none" width="100%" height="100%" overflow="visible" style="display: block;" viewBox="0 0 17.1101 17.1101" fill="none" xmlns="http://www.w3.org/2000/svg">
<g id="Frame">
<path id="Vector" d="M7.01504 1.42437C6.71991 1.42437 6.4553 1.60621 6.3495 1.88172L3.61188 9.01092C3.52771 9.23015 3.55687 9.47674 3.68986 9.6703C3.82285 9.86379 4.04261 9.97943 4.27742 9.97943H7.3695L5.65986 14.7284C5.54062 15.0596 5.68097 15.4282 5.99027 15.5963C6.29958 15.7644 6.68524 15.6815 6.89824 15.4013L13.4001 6.84619C13.564 6.63056 13.5915 6.34067 13.4712 6.09802C13.3508 5.85538 13.1033 5.7019 12.8325 5.7019H9.94236L11.7435 2.48562C11.8671 2.26485 11.8645 1.99509 11.7365 1.77679C11.6086 1.55849 11.3745 1.42437 11.1215 1.42437H7.01504Z" fill="white"/>
</g>
</svg>
