<svg preserveAspectRatio="none" width="100%" height="100%" overflow="visible" style="display: block;" viewBox="0 0 16.9245 21.1243" fill="none" xmlns="http://www.w3.org/2000/svg">
<g id="Group">
<path id="Vector" d="M8.23508 21.0997C8.07405 21.0501 7.85094 20.8272 7.79727 20.6703C7.77657 20.6 7.51229 19.0927 7.21912 17.3214C6.70305 14.2369 6.68236 14.0882 6.72353 13.8364C6.7813 13.5018 6.92595 13.1923 7.13225 12.961L7.28918 12.7793L7.4502 12.8907C7.80524 13.1343 7.99106 13.1921 8.45776 13.1921C8.92446 13.1921 9.11028 13.1343 9.46531 12.8907L9.62634 12.7793L9.78327 12.961C9.98978 13.1923 10.1342 13.5018 10.192 13.8364C10.2416 14.1296 10.3034 13.7083 9.4942 18.581C9.13485 20.7282 9.10187 20.8604 8.85009 21.0173C8.69337 21.116 8.4043 21.1533 8.23508 21.0997Z" fill="white"/>
<path id="Vector_2" d="M8.14894 12.2797C7.35199 11.9866 7.43046 10.8262 8.26448 10.6033C8.78464 10.4671 9.32571 10.9006 9.32571 11.458C9.32162 12.0775 8.73118 12.4945 8.14894 12.2797Z" fill="white"/>
<path id="Vector_3" d="M5.79322 11.8509C5.40089 11.7724 5.40498 11.7724 4.16634 10.7608C1.26763 8.39065 0.123839 7.42017 0.0576603 7.27984C0.00808023 7.17658 -0.00830281 7.06513 0.00398443 6.9123C0.036966 6.54066 0.317848 6.27638 0.689483 6.27638C0.912378 6.27638 6.92882 8.52688 7.1931 8.70861C7.50696 8.92331 7.80013 9.34862 7.862 9.68318C7.88679 9.79894 7.87429 9.81123 7.70507 9.8815C7.46148 9.98066 7.10623 10.3027 6.9411 10.5793C6.78008 10.8518 6.66863 11.3348 6.70571 11.6075L6.73459 11.8015L6.46621 11.847C6.17326 11.8964 6.04112 11.9005 5.79322 11.8509Z" fill="white"/>
<path id="Vector_4" d="M10.4088 11.8427L10.1857 11.8013L10.2145 11.6237C10.2475 11.3842 10.1731 10.9752 10.0369 10.6946C9.90067 10.4055 9.53314 10.0379 9.25225 9.90581C9.04984 9.81505 9.03755 9.79846 9.05824 9.6827C9.09123 9.50938 9.26044 9.17482 9.40918 8.98901C9.69826 8.64216 9.55361 8.70403 13.7037 7.15562C15.8716 6.34639 16.0945 6.27202 16.2885 6.2843C16.6561 6.31319 16.9244 6.60636 16.9244 6.9739C16.9244 7.31255 16.8997 7.34144 14.7194 9.13753C11.7384 11.5948 11.6019 11.7021 11.3708 11.7849C11.1106 11.8716 10.6853 11.9004 10.4088 11.8427Z" fill="white"/>
<path id="Vector_5" d="M7.88664 8.78301C7.80817 8.75412 7.71311 8.68794 7.67194 8.63017C7.62645 8.56421 7.27961 7.09405 6.70577 4.5008C5.72301 0.0782499 5.75189 0.272475 6.02027 0.0948489L6.1647 0L8.51437 0.00819108L10.864 0.0204787L10.9837 0.156717C11.0496 0.231087 11.1033 0.338438 11.1033 0.396209C11.1033 0.615009 9.3236 8.52692 9.24923 8.63017C9.14188 8.78301 8.94765 8.83259 8.46048 8.83259C8.2212 8.83259 7.96511 8.81189 7.88664 8.78301Z" fill="white"/>
</g>
</svg>
