<svg preserveAspectRatio="none" width="100%" height="100%" overflow="visible" style="display: block;" viewBox="0 0 30.7246 30.7246" fill="none" xmlns="http://www.w3.org/2000/svg">
<g id="Group 180">
<circle id="Ellipse 5" cx="15.3623" cy="15.3623" r="15.3623" fill="url(#paint0_linear_0_32)"/>
<g id="Frame" clip-path="url(#clip0_0_32)">
<path id="Vector" d="M7.62289 19.3504C7.8089 19.0212 8.11625 18.6484 8.53632 18.2428C9.3597 17.4475 10.5557 16.5808 11.904 15.8023C12.5568 15.4255 13.2081 15.0908 13.8425 14.8053C13.6209 15.1252 13.4905 15.513 13.4905 15.9308C13.4905 17.0236 14.3797 17.9127 15.4725 17.9127C15.5214 17.9127 15.5698 17.9103 15.6177 17.9067C15.0562 18.3105 14.4446 18.7046 13.7959 19.0791C12.4476 19.8575 11.099 20.4599 9.99855 20.7754C9.44889 20.9329 8.98078 21.0128 8.60654 21.0126H8.58264C8.05897 21.0078 7.69951 20.8425 7.51412 20.5214C7.3286 20.2002 7.36531 19.8063 7.62289 19.3504Z" fill="white"/>
<path id="Vector_2" d="M15.4707 17.9128C16.5635 17.9128 17.4525 17.0236 17.4525 15.9308C17.4525 15.5138 17.3228 15.1266 17.1019 14.8071C17.7351 15.0923 18.385 15.4264 19.0363 15.8023C20.3846 16.5807 21.5806 17.4475 22.404 18.2428C22.8241 18.6486 23.1314 19.0212 23.3174 19.3505C23.5751 19.8063 23.6117 20.2002 23.4263 20.5214C23.2409 20.8425 22.8813 21.0078 22.3578 21.0126C22.3498 21.0128 22.3419 21.0128 22.3338 21.0128C21.9595 21.0128 21.4914 20.9329 20.9418 20.7754C19.8415 20.46 18.4928 19.8575 17.1445 19.0791C16.4957 18.7046 15.884 18.3105 15.3223 17.9066C15.3714 17.9102 15.4207 17.9128 15.4707 17.9128Z" fill="white"/>
<path id="Vector_3" d="M15.4712 13.9484C14.685 13.9484 14.0043 14.4087 13.6842 15.0738C13.6139 14.3801 13.578 13.6471 13.578 12.8914C13.578 11.3344 13.7306 9.86529 14.0076 8.75451C14.1489 8.18798 14.3181 7.73551 14.5101 7.40968C14.7761 6.95869 15.099 6.72994 15.4699 6.72994C15.8407 6.72994 16.1635 6.95869 16.4295 7.40968C16.6217 7.73551 16.7907 8.18798 16.9321 8.75451C17.2091 9.86529 17.3617 11.3344 17.3617 12.8914C17.3617 13.6454 17.3258 14.3768 17.256 15.0692C16.9349 14.4066 16.2556 13.9484 15.4712 13.9484Z" fill="white"/>
<path id="Vector_4" d="M14.3684 15.9309C14.3684 16.5403 14.8625 17.0344 15.4719 17.0344C16.0814 17.0344 16.5755 16.5403 16.5755 15.9309C16.5755 15.3214 16.0814 14.8273 15.4719 14.8273C14.8625 14.8273 14.3684 15.3214 14.3684 15.9309Z" fill="white"/>
<path id="Vector_5" d="M14.2669 19.8999C14.6816 19.6606 15.0836 19.4123 15.4691 19.1577C15.8548 19.4123 16.2568 19.6606 16.6714 19.8999C16.7438 19.9418 16.8164 19.9829 16.889 20.0238V22.8633H14.0516V20.0225C14.1234 19.982 14.1952 19.9413 14.2669 19.8999Z" fill="white"/>
<path id="Vector_6" d="M9.81869 15.901C10.0612 15.901 10.2677 15.7153 10.2893 15.4692C10.2978 15.3724 10.3064 15.2928 10.3165 15.2188C10.4967 13.8972 11.1723 12.7072 12.2189 11.868C12.3039 11.7999 12.393 11.7328 12.4841 11.6689C12.6978 11.5187 12.7493 11.2237 12.5991 11.01C12.4489 10.7962 12.1539 10.7448 11.9402 10.8949C11.8329 10.9703 11.7275 11.0495 11.6269 11.1301C10.3906 12.1216 9.59239 13.5283 9.37928 15.0909C9.36721 15.1792 9.35661 15.2761 9.34688 15.3868C9.32422 15.647 9.51676 15.8765 9.77693 15.8991C9.79097 15.9004 9.80489 15.901 9.81869 15.901Z" fill="white"/>
<path id="Vector_7" d="M21.1227 15.903C21.1364 15.903 21.1503 15.9024 21.1642 15.9012C21.4245 15.8785 21.617 15.6492 21.5944 15.389C21.4367 13.5791 20.4901 11.9404 18.9975 10.8929C18.7836 10.7429 18.4886 10.7946 18.3387 11.0083C18.1886 11.2222 18.2402 11.5171 18.4541 11.6671C19.7175 12.5537 20.5187 13.9402 20.652 15.471C20.6734 15.7173 20.88 15.903 21.1227 15.903Z" fill="white"/>
</g>
</g>
<defs>
<linearGradient id="paint0_linear_0_32" x1="15.3623" y1="0" x2="15.3623" y2="30.7246" gradientUnits="userSpaceOnUse">
<stop stop-color="#81D863"/>
<stop offset="1" stop-color="#59AA93"/>
</linearGradient>
<clipPath id="clip0_0_32">
<rect width="16.1464" height="16.1464" fill="white" transform="matrix(-1 0 0 1 23.5425 6.73047)"/>
</clipPath>
</defs>
</svg>
