<svg preserveAspectRatio="none" width="100%" height="100%" overflow="visible" style="display: block;" viewBox="0 0 13.4303 16.9989" fill="none" xmlns="http://www.w3.org/2000/svg">
<g id="pin">
<path id="Vector" d="M12.5184 5.14537C12.395 4.12161 12.003 3.1487 11.3821 2.32541C10.7612 1.50213 9.93352 0.857777 8.98309 0.457768C8.03267 0.0577592 6.99333 -0.0836653 5.97057 0.0478508C4.94782 0.179367 3.97807 0.579141 3.15977 1.20659C2.34147 1.83404 1.70374 2.66683 1.31133 3.62042C0.918915 4.57401 0.785788 5.61444 0.925461 6.63611C1.06513 7.65778 1.47263 8.62431 2.10659 9.43758C2.74055 10.2509 3.5784 10.8819 4.53509 11.2667C4.66087 11.3217 4.7609 11.4226 4.81472 11.5489L5.72885 14.3696C5.80729 14.567 5.94334 14.7362 6.11929 14.8552C6.29524 14.9742 6.50294 15.0375 6.71534 15.0368C6.93355 15.0358 7.14623 14.9681 7.32481 14.8427C7.50339 14.7173 7.63931 14.5403 7.71429 14.3354L8.60066 11.5909C8.62658 11.5192 8.66658 11.4533 8.71829 11.3972C8.77 11.341 8.8324 11.2958 8.90182 11.2641C10.0901 10.779 11.0869 9.91831 11.7399 8.81343C12.393 7.70855 12.6664 6.42026 12.5184 5.14537ZM6.71534 8.49889C6.18999 8.49889 5.67643 8.3431 5.23961 8.05123C4.80279 7.75936 4.46233 7.34451 4.26129 6.85914C4.06024 6.37378 4.00764 5.83969 4.11013 5.32443C4.21262 4.80917 4.46561 4.33587 4.83709 3.96439C5.20857 3.5929 5.68187 3.33992 6.19713 3.23743C6.7124 3.13494 7.24648 3.18754 7.73185 3.38859C8.21721 3.58963 8.63206 3.93009 8.92393 4.36691C9.21581 4.80373 9.37159 5.31728 9.37159 5.84264C9.37077 6.54687 9.09065 7.22202 8.59268 7.71998C8.09472 8.21794 7.41957 8.49806 6.71534 8.49889Z" fill="white"/>
<path id="Vector_2" d="M6.71535 7.43639C7.59555 7.43639 8.3091 6.72284 8.3091 5.84264C8.3091 4.96243 7.59555 4.24889 6.71535 4.24889C5.83514 4.24889 5.1216 4.96243 5.1216 5.84264C5.1216 6.72284 5.83514 7.43639 6.71535 7.43639Z" fill="white"/>
<path id="Vector_3" d="M13.0532 16.4357C12.9031 16.612 12.7167 16.7535 12.5067 16.8508C12.2966 16.948 12.068 16.9985 11.8366 16.9989H1.59409C1.3627 16.9991 1.13405 16.9488 0.92404 16.8517C0.71403 16.7546 0.527708 16.6128 0.378041 16.4364C0.228373 16.2599 0.118953 16.0529 0.0573954 15.8299C-0.00416231 15.6068 -0.0163796 15.373 0.0215936 15.1448L0.733468 10.8948C0.788518 10.5557 0.950448 10.243 1.19566 10.0023C1.89927 10.9344 2.8278 11.6729 3.89441 12.1485L4.71784 14.6985L4.74441 14.7623C4.90038 15.1576 5.17184 15.4968 5.52341 15.7356C5.87498 15.9744 6.29034 16.1018 6.71534 16.101C7.14574 16.098 7.56529 15.9657 7.91958 15.7213C8.27386 15.4769 8.54653 15.1317 8.70222 14.7304L9.53628 12.1485C10.601 11.6697 11.5275 10.9296 12.2297 9.99698C12.4776 10.2385 12.6415 10.5532 12.6972 10.8948L13.4091 15.1448C13.4466 15.3729 13.4342 15.6065 13.3728 15.8293C13.3113 16.0522 13.2023 16.2591 13.0532 16.4357Z" fill="white"/>
</g>
</svg>
