<svg preserveAspectRatio="none" width="100%" height="100%" overflow="visible" style="display: block;" viewBox="0 0 24 24" fill="none" xmlns="http://www.w3.org/2000/svg">
<g id="Frame">
<path id="Vector" fill-rule="evenodd" clip-rule="evenodd" d="M6.09004 1.5C3.56563 1.5 1.32073 3.30751 1.01522 5.87749C0.918866 6.68801 0.848786 7.46381 0.804949 8.22397C0.780495 8.64791 1.12137 9 1.54604 9C1.95006 9 2.28073 8.68013 2.3044 8.27681C2.3466 7.55768 2.41338 6.82305 2.50473 6.05456C2.71312 4.30155 4.26105 3 6.09004 3H17.9035C19.7208 3 21.2619 4.28449 21.4798 6.02239C21.841 8.90194 21.8403 11.3082 21.4763 14.2188C21.2583 15.9612 19.7153 17.25 17.8955 17.25H6.09521C4.26458 17.25 2.71534 15.9459 2.50687 14.1901C2.40096 13.2981 2.32778 12.4525 2.28737 11.625H5.69216C5.9799 11.625 6.24229 11.4604 6.36746 11.2013L7.06819 9.75116L8.92808 14.5224C9.0309 14.7861 9.27345 14.9695 9.55523 14.9966C9.83704 15.0236 10.11 14.8897 10.2611 14.6503L11.6971 12.375H16.125C16.5392 12.375 16.875 12.0392 16.875 11.625C16.875 11.2108 16.5392 10.875 16.125 10.875H11.2836C11.0262 10.875 10.7867 11.007 10.6493 11.2247L9.78585 12.5929L7.84057 7.6026C7.7322 7.32461 7.46936 7.13726 7.1712 7.12556C6.87304 7.11386 6.59632 7.28003 6.4665 7.54868L5.22161 10.125H1.5C1.08579 10.125 0.75 10.4608 0.75 10.875C0.75 10.9518 0.761557 11.026 0.78303 11.0958C0.772969 11.1485 0.768607 11.2032 0.770606 11.2592C0.806366 12.2622 0.888634 13.283 1.01733 14.3669C1.32268 16.9387 3.56787 18.75 6.09521 18.75H8.46015L8.01015 21H6.75C6.33578 21 6 21.3358 6 21.75C6 22.1642 6.33578 22.5 6.75 22.5H17.25C17.6642 22.5 18 22.1642 18 21.75C18 21.3358 17.6642 21 17.25 21H15.9898L15.5399 18.75H17.8955C20.407 18.75 22.6451 16.9605 22.9647 14.405C23.3441 11.3717 23.345 8.84018 22.9682 5.83571C22.648 3.28303 20.4103 1.5 17.9035 1.5H6.09004ZM9.53985 21L9.98985 18.75H14.0102L14.4601 21H9.53985Z" fill="#5B5B5B"/>
</g>
</svg>
