<svg preserveAspectRatio="none" width="100%" height="100%" overflow="visible" style="display: block;" viewBox="0 0 20 20" fill="none" xmlns="http://www.w3.org/2000/svg">
<g id="lucide/users-round">
<path id="Vector" d="M14.0088 16.3444C14.0088 14.693 13.3529 13.1093 12.1852 11.9416C11.0175 10.7739 9.43377 10.1179 7.78242 10.1179M7.78242 10.1179C6.13107 10.1179 4.54736 10.7739 3.37968 11.9416C2.21199 13.1093 1.556 14.693 1.556 16.3444M7.78242 10.1179C9.93165 10.1179 11.6739 8.37565 11.6739 6.22643C11.6739 4.0772 9.93165 2.33491 7.78242 2.33491C5.6332 2.33491 3.89091 4.0772 3.89091 6.22643C3.89091 8.37565 5.6332 10.1179 7.78242 10.1179ZM17.1221 15.5661C17.1221 12.9432 15.5655 10.5071 14.0088 9.33964C14.5205 8.95575 14.9297 8.45166 15.2001 7.87197C15.4705 7.29227 15.5939 6.65486 15.5592 6.01613C15.5246 5.3774 15.3331 4.75706 15.0016 4.21C14.67 3.66294 14.2088 3.20603 13.6586 2.87972" stroke="var(--stroke-0, #4F4F4F)" stroke-width="2" stroke-linecap="round" stroke-linejoin="round"/>
</g>
</svg>
