<svg preserveAspectRatio="none" width="100%" height="100%" overflow="visible" style="display: block;" viewBox="0 0 22.5 22.5" fill="none" xmlns="http://www.w3.org/2000/svg">
<g id="Group">
<path id="Vector" d="M6 4.5C6.41422 4.5 6.75 4.16422 6.75 3.75C6.75 3.33578 6.41422 3 6 3H4.5C4.08578 3 3.75 3.33578 3.75 3.75C3.75 4.16422 4.08578 4.5 4.5 4.5H6Z" fill="#5B5B5B"/>
<path id="Vector_2" fill-rule="evenodd" clip-rule="evenodd" d="M0 5.25C0 2.3505 2.3505 0 5.25 0H17.25C20.1495 0 22.5 2.3505 22.5 5.25V17.25C22.5 20.1495 20.1495 22.5 17.25 22.5H5.25C2.3505 22.5 0 20.1495 0 17.25V10.125C0 9.71078 0.335786 9.375 0.75 9.375C1.16421 9.375 1.5 9.71078 1.5 10.125V17.25C1.5 19.321 3.17895 21 5.25 21H17.25C19.321 21 21 19.321 21 17.25V7.125H0V5.25ZM5.25 1.5C3.17895 1.5 1.5 3.17895 1.5 5.25V5.625H21V5.25C21 3.17895 19.321 1.5 17.25 1.5H5.25Z" fill="#5B5B5B"/>
<path id="Vector_3" d="M9.375 10.125C9.78922 10.125 10.125 10.4608 10.125 10.875V16.875C10.125 17.2892 9.78922 17.625 9.375 17.625C8.96078 17.625 8.625 17.2892 8.625 16.875V10.875C8.625 10.4608 8.96078 10.125 9.375 10.125Z" fill="#5B5B5B"/>
<path id="Vector_4" d="M17.625 13.125C17.625 12.7108 17.2892 12.375 16.875 12.375C16.4608 12.375 16.125 12.7108 16.125 13.125V16.875C16.125 17.2892 16.4608 17.625 16.875 17.625C17.2892 17.625 17.625 17.2892 17.625 16.875V13.125Z" fill="#5B5B5B"/>
<path id="Vector_5" d="M5.625 14.625C6.03922 14.625 6.375 14.9608 6.375 15.375V16.875C6.375 17.2892 6.03922 17.625 5.625 17.625C5.21078 17.625 4.875 17.2892 4.875 16.875V15.375C4.875 14.9608 5.21078 14.625 5.625 14.625Z" fill="#5B5B5B"/>
<path id="Vector_6" d="M13.875 15.375C13.875 14.9608 13.5392 14.625 13.125 14.625C12.7108 14.625 12.375 14.9608 12.375 15.375V16.875C12.375 17.2892 12.7108 17.625 13.125 17.625C13.5392 17.625 13.875 17.2892 13.875 16.875V15.375Z" fill="#5B5B5B"/>
</g>
</svg>
