<svg preserveAspectRatio="none" width="100%" height="100%" overflow="visible" style="display: block;" viewBox="0 0 17 17" fill="none" xmlns="http://www.w3.org/2000/svg">
<g id="unknow_person" clip-path="url(#clip0_0_47)">
<path id="Vector" d="M8.5 0C5.57058 0 3.1875 2.38308 3.1875 5.3125C3.1875 8.24192 5.57058 10.625 8.5 10.625C11.4294 10.625 13.8125 8.24192 13.8125 5.3125C13.8125 2.38308 11.4294 0 8.5 0ZM8.5 8.5C8.20664 8.5 7.96875 8.26216 7.96875 7.96875C7.96875 7.67534 8.20664 7.4375 8.5 7.4375C8.79336 7.4375 9.03125 7.67534 9.03125 7.96875C9.03125 8.26216 8.79341 8.5 8.5 8.5ZM9.35707 5.70706C9.17187 5.79785 9.06111 5.95398 9.06111 6.12494V6.39758C9.06111 6.69093 8.82321 6.92883 8.52986 6.92883C8.2365 6.92883 7.99861 6.69093 7.99861 6.39758V6.12494C7.99861 5.54779 8.34052 5.02169 8.89068 4.75246C9.1843 4.60928 9.43388 4.26243 9.33061 3.8106C9.26341 3.51464 9.01829 3.27287 8.721 3.20827C8.24888 3.10606 7.89793 3.38805 7.76953 3.69256C7.6559 3.96312 7.3449 4.0902 7.07381 3.97582C6.80351 3.86219 6.67664 3.55066 6.79054 3.2801C7.14308 2.44248 8.04892 1.97322 8.94614 2.1701C9.64936 2.32236 10.2071 2.87358 10.3666 3.57425C10.565 4.443 10.1501 5.32004 9.35707 5.70706Z" fill="white"/>
<path id="Vector_2" d="M12.7447 10.0624C11.6184 11.0771 10.1309 11.688 8.5 11.688C6.86906 11.688 5.38156 11.0771 4.25531 10.0624C2.68281 10.8433 1.59375 12.469 1.59375 14.3443V16.4693C1.59375 16.7615 1.83281 17.0005 2.125 17.0005H4.78125V14.3443C4.78125 14.0509 5.01914 13.813 5.3125 13.813C5.60586 13.813 5.84375 14.0509 5.84375 14.3443V17.0005H11.1562V14.3443C11.1562 14.0509 11.3941 13.813 11.6875 13.813C11.9809 13.813 12.2188 14.0509 12.2188 14.3443V17.0005H14.875C15.1672 17.0005 15.4062 16.7615 15.4062 16.4693V14.3443C15.4062 12.469 14.3172 10.8433 12.7447 10.0624Z" fill="white"/>
</g>
<defs>
<clipPath id="clip0_0_47">
<rect width="17" height="17" fill="white"/>
</clipPath>
</defs>
</svg>
