<svg preserveAspectRatio="none" width="100%" height="100%" overflow="visible" style="display: block;" viewBox="0 0 22 22" fill="none" xmlns="http://www.w3.org/2000/svg">
<g id="Layer_1" clip-path="url(#clip0_0_6)">
<path id="Vector" d="M11 1C9.02219 1 7.08879 1.58649 5.4443 2.6853C3.79981 3.78412 2.51809 5.3459 1.76121 7.17316C1.00433 9.00043 0.806299 11.0111 1.19215 12.9509C1.578 14.8907 2.53041 16.6725 3.92894 18.0711C5.32746 19.4696 7.10929 20.422 9.0491 20.8078C10.9889 21.1937 12.9996 20.9957 14.8268 20.2388C16.6541 19.4819 18.2159 18.2002 19.3147 16.5557C20.4135 14.9112 21 12.9778 21 11C20.9969 8.34879 19.9423 5.80707 18.0676 3.93239C16.1929 2.0577 13.6512 1.00313 11 1ZM11 19.8744C9.24481 19.8744 7.52905 19.3539 6.06966 18.3788C4.61028 17.4036 3.47283 16.0177 2.80115 14.3961C2.12946 12.7745 1.95372 10.9902 2.29614 9.26869C2.63856 7.54723 3.48376 5.96597 4.72487 4.72486C5.96597 3.48376 7.54724 2.63856 9.2687 2.29614C10.9902 1.95372 12.7745 2.12946 14.3961 2.80114C16.0177 3.47282 17.4036 4.61027 18.3788 6.06966C19.3539 7.52904 19.8744 9.24481 19.8744 11C19.8716 13.3528 18.9357 15.6084 17.272 17.272C15.6084 18.9357 13.3528 19.8715 11 19.8744Z" fill="white" stroke="var(--stroke-0, #4F4F4F)" stroke-width="0.6"/>
<path id="Vector_2" d="M11.0052 5C10.4735 5.00056 9.9637 5.21205 9.58777 5.58807C9.21184 5.96408 9.00045 6.47389 9 7.00559C9 7.92064 10.3475 11.0923 10.6175 11.7184C10.6501 11.7941 10.7041 11.8586 10.773 11.9039C10.8419 11.9493 10.9225 11.9734 11.005 11.9734C11.0874 11.9734 11.168 11.9493 11.2369 11.9039C11.3058 11.8586 11.3599 11.7941 11.3925 11.7184C11.6629 11.0923 13.0103 7.92149 13.0103 7.00559C13.0099 6.47389 12.7985 5.96408 12.4226 5.58807C12.0466 5.21205 11.5369 5.00056 11.0052 5ZM11.0052 10.4599C10.4542 9.10991 9.84375 7.46459 9.84375 7.00559C9.84375 6.69757 9.96611 6.40215 10.1839 6.18434C10.4017 5.96654 10.6971 5.84417 11.0052 5.84417C11.3132 5.84417 11.6086 5.96654 11.8264 6.18434C12.0442 6.40215 12.1666 6.69757 12.1666 7.00559C12.1666 7.46333 11.5561 9.10864 11.0052 10.4586V10.4599Z" fill="white" stroke="var(--stroke-0, #4F4F4F)" stroke-width="0.6"/>
<path id="Vector_3" d="M10.998 13C10.6025 13.0004 10.216 13.1181 9.88733 13.3381C9.55868 13.5581 9.30266 13.8706 9.15161 14.2362C9.00056 14.6017 8.96127 15.0038 9.03872 15.3916C9.11616 15.7795 9.30685 16.1356 9.58669 16.4151C9.86652 16.6946 10.2229 16.8848 10.6109 16.9618C10.9988 17.0387 11.4009 16.9989 11.7662 16.8474C12.1315 16.6959 12.4437 16.4395 12.6633 16.1106C12.8829 15.7816 13.0001 15.395 13 14.9995C12.9993 14.469 12.7881 13.9604 12.4127 13.5855C12.0373 13.2106 11.5285 13 10.998 13ZM10.998 15.9806C10.804 15.9802 10.6145 15.9224 10.4534 15.8143C10.2923 15.7062 10.1669 15.5529 10.093 15.3736C10.019 15.1942 9.99986 14.997 10.038 14.8068C10.076 14.6166 10.1696 14.442 10.3069 14.305C10.4442 14.168 10.6191 14.0747 10.8093 14.037C10.9996 13.9994 11.1968 14.0189 11.3759 14.0932C11.5551 14.1675 11.7082 14.2933 11.8159 14.4546C11.9237 14.6159 11.9812 14.8055 11.9812 14.9995C11.981 15.1285 11.9555 15.2562 11.906 15.3753C11.8565 15.4944 11.7841 15.6026 11.6928 15.6937C11.6015 15.7848 11.4931 15.857 11.3739 15.9063C11.2547 15.9555 11.1269 15.9808 10.998 15.9806Z" fill="white" stroke="var(--stroke-0, #4F4F4F)" stroke-width="0.4"/>
</g>
<defs>
<clipPath id="clip0_0_6">
<rect width="22" height="22" fill="white"/>
</clipPath>
</defs>
</svg>

