<svg preserveAspectRatio="none" width="100%" height="100%" overflow="visible" style="display: block;" viewBox="0 0 16 16" fill="none" xmlns="http://www.w3.org/2000/svg">
<g id="Glyph">
<path id="Vector" d="M5.20942 7.7274V8.50035H4.95983C4.83483 8.50035 4.72982 8.59035 4.71232 8.71284L4.06976 13.0003H6.84989L6.20733 8.71284C6.18974 8.59273 6.07962 8.49963 5.95733 8.50035H5.70942V7.72745C6.41776 7.60794 6.95956 6.99185 6.95956 6.25C6.95956 5.42285 6.28671 4.75 5.45956 4.75C4.63241 4.75 3.95956 5.42285 3.95956 6.25C3.95956 6.99176 4.5012 7.60778 5.20942 7.7274Z" fill="white"/>
<path id="Vector_2" d="M5.46002 4.24965C5.5875 4.24965 5.7125 4.26215 5.83502 4.28465C6.01 4.31964 6.17752 4.37465 6.33502 4.45215V1.74965C6.33502 1.64714 6.27252 1.55464 6.17752 1.51715L4.92752 1.01715C4.85002 0.98715 4.76251 0.997145 4.69502 1.04215C4.62501 1.08965 4.58502 1.16715 4.58502 1.24965V4.45215C4.7425 4.37465 4.91002 4.31964 5.08502 4.28466C5.20752 4.26215 5.33251 4.24965 5.46002 4.24965Z" fill="white"/>
<path id="Vector_3" d="M1.33264 9.5147C1.36763 9.53221 1.40514 9.5422 1.44264 9.5422C1.48514 9.5422 1.52763 9.5297 1.56764 9.5072L4.34264 7.90471C4.19515 7.8072 4.06264 7.68971 3.94763 7.5547C3.78514 7.3672 3.65514 7.1472 3.57263 6.90721C3.51514 6.7447 3.47763 6.5697 3.46514 6.38971L1.12514 7.7422C1.03764 7.7922 0.98764 7.89221 1.00264 7.9947L1.19514 9.32721C1.20764 9.40971 1.25764 9.4797 1.33264 9.5147Z" fill="white"/>
<path id="Vector_4" d="M6.57767 7.90471L8.92017 9.2572C8.95767 9.27971 9.00017 9.2922 9.04517 9.2922C9.10017 9.2922 9.15266 9.2722 9.19766 9.23721L10.2577 8.40471C10.3227 8.3547 10.3577 8.2722 10.3527 8.18971C10.3452 8.1072 10.3002 8.03221 10.2277 7.9922L7.45517 6.38971C7.44267 6.5697 7.40517 6.7447 7.34767 6.90721C7.26517 7.1472 7.13516 7.3672 6.97267 7.5547C6.85767 7.68971 6.72517 7.80721 6.57767 7.90471Z" fill="white"/>
<path id="Vector_5" d="M14.75 14.5H14.0875L13.9875 14.25H11.5125L11.4125 14.5H7.71001V14.25C7.71001 13.8375 7.3725 13.5 6.96001 13.5H3.96001C3.5475 13.5 3.21001 13.8375 3.21001 14.25V14.5H1.25C1.1125 14.5 1 14.6125 1 14.75C1 14.8875 1.1125 15 1.25 15H14.75C14.8875 15 15 14.8875 15 14.75C15 14.6125 14.8875 14.5 14.75 14.5Z" fill="white"/>
<path id="Vector_6" d="M14.5002 9.25H13.8327V10.4175H15.0002V9.75C15.0002 9.47385 14.7764 9.25 14.5002 9.25Z" fill="white"/>
<path id="Vector_7" d="M12.1673 9.25H13.3323V10.4175H12.1673V9.25Z" fill="white"/>
<path id="Vector_8" d="M11.6675 9.25H11C10.7239 9.25 10.5 9.47385 10.5 9.75V10.4175H11.6675V9.25Z" fill="white"/>
<path id="Vector_9" d="M10.5 10.917H11.6675V12.082H10.5V10.917Z" fill="white"/>
<path id="Vector_10" d="M12.1672 10.917H13.3322V12.082H12.1672V10.917Z" fill="white"/>
<path id="Vector_11" d="M13.8328 10.917H15.0003V12.082H13.8328V10.917Z" fill="white"/>
<path id="Vector_12" d="M13.8328 13.7505H14.5003C14.7764 13.7505 15.0003 13.5267 15.0003 13.2505V12.583H13.8328V13.7505Z" fill="white"/>
<path id="Vector_13" d="M12.1672 12.583H13.3322V13.7505H12.1672V12.583Z" fill="white"/>
<path id="Vector_14" d="M11 13.7505H11.6675V12.583H10.5V13.2505C10.5 13.5267 10.7239 13.7505 11 13.7505Z" fill="white"/>
</g>
</svg>
