<svg preserveAspectRatio="none" width="100%" height="100%" overflow="visible" style="display: block;" viewBox="0 0 30.7246 30.7246" fill="none" xmlns="http://www.w3.org/2000/svg">
<g id="Group 184">
<circle id="Ellipse 5" cx="15.3623" cy="15.3623" r="15.3623" fill="url(#paint0_linear_0_50)"/>
<g id="Frame" clip-path="url(#clip0_0_50)">
<path id="Vector" d="M7.62249 19.3506C7.8085 19.0214 8.11586 18.6486 8.53592 18.243C9.3593 17.4477 10.5553 16.581 11.9036 15.8025C12.5564 15.4257 13.2077 15.091 13.8421 14.8055C13.6205 15.1254 13.4901 15.5132 13.4901 15.931C13.4901 17.0238 14.3793 17.9129 15.4721 17.9129C15.521 17.9129 15.5694 17.9105 15.6173 17.9069C15.0558 18.3107 14.4442 18.7048 13.7955 19.0793C12.4472 19.8577 11.0986 20.4601 9.99815 20.7756C9.44849 20.9332 8.98038 21.013 8.60614 21.0129H8.58224C8.05857 21.008 7.69911 20.8427 7.51372 20.5216C7.3282 20.2004 7.36491 19.8065 7.62249 19.3506Z" fill="white"/>
<path id="Vector_2" d="M15.4703 17.913C16.5631 17.913 17.4521 17.0238 17.4521 15.931C17.4521 15.514 17.3224 15.1268 17.1015 14.8073C17.7347 15.0925 18.3846 15.4266 19.0359 15.8025C20.3842 16.5809 21.5802 17.4477 22.4036 18.243C22.8237 18.6488 23.131 19.0214 23.317 19.3507C23.5747 19.8065 23.6113 20.2004 23.4259 20.5216C23.2405 20.8427 22.8809 21.008 22.3574 21.0128C22.3494 21.013 22.3415 21.013 22.3334 21.013C21.9591 21.013 21.491 20.9331 20.9414 20.7756C19.8411 20.4602 18.4924 19.8577 17.1441 19.0793C16.4953 18.7048 15.8836 18.3107 15.3219 17.9068C15.371 17.9104 15.4203 17.913 15.4703 17.913Z" fill="white"/>
<path id="Vector_3" d="M15.4711 13.9486C14.6849 13.9486 14.0041 14.4089 13.684 15.074C13.6138 14.3803 13.5778 13.6473 13.5778 12.8916C13.5778 11.3346 13.7304 9.86549 14.0075 8.75472C14.1488 8.18818 14.3179 7.73571 14.51 7.40989C14.7759 6.9589 15.0988 6.73014 15.4697 6.73014C15.8405 6.73014 16.1634 6.9589 16.4293 7.40989C16.6215 7.73571 16.7905 8.18818 16.9319 8.75472C17.209 9.86549 17.3615 11.3346 17.3615 12.8916C17.3615 13.6456 17.3256 14.377 17.2558 15.0694C16.9348 14.4068 16.2554 13.9486 15.4711 13.9486Z" fill="white"/>
<path id="Vector_4" d="M14.3682 15.9311C14.3682 16.5405 14.8623 17.0346 15.4717 17.0346C16.0812 17.0346 16.5753 16.5405 16.5753 15.9311C16.5753 15.3216 16.0812 14.8275 15.4717 14.8275C14.8623 14.8275 14.3682 15.3216 14.3682 15.9311Z" fill="white"/>
<path id="Vector_5" d="M14.2665 19.9002C14.6812 19.6608 15.0833 19.4125 15.4687 19.158C15.8544 19.4125 16.2564 19.6608 16.671 19.9002C16.7434 19.942 16.816 19.9831 16.8886 20.024V22.8635H14.0512V20.0227C14.123 19.9822 14.1948 19.9415 14.2665 19.9002Z" fill="white"/>
<path id="Vector_6" d="M9.81852 15.9012C10.0611 15.9012 10.2675 15.7156 10.2891 15.4694C10.2976 15.3726 10.3062 15.293 10.3163 15.219C10.4965 13.8974 11.1721 12.7075 12.2187 11.8682C12.3037 11.8001 12.3929 11.733 12.4839 11.6691C12.6976 11.5189 12.7491 11.2239 12.599 11.0102C12.4487 10.7965 12.1538 10.745 11.94 10.8951C11.8327 10.9705 11.7273 11.0497 11.6268 11.1303C10.3905 12.1218 9.59223 13.5285 9.37911 15.0911C9.36704 15.1794 9.35645 15.2763 9.34672 15.387C9.32405 15.6472 9.51659 15.8767 9.77676 15.8993C9.7908 15.9006 9.80472 15.9012 9.81852 15.9012Z" fill="white"/>
<path id="Vector_7" d="M21.1225 15.9032C21.1362 15.9032 21.1501 15.9026 21.164 15.9014C21.4243 15.8787 21.6169 15.6494 21.5942 15.3892C21.4365 13.5793 20.49 11.9406 18.9973 10.8931C18.7835 10.7431 18.4884 10.7948 18.3385 11.0085C18.1885 11.2224 18.2401 11.5173 18.4539 11.6673C19.7173 12.5539 20.5185 13.9404 20.6518 15.4712C20.6733 15.7175 20.8799 15.9032 21.1225 15.9032Z" fill="white"/>
</g>
</g>
<defs>
<linearGradient id="paint0_linear_0_50" x1="15.3623" y1="1.23978e-05" x2="15.3623" y2="30.7246" gradientUnits="userSpaceOnUse">
<stop stop-color="#FFAB4F"/>
<stop offset="1" stop-color="#C95F42"/>
</linearGradient>
<clipPath id="clip0_0_50">
<rect width="16.1464" height="16.1464" fill="white" transform="matrix(-1 0 0 1 23.5424 6.72975)"/>
</clipPath>
</defs>
</svg>
