<svg preserveAspectRatio="none" width="100%" height="100%" overflow="visible" style="display: block;" viewBox="0 0 20.0007 18.3438" fill="none" xmlns="http://www.w3.org/2000/svg">
<g id="icon">
<path id="Vector" d="M19.9141 8.71094C19.2579 3.67188 14.961 0 10.0118 0C10.0079 0 10.0039 0 10 0C9.57035 0 9.13676 0.0273438 8.71098 0.0859375C7.96098 0.183594 7.2266 0.363281 6.51567 0.628906C6.08207 0.789062 5.85942 1.27344 6.01957 1.70703C6.06254 1.82031 6.12895 1.92188 6.21098 2.00781C6.44535 2.23828 6.79301 2.3125 7.1016 2.19531C8.01567 1.85547 8.98051 1.68359 9.95707 1.68359H9.98442H9.99613C10.3204 1.68359 10.6407 1.70313 10.961 1.73828C15.5313 2.26562 18.8047 6.40234 18.2774 10.9687C18.0586 12.8672 17.1914 14.6289 15.8243 15.9648V15.9609C15.3555 16.4219 14.7266 16.6797 14.0704 16.6797H5.92582C5.9102 16.6797 5.89457 16.6797 5.87504 16.6797C5.28129 16.6797 4.71098 16.4609 4.27348 16.0625C2.6016 14.4961 1.65629 12.3047 1.6641 10.0156C1.6641 9.73437 1.67973 9.45312 1.70707 9.17578C1.81645 8.10937 2.12895 7.07422 2.62895 6.12891C2.79692 5.80469 2.73832 5.41016 2.4766 5.15234C2.14848 4.82422 1.61723 4.82422 1.2891 5.15234C1.23051 5.21094 1.17973 5.28125 1.14067 5.35156C0.515665 6.53906 0.136759 7.83984 0.0273839 9.17578C0.0117589 9.44922 4.01434e-05 9.73047 4.01434e-05 10.0117C-0.00777236 12.7617 1.12504 15.3906 3.13285 17.2695C3.87895 17.9609 4.85551 18.3438 5.87113 18.3438H5.92582H14.0743C15.1641 18.3438 16.211 17.918 16.9883 17.1523C19.2422 14.9609 20.3282 11.8281 19.9141 8.71094Z" fill="white"/>
<path id="Path_128" d="M5.05469 9.30859C5.44531 6.57422 7.97656 4.67578 10.7109 5.06641C10.7188 5.06641 10.7227 5.06641 10.7305 5.07031C11.1836 5.12891 11.5938 4.8125 11.6563 4.35937C11.7227 3.90234 11.4063 3.48047 10.9492 3.41406C7.30859 2.89062 3.92969 5.42187 3.40625 9.06641C3.10547 11.168 3.82422 13.2891 5.33984 14.7773C5.67188 15.0977 6.19922 15.0859 6.51953 14.7539C6.83594 14.4258 6.82813 13.9062 6.50781 13.5859C5.3711 12.4687 4.83203 10.8828 5.05469 9.30859Z" fill="white"/>
<path id="Path_129" d="M15.7695 8.34765C15.3086 8.34765 14.9336 8.72265 14.9336 9.18359C14.9336 9.22265 14.9375 9.26172 14.9414 9.30078C15.1719 10.8789 14.6289 12.4727 13.4883 13.5859C13.1562 13.9062 13.1484 14.4336 13.4687 14.7656C13.7891 15.0977 14.3164 15.1055 14.6484 14.7852C14.6523 14.7812 14.6523 14.7812 14.6562 14.7773C15.9453 13.5273 16.668 11.8086 16.6641 10.0156C16.6641 9.69531 16.6406 9.3789 16.5977 9.0625C16.5352 8.65234 16.1836 8.34765 15.7695 8.34765Z" fill="white"/>
<path id="Path_130" d="M14.7539 6.4375C14.7617 6.42969 14.7695 6.42578 14.7734 6.41797C15.0898 6.08594 15.0781 5.55859 14.7461 5.23828C14.418 4.92187 13.8945 4.93359 13.5742 5.25781L10.4258 8.40625C9.52344 8.15625 8.58985 8.68359 8.33985 9.58593C8.08985 10.4883 8.61719 11.4219 9.51954 11.6719C10.4219 11.9219 11.3555 11.3945 11.6055 10.4922C11.6875 10.1953 11.6875 9.88281 11.6055 9.58593L14.7539 6.4375Z" fill="white"/>
</g>
</svg>

