<svg preserveAspectRatio="none" width="100%" height="100%" overflow="visible" style="display: block;" viewBox="0 0 16.9242 21.1243" fill="none" xmlns="http://www.w3.org/2000/svg">
<g id="Group">
<path id="Vector" d="M8.23484 21.0997C8.07381 21.0501 7.8507 20.8272 7.79702 20.6703C7.77633 20.6 7.51204 19.0928 7.21887 17.3215C6.70281 14.237 6.68212 14.0882 6.72329 13.8364C6.78106 13.5019 6.92571 13.1923 7.132 12.961L7.28893 12.7793L7.44996 12.8907C7.805 13.1343 7.99081 13.1921 8.45751 13.1921C8.92421 13.1921 9.11003 13.1343 9.46507 12.8907L9.6261 12.7793L9.78303 12.961C9.98954 13.1923 10.134 13.5019 10.1917 13.8364C10.2413 14.1296 10.3032 13.7084 9.49396 18.581C9.13461 20.7283 9.10162 20.8604 8.84984 21.0174C8.69313 21.1161 8.40405 21.1534 8.23484 21.0997Z" fill="white"/>
<path id="Vector_2" d="M8.14878 12.2798C7.35183 11.9867 7.4303 10.8263 8.26432 10.6034C8.78448 10.4671 9.32555 10.9006 9.32555 11.4581C9.32145 12.0776 8.73102 12.4945 8.14878 12.2798Z" fill="white"/>
<path id="Vector_3" d="M5.79314 11.8499C5.40081 11.7715 5.4049 11.7715 4.16626 10.7598C1.26755 8.38966 0.123761 7.41918 0.0575819 7.27885C0.00800182 7.17559 -0.00838123 7.06415 0.00390602 6.91131C0.0368876 6.53967 0.31777 6.27539 0.689405 6.27539C0.9123 6.27539 6.92874 8.5259 7.19302 8.70762C7.50689 8.92232 7.80006 9.34763 7.86192 9.68219C7.88671 9.79795 7.87421 9.81024 7.70499 9.88051C7.4614 9.97967 7.10615 10.3017 6.94103 10.5783C6.78 10.8508 6.66855 11.3339 6.70563 11.6065L6.73451 11.8006L6.46613 11.846C6.17318 11.8954 6.04104 11.8995 5.79314 11.8499Z" fill="white"/>
<path id="Vector_4" d="M10.4085 11.8427L10.1854 11.8013L10.2143 11.6237C10.2473 11.3842 10.1729 10.9753 10.0367 10.6946C9.90043 10.4055 9.53289 10.038 9.25201 9.90584C9.04959 9.81509 9.03731 9.79849 9.058 9.68273C9.09098 9.50942 9.2602 9.17486 9.40894 8.98904C9.69801 8.6422 9.55337 8.70406 13.7034 7.15566C15.8714 6.34642 16.0943 6.27205 16.2883 6.28434C16.6558 6.31323 16.9242 6.6064 16.9242 6.97393C16.9242 7.31259 16.8994 7.34147 14.7192 9.13757C11.7381 11.5948 11.6017 11.7022 11.3706 11.7849C11.1104 11.8716 10.6851 11.9005 10.4085 11.8427Z" fill="white"/>
<path id="Vector_5" d="M7.88648 8.78301C7.80801 8.75412 7.71295 8.68794 7.67177 8.63017C7.62629 8.56421 7.27944 7.09405 6.70561 4.5008C5.72284 0.0782499 5.75173 0.272475 6.02011 0.0948489L6.16454 0L8.5142 0.00819108L10.8639 0.0204787L10.9835 0.156717C11.0495 0.231087 11.1031 0.338438 11.1031 0.396209C11.1031 0.615009 9.32344 8.52692 9.24907 8.63017C9.14172 8.78301 8.94749 8.83259 8.46031 8.83259C8.22103 8.83259 7.96494 8.81189 7.88648 8.78301Z" fill="white"/>
</g>
</svg>
