<svg preserveAspectRatio="none" width="100%" height="100%" overflow="visible" style="display: block;" viewBox="0 0 17.1101 17.1101" fill="none" xmlns="http://www.w3.org/2000/svg">
<g id="Frame">
<path id="Vector" d="M7.0154 1.42529C6.72027 1.42529 6.45566 1.60713 6.34986 1.88264L3.61224 9.01184C3.52807 9.23106 3.55723 9.47766 3.69022 9.67122C3.82321 9.86471 4.04297 9.98034 4.27778 9.98034H7.36986L5.66021 14.7293C5.54098 15.0605 5.68132 15.4291 5.99063 15.5972C6.29993 15.7653 6.6856 15.6824 6.8986 15.4022L13.4005 6.84711C13.5644 6.63147 13.5919 6.34158 13.4715 6.09894C13.3511 5.8563 13.1037 5.70281 12.8328 5.70281H9.94272L11.7438 2.48654C11.8675 2.26577 11.8648 1.99601 11.7369 1.7777C11.609 1.55941 11.3748 1.42529 11.1218 1.42529H7.0154Z" fill="white"/>
</g>
</svg>
