<svg preserveAspectRatio="none" width="100%" height="100%" overflow="visible" style="display: block;" viewBox="0 0 30.7246 30.7246" fill="none" xmlns="http://www.w3.org/2000/svg">
<g id="Group 183">
<circle id="Ellipse 5" cx="15.3623" cy="15.3623" r="15.3623" fill="url(#paint0_linear_0_114)"/>
<g id="Frame" clip-path="url(#clip0_0_114)">
<path id="Vector" d="M21.0822 12.1052L19.9008 11.0142L20.2146 9.43819C20.2688 9.16717 20.0797 8.90811 19.8062 8.87584L18.2074 8.68785L17.5351 7.22747C17.4205 6.97776 17.1158 6.877 16.8741 7.01275L15.4699 7.79979L14.0657 7.01275C13.8241 6.87712 13.5195 6.97752 13.4047 7.22747L12.7324 8.68785L11.1336 8.87584C10.8602 8.90811 10.671 9.16693 10.7252 9.43819L11.039 11.0142L9.85774 12.1052C9.6546 12.2924 9.65485 12.6131 9.85774 12.8002L11.039 13.891L10.9923 14.125H12.2891C11.0132 11.7441 12.7464 8.82693 15.4699 8.82693C18.1906 8.82693 19.9287 11.7402 18.6479 14.125H19.9476L19.901 13.891L21.0822 12.8002C21.2853 12.6128 21.285 12.2922 21.0822 12.1052Z" fill="white"/>
<path id="Vector_2" d="M17.5108 14.1255C18.9502 12.3997 17.7124 9.77356 15.4685 9.77356C13.2117 9.77356 11.9957 12.4141 13.4242 14.1255H17.5108Z" fill="white"/>
<path id="Vector_3" d="M18.1085 16.0529H15.9414V15.0696H17.9511L18.1085 16.0529Z" fill="white"/>
<path id="Vector_4" d="M15.9414 17.9559H18.4132L18.26 16.9989H15.9414V17.9559Z" fill="white"/>
<path id="Vector_5" d="M11.7197 16.9989H8.43129L8.12493 17.9559H11.5664L11.7197 16.9989Z" fill="white"/>
<path id="Vector_6" d="M14.9953 20.7784V18.9026H12.3721L12.0717 20.7784H14.9953Z" fill="white"/>
<path id="Vector_7" d="M14.9956 15.0696V16.0529H12.8285L12.9859 15.0696H14.9956Z" fill="white"/>
<path id="Vector_8" d="M12.5228 17.9559H14.9946V16.9989H12.676L12.5228 17.9559Z" fill="white"/>
<path id="Vector_9" d="M18.5647 18.9026H15.9414V20.7784H18.865L18.5647 18.9026Z" fill="white"/>
<path id="Vector_10" d="M11.414 18.9026H7.82104L7.4181 20.1611C7.32016 20.4668 7.54917 20.7784 7.86859 20.7784H11.1137L11.414 18.9026Z" fill="white"/>
<path id="Vector_11" d="M23.1172 18.9026H19.5243L19.8246 20.7784H23.0697C23.3895 20.7784 23.6179 20.4664 23.5202 20.1611L23.1172 18.9026Z" fill="white"/>
<path id="Vector_12" d="M12.0283 15.0696L11.871 16.0529H8.73393L9.04892 15.0696H12.0283Z" fill="white"/>
<path id="Vector_13" d="M22.5061 16.9989H19.2177L19.371 17.9559H22.8124L22.5061 16.9989Z" fill="white"/>
<path id="Vector_14" d="M22.2055 16.0529H19.0686L18.9111 15.0696H21.8906L22.2055 16.0529Z" fill="white"/>
<path id="Vector_15" d="M17.3607 22.6683H13.5765C13.27 22.6683 13.0429 22.3797 13.1178 22.0805L13.2073 21.7222H17.73L17.8196 22.0805C17.8946 22.3803 17.6667 22.6683 17.3607 22.6683Z" fill="white"/>
</g>
</g>
<defs>
<linearGradient id="paint0_linear_0_114" x1="15.3623" y1="0" x2="15.3623" y2="30.7246" gradientUnits="userSpaceOnUse">
<stop stop-color="#584FFF"/>
<stop offset="1" stop-color="#4BD577"/>
</linearGradient>
<clipPath id="clip0_0_114">
<rect width="16.1464" height="16.1464" fill="white" transform="translate(7.39502 6.73047)"/>
</clipPath>
</defs>
</svg>
