<svg preserveAspectRatio="none" width="100%" height="100%" overflow="visible" style="display: block;" viewBox="0 0 41.8138 21.6499" fill="none" xmlns="http://www.w3.org/2000/svg">
<path id="Vector" d="M0.0141429 10.825L0.312611 10.8338L0.611078 10.8448L0.909546 10.8573L1.20801 10.8699L1.50648 10.8806L1.80495 10.8871L2.10342 10.8869L2.40188 10.8776L2.70035 10.8572L2.99882 10.825L3.29729 10.7814L3.59576 10.7291L3.89422 10.6726L4.19269 10.6187L4.49116 10.5758L4.78963 10.5534L5.08809 10.5609L5.38656 10.6062L5.68503 10.6941L5.9835 10.825L6.28196 10.993L6.58043 11.1857L6.8789 11.3841L7.17737 11.5633L7.36312 11.6451C7.43801 11.6781 7.51649 11.7023 7.59698 11.717L7.62892 11.7229C7.72514 11.7405 7.82366 11.7417 7.92026 11.7262C8.02113 11.7101 8.11832 11.6761 8.20729 11.626L8.24361 11.6055C8.32832 11.5577 8.40627 11.4988 8.4754 11.4304L8.58492 11.3221C8.64135 11.2662 8.69306 11.2058 8.73954 11.1415L8.96817 10.825L9.26664 10.3203L9.56511 9.76801L9.86358 9.22721L10.0987 8.86477C10.1408 8.7999 10.1892 8.73932 10.2431 8.68389L10.3797 8.54358C10.4327 8.48915 10.4988 8.44938 10.5718 8.42816C10.691 8.39348 10.8193 8.41085 10.925 8.47598L10.954 8.49385C11.022 8.5358 11.0794 8.59299 11.1216 8.66091L11.285 8.92396C11.3322 8.99997 11.3722 9.08021 11.4045 9.16364L11.6544 9.80866L11.9529 10.825L12.2513 12.0058L12.5498 13.2368L12.8483 14.3809L13.1146 15.1934C13.136 15.2587 13.1635 15.3217 13.1967 15.3818L13.3857 15.7231C13.4234 15.7911 13.4895 15.8387 13.5659 15.853C13.6728 15.873 13.7809 15.8245 13.837 15.7313L13.9937 15.4712C14.0258 15.4178 14.0507 15.3605 14.0676 15.3006L14.3406 14.3342L14.6391 12.7718L14.9375 10.825L15.236 8.67344L15.5345 6.53879L15.8329 4.66172L16.117 3.34159C16.1266 3.29697 16.1404 3.25336 16.1582 3.21136L16.3469 2.76744C16.3932 2.65852 16.5174 2.60575 16.6279 2.64804C16.6913 2.67228 16.7399 2.72439 16.7597 2.78926L17.0268 3.66429L17.3253 5.45728L17.6237 7.9207L17.9222 10.825L18.2207 13.8781L18.5191 16.7572L18.8176 19.1445L19.1073 20.7176C19.1131 20.7493 19.1228 20.7802 19.1362 20.8096L19.2302 21.0162C19.3128 21.198 19.5604 21.2239 19.6789 21.0632C19.7014 21.0328 19.717 20.9978 19.7246 20.9608L20.0115 19.571L20.3099 17.2192L20.6084 14.1992L20.9069 10.825L21.2053 7.45069L21.5038 4.43074L21.8023 2.0789L22.0891 0.689145C22.0968 0.652099 22.1124 0.617151 22.1348 0.586709C22.2534 0.426026 22.5009 0.451957 22.5836 0.633712L22.6776 0.840333C22.6909 0.869705 22.7006 0.900603 22.7065 0.932337L22.9962 2.50545L23.2946 4.89276L23.5931 7.7718L23.8916 10.825L24.19 13.7292L24.4885 16.1927L24.787 17.9856L25.054 18.8607C25.0738 18.9256 25.1225 18.9777 25.1858 19.0019C25.2964 19.0442 25.4206 18.9914 25.4668 18.8825L25.6555 18.4386C25.6734 18.3966 25.6872 18.353 25.6968 18.3083L25.9808 16.9882L26.2793 15.1112L26.5778 12.9765L26.8762 10.825L27.1747 8.87818L27.4732 7.31574L27.7461 6.34937C27.7631 6.28947 27.7879 6.2321 27.82 6.17879L27.9768 5.91863C28.0329 5.82548 28.141 5.77697 28.2479 5.79692C28.3243 5.81119 28.3904 5.85885 28.4281 5.92688L28.6171 6.26818C28.6503 6.32823 28.6778 6.39129 28.6992 6.45651L28.9655 7.26908L29.264 8.41311L29.5624 9.64418L29.8609 10.825L30.1594 11.8413L30.4093 12.4863C30.4416 12.5697 30.4816 12.65 30.5288 12.726L30.6922 12.989C30.7344 13.057 30.7917 13.1141 30.8598 13.1561L30.8888 13.174C30.9945 13.2391 31.1228 13.2565 31.242 13.2218C31.3149 13.2006 31.3811 13.1608 31.4341 13.1064L31.5706 12.966C31.6246 12.9106 31.6729 12.85 31.715 12.7852L31.9502 12.4227L32.2487 11.8819L32.5471 11.3297L32.8456 10.825L33.0742 10.5085C33.1207 10.4441 33.1724 10.3837 33.2288 10.3279L33.3384 10.2195C33.4075 10.1511 33.4854 10.0923 33.5701 10.0445L33.6065 10.024C33.6954 9.97379 33.7926 9.93984 33.8935 9.92371C33.9901 9.90826 34.0886 9.90939 34.1848 9.92705L34.2168 9.93291C34.2973 9.94768 34.3758 9.97181 34.4506 10.0048L34.6364 10.0867L34.9349 10.2659L35.2333 10.4642L35.5318 10.657L35.8303 10.825L36.1287 10.9558L36.4272 11.0438L36.7257 11.0891L37.0241 11.0966L37.3226 11.0742L37.6211 11.0313L37.9195 10.9773L38.218 10.9209L38.5165 10.8685L38.8149 10.825L39.1134 10.7927L39.4119 10.7723L39.7103 10.763L40.0088 10.7628L40.3073 10.7694L40.6057 10.7801L40.9042 10.7926L41.2027 10.8051L41.5011 10.8162L41.7996 10.825" stroke="var(--stroke-0, #3BC350)" stroke-width="0.960586"/>
</svg>
