<svg preserveAspectRatio="none" width="100%" height="100%" overflow="visible" style="display: block;" viewBox="0 0 15.3828 16.1464" fill="none" xmlns="http://www.w3.org/2000/svg">
<g id="Group">
<path id="Vector" d="M7.69204 5.04088C6.01937 5.04088 4.65859 6.40166 4.65859 8.07433C4.65859 9.747 6.01937 11.1078 7.69204 11.1078C9.36471 11.1078 10.7255 9.747 10.7255 8.07433C10.7255 6.40166 9.36468 5.04088 7.69204 5.04088ZM8.93235 7.57669L7.99069 8.42564C7.80954 8.58963 7.5314 8.58799 7.35114 8.42028L6.80714 7.91255C6.61603 7.73437 6.60563 7.43509 6.7838 7.24399C6.96198 7.05288 7.26126 7.04247 7.45237 7.22065L7.67943 7.43257L8.29879 6.87407C8.49305 6.69904 8.79202 6.7145 8.96704 6.90844C9.14172 7.10239 9.12627 7.40167 8.93235 7.57669Z" fill="white"/>
<path id="Vector_2" d="M14.9093 9.82504L14.5571 9.62195C13.391 8.9484 13.3919 7.19749 14.5571 6.52448L14.9093 6.32139C15.3609 6.06027 15.5164 5.48064 15.2556 5.02904L14.1099 3.04417C13.8491 2.59257 13.2691 2.43742 12.8172 2.6979L12.4669 2.90037C11.3102 3.56795 9.78284 2.70986 9.78284 1.35416V0.94608C9.78284 0.424474 9.35868 0 8.83676 0H6.54535C6.02343 0 5.59927 0.424474 5.59927 0.94608V1.35416C5.59927 2.71023 4.0717 3.56782 2.91524 2.90037L2.56488 2.6979C2.11101 2.43631 1.53337 2.5922 1.27222 3.04417L0.126517 5.02904C-0.134286 5.48064 0.0211867 6.06027 0.472782 6.32139L0.825039 6.52448C1.99263 7.19888 1.98787 8.95029 0.825039 9.62195L0.472782 9.82504C0.0211867 10.0862 -0.134286 10.6658 0.126517 11.1174L1.27222 13.1023C1.53334 13.5539 2.11297 13.7093 2.56456 13.4485L2.91524 13.2461C4.07192 12.5785 5.59927 13.4366 5.59927 14.7923V15.2003C5.59927 15.722 6.02343 16.1464 6.54535 16.1464H8.83676C9.35868 16.1464 9.78284 15.722 9.78284 15.2003V14.7923C9.78284 13.4362 11.3104 12.5786 12.4669 13.2461L12.8175 13.4485C13.2691 13.7093 13.8491 13.5539 14.1099 13.1023L15.2556 11.1174C15.5171 10.6648 15.3622 10.0867 14.9093 9.82504ZM7.69105 12.0527C5.49678 12.0527 3.71153 10.2675 3.71153 8.07321C3.71153 5.87894 5.49678 4.09369 7.69105 4.09369C9.88533 4.09369 11.6706 5.87894 11.6706 8.07321C11.6706 10.2675 9.88533 12.0527 7.69105 12.0527Z" fill="white"/>
</g>
</svg>
