<svg preserveAspectRatio="none" width="100%" height="100%" overflow="visible" style="display: block;" viewBox="0 0 16.9243 21.1244" fill="none" xmlns="http://www.w3.org/2000/svg">
<g id="Group">
<path id="Vector" d="M8.23493 21.0998C8.0739 21.0502 7.85079 20.8273 7.79711 20.6704C7.77642 20.6001 7.51213 19.0929 7.21896 17.3216C6.7029 14.2371 6.68221 14.0883 6.72338 13.8366C6.78115 13.502 6.9258 13.1924 7.13209 12.9611L7.28902 12.7794L7.45005 12.8909C7.80509 13.1345 7.99091 13.1922 8.4576 13.1922C8.9243 13.1922 9.11012 13.1345 9.46516 12.8909L9.62619 12.7794L9.78312 12.9611C9.98963 13.1924 10.1341 13.502 10.1918 13.8366C10.2414 14.1297 10.3033 13.7085 9.49405 18.5812C9.1347 20.7284 9.10172 20.8605 8.84993 21.0175C8.69322 21.1162 8.40414 21.1535 8.23493 21.0998Z" fill="white"/>
<path id="Vector_2" d="M8.14878 12.2798C7.35183 11.9867 7.4303 10.8263 8.26432 10.6034C8.78448 10.4671 9.32555 10.9006 9.32555 11.4581C9.32145 12.0776 8.73102 12.4945 8.14878 12.2798Z" fill="white"/>
<path id="Vector_3" d="M5.79314 11.8509C5.40081 11.7724 5.4049 11.7724 4.16626 10.7608C1.26755 8.39064 0.123761 7.42016 0.0575819 7.27983C0.00800182 7.17657 -0.00838123 7.06512 0.00390602 6.91229C0.0368876 6.54065 0.31777 6.27637 0.689405 6.27637C0.9123 6.27637 6.92874 8.52687 7.19302 8.7086C7.50689 8.9233 7.80006 9.34861 7.86192 9.68317C7.88671 9.79893 7.87421 9.81121 7.70499 9.88149C7.4614 9.98065 7.10615 10.3027 6.94103 10.5793C6.78 10.8517 6.66855 11.3348 6.70563 11.6075L6.73451 11.8015L6.46613 11.847C6.17318 11.8964 6.04104 11.9005 5.79314 11.8509Z" fill="white"/>
<path id="Vector_4" d="M10.4086 11.8428L10.1855 11.8014L10.2144 11.6238C10.2474 11.3843 10.173 10.9753 10.0368 10.6947C9.90053 10.4056 9.53299 10.0381 9.25211 9.90592C9.04969 9.81517 9.03741 9.79857 9.0581 9.68281C9.09108 9.5095 9.2603 9.17494 9.40904 8.98912C9.69812 8.64228 9.55347 8.70415 13.7035 7.15574C15.8715 6.3465 16.0944 6.27213 16.2884 6.28442C16.6559 6.31331 16.9243 6.60648 16.9243 6.97402C16.9243 7.31267 16.8995 7.34156 14.7193 9.13765C11.7382 11.5949 11.6018 11.7022 11.3707 11.785C11.1105 11.8717 10.6852 11.9006 10.4086 11.8428Z" fill="white"/>
<path id="Vector_5" d="M7.88648 8.78301C7.80801 8.75412 7.71295 8.68794 7.67177 8.63017C7.62629 8.56421 7.27944 7.09405 6.70561 4.5008C5.72284 0.0782499 5.75173 0.272475 6.02011 0.0948489L6.16454 0L8.5142 0.00819108L10.8639 0.0204787L10.9835 0.156717C11.0495 0.231087 11.1031 0.338438 11.1031 0.396209C11.1031 0.615009 9.32344 8.52692 9.24907 8.63017C9.14172 8.78301 8.94749 8.83259 8.46031 8.83259C8.22103 8.83259 7.96494 8.81189 7.88648 8.78301Z" fill="white"/>
</g>
</svg>
