<svg preserveAspectRatio="none" width="100%" height="100%" overflow="visible" style="display: block;" viewBox="0 0 22.5004 21" fill="none" xmlns="http://www.w3.org/2000/svg">
<g id="Group">
<path id="Vector" d="M2.49914 0.19192C2.80736 -0.0847958 3.28155 -0.0592545 3.55826 0.248969C3.83497 0.557189 3.80944 1.03138 3.50123 1.30809C2.64305 2.07853 1.91742 3.02194 1.42986 4.06706C1.25475 4.44244 0.808485 4.60481 0.43311 4.42969C0.0577311 4.25456 -0.104614 3.80831 0.0704961 3.43294C0.651195 2.18814 1.50484 1.08459 2.49914 0.19192Z" fill="#5B5B5B"/>
<path id="Vector_2" d="M20.0012 0.19192C19.693 -0.0847958 19.2188 -0.0592545 18.9421 0.248969C18.6654 0.557189 18.6909 1.03138 18.9991 1.30809C19.8573 2.07853 20.5829 3.02194 21.0705 4.06706C21.2456 4.44244 21.6919 4.60481 22.0673 4.42969C22.4426 4.25456 22.605 3.80831 22.4299 3.43294C21.8492 2.18814 20.9955 1.08459 20.0012 0.19192Z" fill="#5B5B5B"/>
<path id="Vector_3" d="M17.3156 1.26795C16.9803 1.02471 16.5114 1.0993 16.2681 1.43457C16.0249 1.76984 16.0995 2.23882 16.4348 2.48205C17.7215 3.41561 18.8557 4.90399 19.5536 6.65295C19.7071 7.03766 20.1434 7.22512 20.5281 7.0716C20.9129 6.91811 21.1003 6.4818 20.9468 6.09705C20.1573 4.1184 18.8597 2.38819 17.3156 1.26795Z" fill="#5B5B5B"/>
<path id="Vector_4" d="M3.28144 10.2187C3.28144 6.07065 6.45086 2.66284 10.5002 2.28484V1.87501C10.5002 1.46079 10.836 1.12501 11.2502 1.12501C11.6644 1.12501 12.0002 1.46079 12.0002 1.87501V2.28484C16.0495 2.66284 19.2189 6.07065 19.2189 10.2187V15.9576L19.6612 17.25H19.8752C20.2894 17.25 20.6252 17.5858 20.6252 18C20.6252 18.4142 20.2894 18.75 19.8752 18.75H2.62518C2.21097 18.75 1.87518 18.4142 1.87518 18C1.87518 17.5858 2.21097 17.25 2.62518 17.25H18.0758L17.7593 16.3252C17.7326 16.2471 17.7189 16.165 17.7189 16.0824V10.2187C17.7189 6.64616 14.8228 3.75 11.2502 3.75C7.6776 3.75 4.78144 6.64616 4.78144 10.2187V14.25C4.78144 14.6642 4.44562 15 4.03144 15C3.61721 15 3.28144 14.6642 3.28144 14.25V10.2187Z" fill="#5B5B5B"/>
<path id="Vector_5" d="M5.18475 1.26795C5.52 1.02471 5.98897 1.0993 6.23224 1.43457C6.4755 1.76984 6.40087 2.23882 6.06562 2.48205C4.77885 3.41561 3.64462 4.90399 2.94678 6.65295C2.79327 7.03766 2.35696 7.22512 1.97223 7.0716C1.58752 6.91811 1.40008 6.4818 1.55358 6.09705C2.34306 4.1184 3.64069 2.38819 5.18475 1.26795Z" fill="#5B5B5B"/>
<path id="Vector_6" d="M9.37519 20.25C9.37519 19.8358 9.71096 19.5 10.1252 19.5H12.3752C12.7894 19.5 13.1252 19.8358 13.1252 20.25C13.1252 20.6642 12.7894 21 12.3752 21H10.1252C9.71096 21 9.37519 20.6642 9.37519 20.25Z" fill="#5B5B5B"/>
</g>
</svg>
