<svg width="15" height="15" viewBox="0 0 15 15" fill="none" xmlns="http://www.w3.org/2000/svg">
<g clip-path="url(#clip0_858_5908)">
<path d="M10.5423 0.0352782C10.6881 0.0965142 10.7931 0.227734 10.8222 0.382282L11.4025 3.52865L14.5489 4.10602C14.7034 4.13518 14.8347 4.24015 14.8959 4.38595C14.9571 4.53175 14.9396 4.69796 14.8492 4.82918L13.0326 7.46525L14.8492 10.0984C14.9396 10.2296 14.9571 10.3958 14.8959 10.5416C14.8347 10.6874 14.7034 10.7924 14.5489 10.8216L11.4025 11.4019L10.8222 14.5482C10.7931 14.7028 10.6881 14.834 10.5423 14.8952C10.3965 14.9565 10.2303 14.939 10.0991 14.8486L7.46592 13.0319L4.83277 14.8486C4.70155 14.939 4.53534 14.9565 4.38954 14.8952C4.24374 14.834 4.13876 14.7028 4.1096 14.5482L3.52932 11.4019L0.382954 10.8216C0.228406 10.7924 0.0971856 10.6874 0.0359496 10.5416C-0.0252865 10.3958 -0.00779045 10.2296 0.0826056 10.0984L1.89927 7.46525L0.0826056 4.8321C-0.00779045 4.70088 -0.0252865 4.53467 0.0359496 4.38887C0.0971856 4.24307 0.228406 4.13809 0.382954 4.10893L3.52932 3.52865L4.1096 0.382282C4.13876 0.227734 4.24374 0.0965142 4.38954 0.0352782C4.53534 -0.0259578 4.70155 -0.00846183 4.83277 0.0819342L7.46592 1.8986L10.0991 0.0819342C10.2303 -0.00846183 10.3965 -0.0259578 10.5423 0.0352782ZM4.66656 7.46525C4.66656 6.72281 4.96149 6.01078 5.48647 5.4858C6.01146 4.96082 6.72348 4.66589 7.46592 4.66589C8.20836 4.66589 8.92039 4.96082 9.44537 5.4858C9.97035 6.01078 10.2653 6.72281 10.2653 7.46525C10.2653 8.20769 9.97035 8.91972 9.44537 9.4447C8.92039 9.96968 8.20836 10.2646 7.46592 10.2646C6.72348 10.2646 6.01146 9.96968 5.48647 9.4447C4.96149 8.91972 4.66656 8.20769 4.66656 7.46525ZM11.1984 7.46525C11.1984 6.47533 10.8052 5.52596 10.1052 4.82599C9.40521 4.12601 8.45584 3.73277 7.46592 3.73277C6.47601 3.73277 5.52663 4.12601 4.82666 4.82599C4.12668 5.52596 3.73344 6.47533 3.73344 7.46525C3.73344 8.45517 4.12668 9.40454 4.82666 10.1045C5.52663 10.8045 6.47601 11.1977 7.46592 11.1977C8.45584 11.1977 9.40521 10.8045 10.1052 10.1045C10.8052 9.40454 11.1984 8.45517 11.1984 7.46525Z" fill="white"/>
</g>
<defs>
<clipPath id="clip0_858_5908">
<path d="M0 0H14.9299V14.9299H0V0Z" fill="white"/>
</clipPath>
</defs>
</svg>
