<svg width="16" height="16" viewBox="0 0 16 16" fill="none" xmlns="http://www.w3.org/2000/svg">
<g clip-path="url(#clip0_858_6369)">
<path d="M7.61447 0.174552C7.49826 0.210332 7.33725 0.371188 7.29852 0.484439C7.28358 0.535154 7.09286 1.62287 6.88129 2.90115C6.50886 5.12714 6.49393 5.23448 6.52364 5.41618C6.56533 5.65762 6.66972 5.88101 6.8186 6.04794L6.93185 6.17908L7.04805 6.09865C7.30427 5.92286 7.43837 5.88117 7.77517 5.88117C8.11197 5.88117 8.24607 5.92286 8.50228 6.09865L8.61849 6.17908L8.73174 6.04794C8.88077 5.88101 8.985 5.65762 9.02669 5.41618C9.06247 5.20461 9.10712 5.50859 8.52313 1.99218C8.2638 0.442592 8.24 0.34723 8.0583 0.233979C7.9452 0.162729 7.73659 0.135816 7.61447 0.174552Z" fill="white"/>
<path d="M7.55237 6.54013C6.97724 6.7517 7.03387 7.58911 7.63575 7.74996C8.01113 7.84828 8.4016 7.53544 8.4016 7.13315C8.39865 6.68605 7.97255 6.38519 7.55237 6.54013Z" fill="white"/>
<path d="M5.85238 6.84969C5.56925 6.90632 5.57221 6.90632 4.67833 7.63639C2.58644 9.34683 1.76101 10.0472 1.71325 10.1485C1.67747 10.223 1.66564 10.3034 1.67451 10.4137C1.69831 10.6819 1.90101 10.8726 2.16921 10.8726C2.33006 10.8726 6.6719 9.24851 6.86263 9.11737C7.08913 8.96243 7.3007 8.6555 7.34535 8.41406C7.36324 8.33052 7.35421 8.32165 7.23209 8.27094C7.0563 8.19938 6.79993 7.96696 6.68077 7.76737C6.56456 7.57074 6.48413 7.22211 6.51089 7.02532L6.53174 6.88531L6.33806 6.85249C6.12664 6.81687 6.03128 6.81391 5.85238 6.84969Z" fill="white"/>
<path d="M9.18314 6.85498L9.02213 6.88485L9.04297 7.01304C9.06677 7.18587 9.0131 7.48098 8.91479 7.68353C8.81647 7.89214 8.55123 8.15738 8.34853 8.25274C8.20245 8.31823 8.19358 8.33021 8.20852 8.41375C8.23232 8.53883 8.35444 8.78026 8.46178 8.91436C8.67039 9.16467 8.56601 9.12002 11.561 10.2374C13.1255 10.8214 13.2863 10.8751 13.4263 10.8662C13.6916 10.8454 13.8853 10.6338 13.8853 10.3686C13.8853 10.1242 13.8674 10.1034 12.294 8.80718C10.1427 7.03388 10.0442 6.95641 9.87743 6.89668C9.68966 6.83414 9.38273 6.81329 9.18314 6.85498Z" fill="white"/>
<path d="M7.36309 9.06367C7.30647 9.08452 7.23786 9.13227 7.20815 9.17397C7.17532 9.22157 6.92502 10.2825 6.5109 12.154C5.80168 15.3456 5.82252 15.2054 6.0162 15.3336L6.12043 15.402L7.8161 15.3961L9.51176 15.3873L9.5981 15.2889C9.64571 15.2353 9.68444 15.1578 9.68444 15.1161C9.68444 14.9582 8.40009 9.24848 8.34642 9.17397C8.26895 9.06367 8.12878 9.02789 7.77721 9.02789C7.60453 9.02789 7.41972 9.04282 7.36309 9.06367Z" fill="white"/>
</g>
<defs>
<clipPath id="clip0_858_6369">
<rect width="15.5566" height="15.5566" fill="white"/>
</clipPath>
</defs>
</svg>
