<svg width="500" height="500" viewBox="0 0 500 500" fill="none" xmlns="http://www.w3.org/2000/svg">
<path d="M356.03 401.21H311V401.46H356.03V401.21Z" fill="#EBEBEB"/>
<path d="M244.14 395.11H169.67V395.36H244.14V395.11Z" fill="#EBEBEB"/>
<path d="M237 337.8H43.91C42.3973 337.797 40.9475 337.195 39.8788 336.124C38.8102 335.054 38.21 333.603 38.21 332.09V60.66C38.2231 59.156 38.8292 57.718 39.8964 56.6582C40.9637 55.5985 42.4059 55.0026 43.91 55H237C238.514 55 239.967 55.6016 241.038 56.6724C242.108 57.7433 242.71 59.1956 242.71 60.71V332.09C242.71 333.604 242.108 335.057 241.038 336.128C239.967 337.198 238.514 337.8 237 337.8ZM43.91 55.2C42.4636 55.2026 41.0774 55.7791 40.0556 56.8027C39.0338 57.8264 38.46 59.2136 38.46 60.66V332.09C38.46 333.536 39.0338 334.924 40.0556 335.947C41.0774 336.971 42.4636 337.547 43.91 337.55H237C238.446 337.545 239.832 336.968 240.855 335.945C241.878 334.922 242.455 333.536 242.46 332.09V60.66C242.455 59.2135 241.878 57.8278 240.855 56.805C239.832 55.7822 238.446 55.2053 237 55.2H43.91Z" fill="#EBEBEB"/>
<path d="M453.31 337.8H260.21C258.697 337.795 257.248 337.191 256.178 336.122C255.109 335.052 254.505 333.603 254.5 332.09V60.66C254.516 59.1551 255.124 57.7171 256.193 56.6576C257.262 55.5981 258.705 55.0025 260.21 55H453.31C454.812 55.0052 456.252 55.6022 457.317 56.6617C458.382 57.7212 458.987 59.1578 459 60.66V332.09C459.001 332.839 458.855 333.58 458.57 334.272C458.285 334.964 457.866 335.593 457.338 336.123C456.809 336.654 456.182 337.075 455.491 337.362C454.799 337.65 454.059 337.799 453.31 337.8ZM260.21 55.2C258.764 55.2053 257.378 55.7822 256.355 56.805C255.332 57.8278 254.755 59.2135 254.75 60.66V332.09C254.755 333.536 255.332 334.922 256.355 335.945C257.378 336.968 258.764 337.545 260.21 337.55H453.31C454.756 337.545 456.142 336.968 457.165 335.945C458.188 334.922 458.765 333.536 458.77 332.09V60.66C458.765 59.2135 458.188 57.8278 457.165 56.805C456.142 55.7822 454.756 55.2053 453.31 55.2H260.21Z" fill="#EBEBEB"/>
<path d="M436.69 170.34C436.97 163.85 433.04 158.84 426.69 157.79C424.74 154.92 421.37 153.14 417.08 153.14C410.38 153.14 403.46 157.47 399.73 163.49C397.123 163.872 394.62 164.777 392.372 166.152C390.124 167.527 388.178 169.343 386.65 171.49C385.972 171.269 385.263 171.161 384.55 171.17C382.378 171.299 380.296 172.089 378.585 173.432C376.873 174.776 375.612 176.61 374.97 178.69C374.678 179.682 374.603 180.726 374.75 181.75H439.93C440.571 180.814 441.057 179.781 441.37 178.69C442.51 174.51 440.48 171.08 436.69 170.34Z" fill="#F5F5F5"/>
<path d="M100.35 91.59C100.594 89.009 99.8269 86.434 98.2094 84.408C96.5919 82.3819 94.2508 81.0632 91.6798 80.73C90.7373 79.424 89.4836 78.374 88.0324 77.6755C86.5812 76.9769 84.9785 76.652 83.3698 76.73C77.5698 76.73 71.5898 80.48 68.3698 85.73C66.1093 86.0717 63.9416 86.8681 61.9977 88.0713C60.0537 89.2744 58.3739 90.8593 57.0598 92.73C56.4717 92.5415 55.8574 92.447 55.2398 92.45C53.3596 92.5545 51.556 93.2299 50.0695 94.3858C48.583 95.5418 47.4843 97.1235 46.9198 98.92C46.6675 99.7761 46.6027 100.677 46.7298 101.56H103.12C103.677 100.754 104.1 99.8622 104.37 98.92C105.42 95.2 103.66 92.19 100.35 91.59Z" fill="#F5F5F5"/>
<path d="M382 228.88L381.84 327.11C381.84 327.11 386.71 328.47 390.62 327.11L386.23 226.7L382 228.88Z" fill="#E0E0E0"/>
<path d="M390.66 225.24C390.659 224.666 390.545 224.098 390.324 223.568C390.103 223.039 389.78 222.558 389.373 222.153C388.967 221.748 388.484 221.427 387.953 221.209C387.423 220.99 386.854 220.879 386.28 220.88H376.11L376.46 229.6C376.46 229.6 381.36 229.42 384.77 229.32C385.805 229.71 386.951 229.689 387.97 229.26C388.767 228.933 389.448 228.375 389.927 227.66C390.406 226.944 390.662 226.101 390.66 225.24Z" fill="#E0E0E0"/>
<path d="M400.09 176.19L375.77 208.59L376.28 220.87H375.67C374.548 221.035 373.525 221.601 372.789 222.463C372.053 223.326 371.656 224.426 371.67 225.56L322.2 229.31L362.42 234.13L372.42 227.75C372.984 228.461 373.734 229.002 374.586 229.313C375.439 229.623 376.361 229.692 377.25 229.51C377.864 229.391 378.452 229.167 378.99 228.85L407.47 270L391.29 232.86L380.6 227.37C381.191 226.489 381.42 225.415 381.24 224.37C381.093 223.637 380.756 222.956 380.263 222.395C379.769 221.833 379.138 221.411 378.43 221.17L400.09 176.19Z" fill="#E0E0E0"/>
<path opacity="0.2" d="M400.09 176.19L375.77 208.59L376.28 220.87H375.67C374.548 221.035 373.525 221.601 372.789 222.463C372.053 223.326 371.656 224.426 371.67 225.56L322.2 229.31L362.42 234.13L372.42 227.75C372.984 228.461 373.734 229.002 374.586 229.313C375.439 229.623 376.361 229.692 377.25 229.51C377.864 229.391 378.452 229.167 378.99 228.85L407.47 270L391.29 232.86L380.6 227.37C381.191 226.489 381.42 225.415 381.24 224.37C381.093 223.637 380.756 222.956 380.263 222.395C379.769 221.833 379.138 221.411 378.43 221.17L400.09 176.19Z" fill="white"/>
<path opacity="0.2" d="M375.8 227.22C375.441 227.149 375.109 226.976 374.845 226.721C374.582 226.466 374.398 226.14 374.315 225.783C374.233 225.426 374.255 225.052 374.381 224.707C374.506 224.363 374.728 224.062 375.02 223.84C375.313 223.619 375.663 223.487 376.028 223.461C376.394 223.434 376.76 223.514 377.081 223.69C377.403 223.867 377.666 224.132 377.84 224.455C378.014 224.778 378.09 225.144 378.06 225.51C377.988 226.035 377.711 226.51 377.289 226.83C376.867 227.151 376.335 227.291 375.81 227.22H375.8Z" fill="white"/>
<path d="M366.25 215.11C363.084 215.111 359.991 214.152 357.38 212.36C355.604 211.011 353.981 209.472 352.54 207.77C351.078 206.011 349.398 204.445 347.54 203.11C345.535 201.841 343.232 201.121 340.861 201.021C338.491 200.921 336.135 201.445 334.03 202.54C331.924 203.843 329.992 205.409 328.28 207.2C327.6 207.86 326.92 208.51 326.28 209.14C322.84 212.23 319.69 213.65 316.65 213.47C314.986 213.351 313.39 212.758 312.05 211.763C310.711 210.767 309.684 209.41 309.09 207.85C309.063 207.778 309.05 207.702 309.053 207.626C309.055 207.549 309.072 207.474 309.104 207.404C309.136 207.334 309.181 207.272 309.237 207.22C309.293 207.167 309.358 207.127 309.43 207.1C309.573 207.048 309.731 207.055 309.87 207.118C310.008 207.182 310.116 207.298 310.17 207.44C310.685 208.792 311.575 209.969 312.735 210.833C313.895 211.698 315.277 212.213 316.72 212.32C319.44 212.48 322.31 211.15 325.51 208.32C326.19 207.7 326.86 207.06 327.51 206.41C329.289 204.541 331.307 202.913 333.51 201.57C335.795 200.374 338.354 199.799 340.931 199.904C343.507 200.01 346.011 200.791 348.19 202.17C350.121 203.557 351.871 205.179 353.4 207C354.778 208.641 356.335 210.123 358.04 211.42C359.888 212.687 362.005 213.508 364.225 213.819C366.444 214.129 368.705 213.921 370.83 213.21C370.902 213.186 370.979 213.176 371.055 213.181C371.131 213.186 371.205 213.206 371.273 213.24C371.342 213.274 371.402 213.321 371.453 213.379C371.503 213.436 371.541 213.503 371.565 213.575C371.589 213.647 371.599 213.724 371.594 213.8C371.589 213.876 371.569 213.95 371.535 214.018C371.501 214.086 371.454 214.147 371.397 214.197C371.339 214.247 371.272 214.286 371.2 214.31C369.604 214.843 367.933 215.113 366.25 215.11Z" fill="#E6E6E6"/>
<path d="M366.25 223.42C363.083 223.421 359.991 222.462 357.38 220.67C355.606 219.319 353.984 217.78 352.54 216.08C351.078 214.318 349.397 212.749 347.54 211.41C345.536 210.143 343.234 209.424 340.865 209.326C338.496 209.227 336.142 209.753 334.04 210.85C331.934 212.153 330.001 213.719 328.29 215.51C327.61 216.17 326.93 216.82 326.29 217.45C322.85 220.54 319.7 221.95 316.66 221.78C314.995 221.661 313.4 221.068 312.06 220.073C310.721 219.077 309.694 217.72 309.1 216.16C309.073 216.088 309.06 216.012 309.062 215.936C309.065 215.859 309.082 215.784 309.114 215.714C309.145 215.644 309.19 215.582 309.246 215.529C309.302 215.477 309.368 215.437 309.44 215.41C309.583 215.358 309.741 215.365 309.88 215.428C310.018 215.492 310.126 215.607 310.18 215.75C310.695 217.102 311.585 218.279 312.745 219.143C313.905 220.008 315.287 220.523 316.73 220.63C319.45 220.79 322.32 219.46 325.52 216.63C326.2 216.01 326.87 215.37 327.52 214.72C329.299 212.85 331.316 211.223 333.52 209.88C335.804 208.682 338.362 208.106 340.939 208.209C343.516 208.313 346.02 209.093 348.2 210.47C350.147 211.867 351.911 213.503 353.45 215.34C354.833 216.976 356.389 218.458 358.09 219.76C359.939 221.025 362.056 221.845 364.275 222.155C366.494 222.466 368.754 222.259 370.88 221.55C370.952 221.526 371.028 221.516 371.104 221.521C371.181 221.526 371.255 221.546 371.323 221.58C371.391 221.614 371.452 221.661 371.502 221.719C371.552 221.776 371.591 221.843 371.615 221.915C371.639 221.987 371.649 222.064 371.644 222.14C371.639 222.216 371.619 222.29 371.585 222.358C371.551 222.426 371.504 222.487 371.446 222.537C371.389 222.587 371.322 222.626 371.25 222.65C369.636 223.178 367.947 223.438 366.25 223.42Z" fill="#E6E6E6"/>
<path d="M366.25 231.73C363.084 231.731 359.991 230.772 357.38 228.98C355.606 227.629 353.984 226.09 352.54 224.39C351.078 222.628 349.398 221.059 347.54 219.72C345.536 218.453 343.234 217.734 340.865 217.636C338.496 217.538 336.142 218.063 334.04 219.16C331.931 220.455 330.001 222.021 328.3 223.82C327.62 224.47 326.94 225.13 326.24 225.76C322.8 228.85 319.65 230.27 316.61 230.09C314.944 229.971 313.347 229.378 312.007 228.38C310.668 227.382 309.641 226.022 309.05 224.46C309.023 224.389 309.01 224.312 309.012 224.236C309.015 224.159 309.032 224.084 309.064 224.014C309.096 223.945 309.141 223.882 309.197 223.83C309.253 223.777 309.318 223.737 309.39 223.71C309.533 223.658 309.691 223.665 309.83 223.728C309.968 223.792 310.076 223.908 310.13 224.05C310.643 225.404 311.531 226.584 312.692 227.451C313.852 228.317 315.236 228.834 316.68 228.94C319.4 229.09 322.27 227.77 325.47 224.94C326.15 224.32 326.83 223.67 327.47 223.03C329.244 221.152 331.262 219.52 333.47 218.18C335.756 216.987 338.314 216.414 340.89 216.519C343.466 216.624 345.97 217.404 348.15 218.78C350.097 220.177 351.861 221.813 353.4 223.65C354.775 225.259 356.317 226.717 358 228C359.848 229.267 361.965 230.088 364.185 230.399C366.404 230.709 368.665 230.501 370.79 229.79C370.936 229.741 371.095 229.752 371.233 229.82C371.371 229.889 371.476 230.009 371.525 230.155C371.574 230.301 371.563 230.46 371.495 230.598C371.426 230.736 371.306 230.841 371.16 230.89C369.579 231.432 367.921 231.716 366.25 231.73Z" fill="#E6E6E6"/>
<path d="M296.66 372.7H464.81C464.81 372.7 448.65 318.16 384.81 318.2C343.1 318.23 316.28 335.76 296.66 372.7Z" fill="#EBEBEB"/>
<path d="M366.7 306.77L363.3 324.3H370.49L366.7 306.77Z" fill="#E0E0E0"/>
<path d="M385.54 321.85L382.14 339.37H389.33L385.54 321.85Z" fill="#E0E0E0"/>
<path d="M348.25 340.28L344.84 357.8H352.04L348.25 340.28Z" fill="#E0E0E0"/>
<path d="M428.54 342.44L425.14 359.96H432.33L428.54 342.44Z" fill="#E0E0E0"/>
<path d="M406.69 306.95L403.29 324.47H410.48L406.69 306.95Z" fill="#E0E0E0"/>
<path d="M261.66 169.7L261.36 403.46C261.36 403.46 272.97 406.74 282.29 403.46L271.82 164.46L261.66 169.7Z" fill="#E0E0E0"/>
<path opacity="0.2" d="M282.29 403.46C272.97 406.73 261.36 403.46 261.36 403.46V365L261.66 169.7L271.82 164.45L280.6 365L280.77 368.81L281.15 377.49L281.62 388.21L282.29 403.46Z" fill="black"/>
<path d="M271.82 170.2C277.597 170.2 282.28 165.015 282.28 158.62C282.28 152.225 277.597 147.04 271.82 147.04C266.043 147.04 261.36 152.225 261.36 158.62C261.36 165.015 266.043 170.2 271.82 170.2Z" fill="#E0E0E0"/>
<path d="M271.82 170.21C272.26 169.98 248.44 170.21 248.44 170.21V147H271.82V170.21Z" fill="#E0E0E0"/>
<path opacity="0.1" d="M271.82 147H248.44V170.17C248.44 170.17 266.02 169.96 270.69 170.05C271.064 170.102 271.442 170.129 271.82 170.13C277.6 170.13 282.29 164.94 282.29 158.54C282.29 152.14 277.6 147 271.82 147Z" fill="black"/>
<path d="M248.44 147C254.22 147 258.9 152.18 258.9 158.58C258.9 164.98 254.22 170.17 248.44 170.17C242.66 170.17 238 165 238 158.62C238 152.24 242.66 147 248.44 147Z" fill="#E0E0E0"/>
<path d="M243.72 154.45L205.38 165.92L115.61 128.55L243.72 154.45Z" fill="#E0E0E0"/>
<path d="M251.15 151.96L260.53 112.62L338.69 53L251.15 151.96Z" fill="#E0E0E0"/>
<path d="M254.21 162.59L283.54 189.9L296.72 286.44L254.21 162.59Z" fill="#E0E0E0"/>
<path opacity="0.3" d="M281.62 388.24H261.39V377.47C266.34 377.54 274.88 377.61 281.13 377.47L281.62 388.24Z" fill="white"/>
<path opacity="0.3" d="M280.77 368.84H261.42L261.43 365.03H280.6L280.77 368.84Z" fill="white"/>
<path opacity="0.2" d="M253.22 158C253.46 161 251.5 163.58 248.85 163.79C248.178 163.806 247.51 163.689 246.883 163.446C246.256 163.204 245.683 162.84 245.198 162.375C244.712 161.911 244.322 161.355 244.052 160.74C243.781 160.125 243.634 159.462 243.62 158.79C243.39 155.79 245.34 153.21 247.99 152.99C248.663 152.974 249.332 153.091 249.959 153.335C250.587 153.578 251.16 153.943 251.646 154.408C252.132 154.874 252.521 155.431 252.791 156.047C253.061 156.664 253.207 157.327 253.22 158Z" fill="white"/>
<path d="M173.76 360C232.03 360 255.27 402.93 255.27 402.93C255.27 402.93 365.58 365.18 408.27 442H58.5298C58.5298 442 87.1598 360 173.76 360Z" fill="#E0E0E0"/>
<path d="M218.2 155.78C213.845 155.778 209.593 154.46 206 152C203.51 150.117 201.239 147.96 199.23 145.57C197.178 143.101 194.827 140.898 192.23 139.01C189.386 137.205 186.117 136.181 182.752 136.041C179.387 135.9 176.044 136.648 173.06 138.21C170.059 140.017 167.32 142.228 164.92 144.78C164 145.68 163.05 146.6 162.08 147.48C157.37 151.74 153.03 153.7 148.83 153.48C146.56 153.315 144.384 152.504 142.559 151.143C140.734 149.783 139.336 147.929 138.53 145.8C138.506 145.738 138.494 145.672 138.496 145.606C138.497 145.54 138.512 145.475 138.539 145.414C138.566 145.354 138.605 145.299 138.653 145.254C138.701 145.209 138.758 145.173 138.82 145.15C138.946 145.101 139.086 145.104 139.21 145.158C139.334 145.213 139.431 145.314 139.48 145.44C140.222 147.382 141.502 149.072 143.171 150.312C144.839 151.551 146.827 152.29 148.9 152.44C152.8 152.64 156.9 150.78 161.4 146.72C162.4 145.85 163.3 144.93 164.22 144.05C166.679 141.425 169.493 139.157 172.58 137.31C175.724 135.665 179.245 134.875 182.791 135.021C186.337 135.166 189.781 136.242 192.78 138.14C195.46 140.079 197.888 142.343 200.01 144.88C201.974 147.208 204.187 149.314 206.61 151.16C209.235 152.953 212.239 154.115 215.387 154.556C218.536 154.997 221.743 154.704 224.76 153.7C224.887 153.659 225.026 153.669 225.145 153.729C225.265 153.789 225.357 153.893 225.4 154.02C225.422 154.083 225.431 154.15 225.426 154.216C225.422 154.283 225.404 154.348 225.375 154.407C225.345 154.467 225.303 154.52 225.253 154.563C225.202 154.607 225.143 154.64 225.08 154.66C222.864 155.41 220.539 155.788 218.2 155.78Z" fill="#E6E6E6"/>
<path d="M218.17 167.38C213.817 167.383 209.565 166.073 205.97 163.62C203.484 161.735 201.214 159.582 199.2 157.2C197.151 154.726 194.799 152.518 192.2 150.63C189.354 148.83 186.086 147.809 182.722 147.668C179.357 147.528 176.015 148.273 173.03 149.83C170.034 151.644 167.298 153.858 164.9 156.41C163.98 157.3 163.02 158.23 162.05 159.11C157.34 163.37 153 165.33 148.8 165.11C146.53 164.937 144.357 164.122 142.533 162.76C140.709 161.399 139.31 159.547 138.5 157.42C138.476 157.358 138.464 157.292 138.465 157.226C138.467 157.16 138.482 157.095 138.509 157.034C138.536 156.974 138.574 156.919 138.623 156.874C138.671 156.829 138.728 156.793 138.79 156.77C138.916 156.721 139.056 156.724 139.18 156.778C139.303 156.833 139.4 156.934 139.45 157.06C140.193 159.001 141.473 160.69 143.141 161.93C144.81 163.17 146.797 163.909 148.87 164.06C152.77 164.27 156.87 162.4 161.37 158.34C162.37 157.47 163.28 156.55 164.2 155.66C166.658 153.038 169.468 150.77 172.55 148.92C175.694 147.275 179.215 146.485 182.761 146.631C186.306 146.776 189.751 147.852 192.75 149.75C195.435 151.686 197.867 153.95 199.99 156.49C201.945 158.823 204.155 160.929 206.58 162.77C209.207 164.559 212.212 165.716 215.36 166.152C218.509 166.587 221.715 166.289 224.73 165.28C224.857 165.239 224.995 165.249 225.115 165.309C225.235 165.369 225.326 165.473 225.37 165.6C225.391 165.663 225.4 165.73 225.396 165.796C225.392 165.863 225.374 165.928 225.344 165.987C225.315 166.047 225.273 166.1 225.223 166.143C225.172 166.187 225.113 166.22 225.05 166.24C222.835 166.998 220.51 167.383 218.17 167.38Z" fill="#E6E6E6"/>
<path d="M218.24 179C213.869 179 209.602 177.675 206 175.2C203.514 173.315 201.244 171.162 199.23 168.78C197.181 166.306 194.829 164.098 192.23 162.21C189.386 160.405 186.117 159.381 182.752 159.241C179.387 159.1 176.044 159.848 173.06 161.41C170.064 163.224 167.329 165.438 164.93 167.99C164.01 168.88 163.05 169.81 162.08 170.69C157.36 174.95 153.08 176.9 148.83 176.69C146.559 176.526 144.383 175.716 142.558 174.355C140.733 172.994 139.335 171.139 138.53 169.01C138.506 168.948 138.494 168.882 138.496 168.816C138.497 168.75 138.512 168.685 138.539 168.624C138.566 168.564 138.605 168.509 138.653 168.464C138.701 168.419 138.758 168.383 138.82 168.36C138.946 168.311 139.086 168.314 139.21 168.368C139.334 168.423 139.431 168.524 139.48 168.65C140.22 170.593 141.5 172.284 143.168 173.525C144.837 174.765 146.826 175.502 148.9 175.65C152.8 175.87 156.9 174 161.4 169.94C162.4 169.07 163.31 168.15 164.23 167.26C166.688 164.638 169.498 162.37 172.58 160.52C175.724 158.875 179.245 158.085 182.791 158.231C186.337 158.376 189.781 159.452 192.78 161.35C195.465 163.286 197.897 165.55 200.02 168.09C201.975 170.423 204.186 172.529 206.61 174.37C209.219 176.171 212.209 177.345 215.347 177.801C218.485 178.258 221.686 177.983 224.7 177C224.827 176.959 224.966 176.969 225.085 177.029C225.205 177.089 225.297 177.193 225.34 177.32C225.362 177.383 225.371 177.45 225.366 177.516C225.362 177.583 225.344 177.648 225.315 177.707C225.285 177.767 225.243 177.82 225.193 177.863C225.142 177.907 225.083 177.94 225.02 177.96C222.831 178.671 220.541 179.022 218.24 179Z" fill="#E6E6E6"/>
</svg>
